<?xml version="1.0" encoding="utf-8"?>
<!DOCTYPE svg PUBLIC "-//W3C//DTD SVG 20010904//EN" "http://www.w3.org/TR/2001/REC-SVG-20010904/DTD/svg10.dtd">
<svg xmlns="http://www.w3.org/2000/svg" xml:space="preserve" xmlns:xlink="http://www.w3.org/1999/xlink" width="68" height="40" viewBox="0 0 68 40">
<line fill="none" style="stroke:#000000; stroke-width:2;" x1="1" y1="0" x2="1" y2="40"/>
<line fill="none" style="stroke:#000000; stroke-width:1;" x1="3.5" y1="0" x2="3.5" y2="40"/>
<line fill="none" style="stroke:#000000; stroke-width:1;" x1="6.5" y1="0" x2="6.5" y2="30"/>
<line fill="none" style="stroke:#000000; stroke-width:2;" x1="12" y1="0" x2="12" y2="30"/>
<line fill="none" style="stroke:#000000; stroke-width:4;" x1="16" y1="0" x2="16" y2="30"/>
<line fill="none" style="stroke:#000000; stroke-width:2;" x1="20" y1="0" x2="20" y2="30"/>
<line fill="none" style="stroke:#000000; stroke-width:1;" x1="22.5" y1="0" x2="22.5" y2="30"/>
<line fill="none" style="stroke:#000000; stroke-width:2;" x1="25" y1="0" x2="25" y2="30"/>
<line fill="none" style="stroke:#000000; stroke-width:1;" x1="28.5" y1="0" x2="28.5" y2="30"/>
<line fill="none" style="stroke:#000000; stroke-width:1;" x1="33.5" y1="0" x2="33.5" y2="40"/>
<line fill="none" style="stroke:#000000; stroke-width:1;" x1="36.5" y1="0" x2="36.5" y2="40"/>
<line fill="none" style="stroke:#000000; stroke-width:4;" x1="41" y1="0" x2="41" y2="30"/>
<line fill="none" style="stroke:#000000; stroke-width:1;" x1="44.5" y1="0" x2="44.5" y2="30"/>
<line fill="none" style="stroke:#000000; stroke-width:1;" x1="46.5" y1="0" x2="46.5" y2="30"/>
<line fill="none" style="stroke:#000000; stroke-width:2;" x1="50" y1="0" x2="50" y2="30"/>
<line fill="none" style="stroke:#000000; stroke-width:2;" x1="56" y1="0" x2="56" y2="30"/>
<line fill="none" style="stroke:#000000; stroke-width:3;" x1="61.5" y1="0" x2="61.5" y2="30"/>
<line fill="none" style="stroke:#000000; stroke-width:1;" x1="64.5" y1="0" x2="64.5" y2="40"/>
<line fill="none" style="stroke:#000000; stroke-width:2;" x1="67" y1="0" x2="67" y2="40"/>
</svg>