<svg xmlns="http://www.w3.org/2000/svg"><defs><font id="OpenSansCondensed" horiz-adv-x="850"><font-face font-family="Open Sans Condensed Light" units-per-em="2048" panose-1="2 11 3 6 3 5 4 2 2 4" ascent="2189" descent="-600" alphabetic="0"/><glyph glyph-name="space" horiz-adv-x="385"/><glyph unicode="!" glyph-name="exclam" horiz-adv-x="451" d="M252 367h-55l-35 1095h125L252 367zM147 90q0 107 78 107 32 0 55-24t23-83q0-57-23-81t-55-25q-78 0-78 106z"/><glyph unicode="&quot;" glyph-name="quotedbl" horiz-adv-x="686" d="M256 1462l-29-528h-61l-33 528h123zm297 0l-29-528h-61l-33 528h123z"/><glyph unicode="#" glyph-name="numbersign" horiz-adv-x="868" d="M653 956l-45-399h174v-90H598L545 0h-82l55 467H285L231 0h-77l51 467H37v90h178l45 399H82v86h188l47 420h82l-49-420h236l49 420h76l-47-420h165v-86H653zM295 557h233l47 399H340l-45-399z"/><glyph unicode="$" glyph-name="dollar" horiz-adv-x="819" d="M367 123q-175 0-273 53v103q52-30 126-47t147-17v494q-148 62-205 139t-58 201q0 125 73 213t190 108v186h82v-182q140-4 258-61l-37-86q-117 54-221 57V776q151-62 214-139t64-193q0-123-75-208T449 129v-248h-82v242zm262 315q0 85-41 141t-139 97V223q82 19 131 78t49 137zm-428 617q0-95 39-149t127-97v469q-75-17-120-78t-46-145z"/><glyph unicode="%" glyph-name="percent" horiz-adv-x="1208" d="M184 1028q0-190 25-284t88-95q60 0 86 93t27 286q0 377-117 377-59 0-84-93t-25-284zm316-2q0-220-54-340T295 565q-99 0-150 120t-51 341q0 221 50 339t151 118q100 0 152-116t53-341zm385 436L410 0h-88l475 1462h88zM799 442q0-190 25-284t87-95q60 0 86 93t27 286q0 377-117 377-59 0-83-93t-25-284zm315-2q0-223-54-341T909-20q-98 0-149 121t-51 339q0 229 51 343t149 114q100 0 152-116t53-341z"/><glyph unicode="&amp;" glyph-name="ampersand" horiz-adv-x="834" d="M727 0l-98 178Q556 68 487 24T328-20q-122 0-192 99T66 356q0 91 22 162t65 132 132 138q-74 136-96 222t-23 194q0 132 52 205t142 74q91 0 143-75t52-214q0-138-38-235T391 774l236-422q57 118 57 293h94q0-94-29-204t-69-181L836 0H727zM162 354q0-135 47-207t127-73q72 0 131 46t113 142L326 717q-95-88-129-167t-35-196zm299 840q0 199-105 199-46 0-71-51t-25-148q0-87 24-183t64-161q65 66 89 152t24 192z"/><glyph unicode="'" glyph-name="quotesingle" horiz-adv-x="389" d="M256 1462l-29-528h-61l-33 528h123z"/><glyph unicode="(" glyph-name="parenleft" horiz-adv-x="565" d="M104 561q0 259 78 494t219 407h80q-134-198-203-429t-69-470q0-243 72-479t198-408h-78Q258-157 181 73t-77 488z"/><glyph unicode=")" glyph-name="parenright" horiz-adv-x="565" d="M461 561q0-258-76-488T164-324H86Q215-143 285 91t71 472q0 239-69 469T84 1462h80q143-170 220-407t77-494z"/><glyph unicode="*" glyph-name="asterisk" horiz-adv-x="745" d="M434 1556l-28-249 231 57 14-107-227-8 156-227-97-45-108 237-117-239-92 47 149 227-221 6 17 107 229-55-27 249h121z"/><glyph unicode="+" glyph-name="plus" horiz-adv-x="819" d="M369 682H59v82h310v434h82V764h309v-82H451V250h-82v432z"/><glyph unicode="," glyph-name="comma" horiz-adv-x="422" d="M307 182Q241-43 141-264H78Q153-9 178 205h115l14-23z"/><glyph unicode="-" glyph-name="hyphen" horiz-adv-x="516" d="M53 502v102h410V502H53z"/><glyph unicode="." glyph-name="period" horiz-adv-x="422" d="M133 90q0 107 78 107 32 0 55-24t23-83q0-57-23-81t-55-25q-78 0-78 106z"/><glyph unicode="/" glyph-name="slash" horiz-adv-x="713" d="M674 1462L152 0H51l527 1462h96z"/><glyph unicode="0" glyph-name="zero" horiz-adv-x="819" d="M729 733q0-371-80-562T408-20q-169 0-244 176T88 733q0 750 320 750 166 0 243-186t78-564zm-539 0q0-330 52-494T408 74q219 0 219 659 0 656-219 656-113 0-165-162t-53-494z"/><glyph unicode="1" glyph-name="one" horiz-adv-x="819" d="M512 0h-96v1075q0 131 8 283-21-28-98-105l-125-114-51 63 282 260h80V0z"/><glyph unicode="2" glyph-name="two" horiz-adv-x="819" d="M729 0H74v78l295 446q136 207 182 332t47 279q0 118-61 188t-166 70q-69 0-120-20t-104-62l-53 75q70 53 134 75t149 22q151 0 235-94t84-254q0-110-24-207t-69-190-148-242L186 98v-8h543V0z"/><glyph unicode="3" glyph-name="three" horiz-adv-x="819" d="M696 1137q0-137-59-232T459 766v-8q123-27 191-122t69-241q0-190-96-302T360-20Q192-20 84 33v108q126-73 276-73 122 0 190 88t68 243q0 146-79 229t-234 83h-74v92h80q128 0 207 89t80 236q0 125-56 196t-159 71q-69 0-123-23t-123-86l-61 64q74 72 146 102t159 31q144 0 229-95t86-251z"/><glyph unicode="4" glyph-name="four" horiz-adv-x="819" d="M793 332H637V0h-96v332H37v84l479 1063h121V422h156v-90zm-252 90v706q0 122 8 238h-6l-74-188-332-756h404z"/><glyph unicode="5" glyph-name="five" horiz-adv-x="819" d="M365 788q-102 0-207-30l-49 63 43 641h495v-94H233l-36-514q90 20 174 20 164 0 260-109t96-300q0-221-105-353T342-20Q186-20 98 35v110q110-77 240-77 133 0 211 109t78 284q0 164-70 245t-192 82z"/><glyph unicode="6" glyph-name="six" horiz-adv-x="819" d="M100 623q0 439 107 649t317 211q77 0 127-23v-96q-58 25-135 25-144 0-225-165t-92-483h8q34 76 93 119t136 43q136 0 214-121t79-333q0-219-83-344T422-20q-157 0-239 165t-83 478zM424 74q99 0 152 92t53 278q0 178-52 272t-155 95q-100 0-160-81t-61-206q0-125 28-232t78-163 117-55z"/><glyph unicode="7" glyph-name="seven" horiz-adv-x="819" d="M195 0l454 1368H57v94h691v-82L297 0H195z"/><glyph unicode="8" glyph-name="eight" horiz-adv-x="819" d="M412 1483q138 0 222-89t85-247q0-242-240-385 107-72 160-128t82-122 29-150q0-167-92-274T422-20Q268-20 170 82T72 350q0 126 54 224t191 188q-211 162-211 381 0 151 85 245t221 95zM174 348q0-126 66-202t174-76q106 0 169 79t64 218q0 178-207 321l-49 33q-121-78-169-161t-48-212zm236 1045q-94 0-148-67t-55-187q0-103 45-180t158-152q109 65 158 147t50 185q0 120-54 187t-154 67z"/><glyph unicode="9" glyph-name="nine" horiz-adv-x="819" d="M711 858q0-437-109-657T281-20q-37 0-78 7T145 2v96q55-24 144-24 145 0 229 168t94 479h-8q-34-76-93-119t-136-43q-137 0-215 123t-78 332q0 218 84 343t235 126q153 0 231-161t79-464zm-316 531q-98 0-155-92t-58-279q0-178 52-272t155-95q100 0 160 84t61 226q0 125-26 225t-75 151-114 52z"/><glyph unicode=":" glyph-name="colon" horiz-adv-x="422" d="M133 90q0 107 78 107 32 0 55-24t23-83q0-57-23-81t-55-25q-78 0-78 106zm0 891q0 106 78 106t78-106q0-57-23-82t-55-25q-78 0-78 107z"/><glyph unicode=";" glyph-name="semicolon" horiz-adv-x="422" d="M133 981q0 106 78 106t78-106q0-57-23-82t-55-25q-78 0-78 107zm174-799Q241-43 141-264H78Q153-9 178 205h115l14-23z"/><glyph unicode="&lt;" glyph-name="less" horiz-adv-x="819" d="M762 287L59 690v68l703 399v-100L162 723l600-334V287z"/><glyph unicode="=" glyph-name="equal" horiz-adv-x="819" d="M59 895v82h701v-82H59zm0-430v82h701v-82H59z"/><glyph unicode="&gt;" glyph-name="greater" horiz-adv-x="819" d="M57 389l600 334-600 334v100l703-399v-68L57 287v102z"/><glyph unicode="?" glyph-name="question" horiz-adv-x="578" d="M190 367v51q0 114 20 187t79 161q88 134 114 213t27 174q0 116-45 178t-125 62q-57 0-97-16t-81-44l-47 76q99 74 225 74 130 0 200-83t70-241q0-121-31-202T371 729q-59-88-83-157t-24-169v-36h-74zM156 90q0 107 77 107 32 0 55-24t23-83q0-57-23-81t-55-25q-77 0-77 106z"/><glyph unicode="@" glyph-name="at" horiz-adv-x="1233" d="M1130 735q0-504-225-504-83 0-119 54t-38 153h-9q-17-108-54-157t-103-50q-88 0-136 93t-49 264q0 473 262 473 88 0 164-29l-20-477v-61q0-91 26-129t76-39q68 0 97 102t30 313q0 190-47 336t-134 226-198 81q-133 0-236-99t-158-278-56-411q0-326 102-508T590-94q69 0 128 20t97 49v-94q-50-31-104-46t-127-15q-230 0-351 194T111 580q0 274 66 476t190 309 288 108q138 0 247-93t169-261 59-384zM496 584q0-258 104-258 45 0 70 83t35 257l16 305q-27 8-72 8-74 0-113-100t-40-295z"/><glyph unicode="A" glyph-name="A" horiz-adv-x="813" d="M713 0L584 530H229L102 0H0l352 1462h101L813 0H713zM561 629l-129 545q-20 92-31 174-9-87-28-174L248 629h313z"/><glyph unicode="B" glyph-name="B" horiz-adv-x="907" d="M160 1462h280q172 0 264-88t93-260q0-297-217-340v-8q125-26 186-111t61-239q0-196-87-306T496 0H160v1462zm98-651h184q137 0 195 75t59 230q0 124-64 190t-192 66H258V811zm0-90V90h225q242 0 242 328 0 146-71 224t-199 79H258z"/><glyph unicode="C" glyph-name="C" horiz-adv-x="860" d="M573 1391q-165 0-262-174t-98-484q0-201 45-350t129-229 195-80q114 0 196 41V25q-78-45-205-45-139 0-243 90T168 330t-57 405q0 350 124 550t340 200q134 0 234-62l-45-86q-84 54-191 54z"/><glyph unicode="D" glyph-name="D" horiz-adv-x="995" d="M885 745Q885 0 420 0H160v1462h266q226 0 342-182t117-535zm-103-6q0 309-91 471t-269 162H258V90h156q190 0 279 166t89 483z"/><glyph unicode="E" glyph-name="E" horiz-adv-x="788" d="M690 0H160v1462h530v-94H258V813h408v-94H258V94h432V0z"/><glyph unicode="F" glyph-name="F" horiz-adv-x="729" d="M258 0h-98v1462h532v-94H258V748h410v-95H258V0z"/><glyph unicode="G" glyph-name="G" horiz-adv-x="1075" d="M641 737h320V45Q794-20 614-20q-239 0-371 200T111 735q0 356 136 552t384 196q166 0 313-94l-47-86q-138 88-266 88-205 0-310-168T215 733q0-314 106-486T623 74q140 0 239 37v532H641v94z"/><glyph unicode="H" glyph-name="H" horiz-adv-x="1026" d="M866 0h-98v719H258V0h-98v1462h98V813h510v649h98V0z"/><glyph unicode="I" glyph-name="I" horiz-adv-x="418" d="M160 0v1462h98V0h-98z"/><glyph unicode="J" glyph-name="J" horiz-adv-x="401" d="M27-369q-67 0-117 25v92q49-20 115-20 63 0 94 57t31 190v1487h98V-23q0-172-56-259T27-369z"/><glyph unicode="K" glyph-name="K" horiz-adv-x="825" d="M825 0H715L371 729 258 580V0h-98v1462h98V688q51 96 432 774h107L430 819 825 0z"/><glyph unicode="L" glyph-name="L" horiz-adv-x="711" d="M160 0v1462h98V94h412V0H160z"/><glyph unicode="M" glyph-name="M" horiz-adv-x="1395" d="M641 0L252 1331h-8q10-210 10-266V0h-94v1462h145L633 344q44-148 57-252h8q10 74 62 250l325 1120h150V0h-98v1057q0 62 10 272h-8L752 0H641z"/><glyph unicode="N" glyph-name="N" horiz-adv-x="1090" d="M930 0H805L252 1311h-8q12-136 12-262V0h-96v1462h127L836 166h6q-8 164-8 274v1022h96V0z"/><glyph unicode="O" glyph-name="O" horiz-adv-x="1065" d="M954 733q0-363-108-558T532-20q-207 0-314 196T111 735q0 378 106 563t318 185q204 0 311-194t108-556zm-741 0q0-326 81-492T532 74q157 0 238 165t82 494q0 325-80 490t-237 166q-161 0-241-167t-81-489z"/><glyph unicode="P" glyph-name="P" horiz-adv-x="840" d="M772 1042q0-226-103-332T362 604H258V0h-98v1462h200q214 0 313-101t99-319zM258 694h98q172 0 244 81t72 267q0 177-74 253t-231 77H258V694z"/><glyph unicode="Q" glyph-name="Q" horiz-adv-x="1065" d="M893-348H768L582-16l-50-4q-207 0-314 196T111 735q0 378 106 563t318 185q204 0 311-194t108-556q0-291-70-476T680 10l213-358zM213 733q0-326 81-492T532 74q157 0 238 165t82 494q0 325-80 490t-237 166q-161 0-241-167t-81-489z"/><glyph unicode="R" glyph-name="R" horiz-adv-x="870" d="M258 639V0h-98v1462h200q214 0 313-101t99-302q0-152-54-250T537 662L827 0H717L444 639H258zm0 90h137q133 0 205 82t72 244q0 165-73 238t-232 73H258V729z"/><glyph unicode="S" glyph-name="S" horiz-adv-x="809" d="M721 383q0-180-100-291T367-20Q192-20 86 31v106q52-29 129-46t152-17q112 0 184 85t72 216q0 121-51 192T377 709q-113 57-169 110t-83 125-27 170q0 108 44 192t123 130 173 47q85 0 154-19t110-41l-38-94q-111 57-226 57-108 0-175-73t-68-195q0-123 49-191t192-141q148-72 216-168t69-235z"/><glyph unicode="T" glyph-name="T" horiz-adv-x="711" d="M403 0h-98v1368H14v94h680v-94H403V0z"/><glyph unicode="U" glyph-name="U" horiz-adv-x="1012" d="M864 1462V475q0-495-354-495-177 0-270 128t-93 367v987h99V463q0-190 68-289T510 74q126 0 191 99t65 294v995h98z"/><glyph unicode="V" glyph-name="V" horiz-adv-x="799" d="M698 1462h101L453 0H344L0 1462h102L340 434q28-118 37-173t18-140q8 58 17 114t17 94 269 1133z"/><glyph unicode="W" glyph-name="W" horiz-adv-x="1395" d="M1284 1462h100L1073 0H954L731 1094q-6 27-35 239l-14-95-23-142L440 0H324L10 1462h103L319 455q48-246 62-344 22 160 57 340l205 1011h111L958 455q32-164 46-270l10-74q29 211 57 344l213 1007z"/><glyph unicode="X" glyph-name="X" horiz-adv-x="715" d="M694 0H592L373 672 119 0H20l306 776-263 686h103l217-608 211 608h100L436 754 694 0z"/><glyph unicode="Y" glyph-name="Y" horiz-adv-x="686" d="M344 707l238 755h104L391 571V0h-98v571L0 1462h104l240-755z"/><glyph unicode="Z" glyph-name="Z" horiz-adv-x="643" d="M602 0H57v88l424 1278H63v96h527v-90L160 94h442V0z"/><glyph unicode="[" glyph-name="bracketleft" horiz-adv-x="645" d="M571-324H174v1786h397v-90H268V-233h303v-91z"/><glyph unicode="\" glyph-name="backslash" horiz-adv-x="713" d="M147 1462L674 0H573L51 1462h96z"/><glyph unicode="]" glyph-name="bracketright" horiz-adv-x="645" d="M74-233h303v1605H74v90h397V-324H74v91z"/><glyph unicode="^" glyph-name="asciicircum" horiz-adv-x="819" d="M37 758l338 702h67l340-702H680l-270 590-273-590H37z"/><glyph unicode="_" glyph-name="underscore" horiz-adv-x="842" d="M846-266H-4v82h850v-82z"/><glyph unicode="`" glyph-name="grave" horiz-adv-x="1126" d="M702 1241q-65 53-148 148t-120 163v17h125q27-63 82-152t109-155v-21h-48z"/><glyph unicode="a" glyph-name="a" horiz-adv-x="784" d="M565 0l-12 152h-4Q471-20 313-20q-106 0-170 84T78 291q0 155 93 245t261 99l117 6v90q0 152-38 221t-126 70q-93 0-190-61l-41 75q113 70 237 70 134 0 193-84t59-283V0h-78zM334 61q102 0 158 100t57 285v113l-113-6q-131-7-194-72t-64-192q0-118 42-173t114-55z"/><glyph unicode="b" glyph-name="b" horiz-adv-x="893" d="M481 1104q318 0 318-559 0-276-79-420T492-20q-78 0-142 43T244 150h-8L223 0h-78v1556h95v-483l-4-131h8q86 162 237 162zm-4-88q-125 0-181-110t-56-361v-25q0-454 241-454 110 0 164 117t55 362q0 235-53 353t-170 118z"/><glyph unicode="c" glyph-name="c" horiz-adv-x="635" d="M424-20q-163 0-245 141T96 537q0 278 83 423t247 146q101 0 168-37l-37-84q-67 31-123 31-239 0-239-477 0-473 239-473 71 0 154 32V18q-33-18-81-28t-83-10z"/><glyph unicode="d" glyph-name="d" horiz-adv-x="893" d="M410-20Q94-20 94 541q0 276 79 420t233 145q73 0 138-42t105-116h8l-4 121v487h95V0h-78l-8 152h-9Q614 69 552 25T410-20zm6 83q114 0 175 105t62 311v62q0 246-59 360t-182 115q-117 0-168-122t-51-355q0-234 53-355T416 63z"/><glyph unicode="e" glyph-name="e" horiz-adv-x="803" d="M453-20q-172 0-264 146T96 535q0 278 82 424t238 147q135 0 213-128t78-347v-88H193q2-237 67-355T457 70q102 0 215 67V45Q568-20 453-20zm-43 1040q-196 0-215-391h417q0 179-54 285t-148 106z"/><glyph unicode="f" glyph-name="f" horiz-adv-x="453" d="M422 1001H252V0h-94v1001H20v54l138 41v82q0 207 49 298t170 91q70 0 127-25l-33-88q-53 25-96 25-49 0-74-29t-37-94-12-180v-91h170v-84z"/><glyph unicode="g" glyph-name="g" horiz-adv-x="741" d="M713 1085v-67l-148-17q30-39 49-111t19-149q0-158-71-256t-189-98h-24l-21 2q-48-34-75-68t-28-79q0-46 36-71t97-26h68q145 0 225-75t80-217q0-159-107-252t-284-93q-147 0-226 74T35-203q0 102 52 174T250 86q-50 22-80 61t-31 93q0 49 32 87t93 83q-83 38-125 123T96 733q0 173 73 273t200 100q68 0 114-21h230zM129-195q0-103 53-161t162-58q134 0 212 70t79 192q0 98-53 151T426 53h-70q-98 0-162-68t-65-180zm59 926q0-133 49-201t130-69q174 0 174 280 0 135-44 211t-130 76q-87 0-133-78t-46-219z"/><glyph unicode="h" glyph-name="h" horiz-adv-x="870" d="M635 0v748q0 147-38 208t-126 62q-115 0-173-102t-58-322V0h-95v1556h95v-505q0-69-4-115h8q32 81 96 125t135 45q138 0 196-90t58-268V0h-94z"/><glyph unicode="i" glyph-name="i" horiz-adv-x="385" d="M240 0h-95v1085h95V0zM131 1386q0 45 18 70t48 25q27 0 43-25t16-70q0-43-16-68t-43-26q-29 0-47 25t-19 69z"/><glyph unicode="j" glyph-name="j" horiz-adv-x="385" d="M63-492q-42 0-67 17v90q32-16 63-16 47 0 66 45t20 141v1300h95V-201q0-149-43-220T63-492zm68 1878q0 45 18 70t48 25q27 0 43-25t16-70q0-43-16-68t-43-26q-29 0-47 25t-19 69z"/><glyph unicode="k" glyph-name="k" horiz-adv-x="711" d="M242 537l61 110 268 438h103L424 686 696 0H596L360 598 240 440V0h-95v1556h95V719l-7-182h9z"/><glyph unicode="l" glyph-name="l" horiz-adv-x="385" d="M240 0h-95v1556h95V0z"/><glyph unicode="m" glyph-name="m" horiz-adv-x="1303" d="M1067 0v739q0 273-160 273-110 0-158-95t-49-282V0h-94v739q0 138-39 205t-121 68q-108 0-157-98t-49-318V0h-95v1085h80l8-151h9q65 172 221 172 90 0 142-48t75-140q39 100 96 144t148 44q123 0 180-94t57-303V0h-94z"/><glyph unicode="n" glyph-name="n" horiz-adv-x="870" d="M635 0v748q0 270-160 270-122 0-178-101t-57-321V0h-95v1085h80l8-151h9q34 82 98 127t137 45q126 0 189-84t63-272V0h-94z"/><glyph unicode="o" glyph-name="o" d="M756 545q0-274-86-419T422-20q-159 0-243 145T94 545q0 561 332 561 156 0 243-147t87-414zm-563 0q0-235 56-355T424 70q233 0 233 475 0 471-233 471-122 0-176-118t-55-353z"/><glyph unicode="p" glyph-name="p" horiz-adv-x="893" d="M494-20q-82 0-149 45T242 150h-9l7-119v-523h-95v1577h78l10-149h9q40 82 102 126t137 44q318 0 318-561 0-271-78-418T494-20zm-19 1036q-119 0-177-105t-58-329v-31q0-250 59-367T479 66q112 0 166 116t55 363q0 235-51 353t-174 118z"/><glyph unicode="q" glyph-name="q" horiz-adv-x="893" d="M406-20q-151 0-231 138T94 541q0 287 84 426t232 139q156 0 239-166h8l15 145h76V-492h-95v469q0 67 9 181h-9Q567-20 406-20zm14 86q111 0 172 108t61 318v49q0 246-59 360t-182 115q-117 0-168-122t-51-355q0-249 54-361T420 66z"/><glyph unicode="r" glyph-name="r" horiz-adv-x="559" d="M446 1106q51 0 95-14l-23-95q-36 15-74 15-55 0-102-56t-75-158-27-223V0h-95v1085h78l10-190h7q76 211 206 211z"/><glyph unicode="s" glyph-name="s" horiz-adv-x="645" d="M571 272q0-137-72-214T291-20q-74 0-130 19T74 41v111q37-37 98-59t125-23q84 0 132 55t48 147q0 72-34 121T311 506q-111 70-151 112t-63 94-23 124q0 117 79 193t201 77q131 0 219-62l-49-83q-82 55-174 55-84 0-134-49t-50-131q0-72 34-120t144-118q108-71 148-113t59-94 20-119z"/><glyph unicode="t" glyph-name="t" horiz-adv-x="449" d="M344 68q44 0 78 12V0q-44-20-113-20-168 0-168 251v770H43v56l96 28 31 258h66v-258h172v-84H236V258q0-110 24-150t84-40z"/><glyph unicode="u" glyph-name="u" horiz-adv-x="870" d="M236 1085V377q0-161 38-235t119-74q123 0 180 99t58 322v596h94V0h-80l-12 152h-8q-35-83-97-127T393-20q-131 0-191 93t-61 304v708h95z"/><glyph unicode="v" glyph-name="v" horiz-adv-x="653" d="M266 0L10 1085h96l162-698q28-121 54-264h8q7 52 20 116t197 846h96L379 0H266z"/><glyph unicode="w" glyph-name="w" horiz-adv-x="1124" d="M748 0L598 735q-2 8-3 17t-32 192h-2l-14-85-23-124L369 0H256L20 1085h95l135-632 63-330h6q18 143 58 332l135 630h100l136-632q16-71 57-330h6q3 33 29 166t170 796h94L860 0H748z"/><glyph unicode="x" glyph-name="x" horiz-adv-x="676" d="M293 563L55 1085h103l182-440 190 440h99L387 551 641 0H541L338 469 133 0H35l258 563z"/><glyph unicode="y" glyph-name="y" horiz-adv-x="653" d="M281 2L10 1085h96l164-677q29-122 56-275h8q19 133 53 277l160 675h96L326-205q-35-143-91-215T84-492q-38 0-86 17v86q40-14 78-14 60 0 95 51t62 166L281 2z"/><glyph unicode="z" glyph-name="z" horiz-adv-x="541" d="M494 0H59v76l320 925H80v84h399v-77L160 84h334V0z"/><glyph unicode="{" glyph-name="braceleft" horiz-adv-x="737" d="M109 604q77 0 121 20t65 62 20 133v324q0 148 84 231t234 88v-80q-112-2-165-59t-54-176V831q0-121-45-179t-150-79v-8q106-20 150-78t45-180V-8q0-119 53-176t166-60v-80q-152 4-235 89T315-4v323q0 89-19 132t-64 63-123 21v69z"/><glyph unicode="|" glyph-name="bar" horiz-adv-x="819" d="M457-492h-95v2048h95V-492z"/><glyph unicode="}" glyph-name="braceright" horiz-adv-x="737" d="M629 535q-78 0-122-20t-65-63-20-133V-4q0-147-83-231t-235-89v80q112 2 166 59T324-8v315q0 121 44 179t150 79v8q-103 20-148 78t-46 180v316q0 119-54 176t-166 59v80q150-4 234-88t84-231V819q0-90 20-132t64-62 123-21v-69z"/><glyph unicode="~" glyph-name="asciitilde" horiz-adv-x="819" d="M242 739q-41 0-90-32t-93-89v99q75 106 185 106 39 0 75-9t109-50q49-28 83-40t69-13q49 0 96 32t84 84v-98q-73-104-180-104-49 0-83 10t-104 49q-59 33-89 44t-62 11z"/><glyph glyph-name="nbspace" horiz-adv-x="532"/><glyph unicode="¡" glyph-name="exclamdown" horiz-adv-x="451" d="M287-391H162l35 1096h55l35-1096zM147 981q0 106 78 106 32 0 55-24t23-82q0-59-23-83t-55-24q-78 0-78 107z"/><glyph unicode="¢" glyph-name="cent" horiz-adv-x="819" d="M438-20v213q-135 23-202 164t-68 388q0 249 67 392t203 172v174h82v-168q88-6 146-37l-37-86q-70 29-123 29-126 0-182-122t-56-351q0-469 238-469 70 0 153 32v-84q-51-30-139-39V-20h-82z"/><glyph unicode="£" glyph-name="sterling" horiz-adv-x="819" d="M506 1483q134 0 235-88l-55-76q-53 43-93 58t-89 16q-90 0-129-65t-39-208V768h250v-86H336V395q0-214-121-301h522V0H92v82q68 29 107 110t39 201v289H80v86h158v354q0 183 64 272t204 89z"/><glyph unicode="¤" glyph-name="currency" horiz-adv-x="1135" d="M174 723q0 136 86 246l-135 137 57 57 135-137q109 90 250 90 139 0 246-88l135 135 60-57-136-135q89-108 89-248t-89-248l136-137-58-57-137 135q-107-86-246-86-143 0-250 88L184 283l-57 59 133 133q-86 110-86 248zm78 0q0-132 91-223t224-92q133 0 225 92t93 223q0 85-42 158T727 997t-160 43q-85 0-158-42T294 882t-42-159z"/><glyph unicode="¥" glyph-name="yen" horiz-adv-x="819" d="M332 655l-226 807h97l207-766 202 766h99L483 655h197v-82H459V373h221v-82H459V0H356v291H141v82h215v198l-2 2H141v82h191z"/><glyph unicode="¦" glyph-name="brokenbar" horiz-adv-x="819" d="M457 758h-95v798h95V758zm0-1250h-95v799h95v-799z"/><glyph unicode="§" glyph-name="section" horiz-adv-x="698" d="M102 1303q0 113 78 183t197 70q59 0 100-10t105-45l-39-74q-50 30-87 40t-83 10q-81 0-129-45t-49-117q0-64 34-107t144-108q109-63 148-100t59-81 20-106q0-71-33-134t-86-95q65-50 92-101t27-114q0-123-79-197T307 98q-138 0-225 56v100q40-35 99-54t124-20q90 0 145 52t56 130q0 64-33 107T340 573l-94 55q-82 48-123 103T82 858q0 81 39 139t108 88q-127 89-127 218zm404-496q0 50-17 85t-54 65-136 83q-63-20-94-65t-31-105q0-65 53-118t187-117q92 53 92 172z"/><glyph unicode="¨" glyph-name="dieresis" horiz-adv-x="1126" d="M348 1389q0 43 19 62t45 19q23 0 42-19t19-62q0-44-19-64t-42-20q-25 0-44 20t-20 64zm305 0q0 43 19 62t43 19q25 0 44-19t19-62q0-44-19-64t-44-20q-23 0-42 20t-20 64z"/><glyph unicode="©" glyph-name="copyright" horiz-adv-x="1704" d="M897 1092q-142 0-222-94t-81-265q0-186 74-275t221-89q84 0 198 43v-88q-102-45-208-45-187 0-288 115T489 725q0 208 111 332t297 125q119 0 227-52l-37-83q-98 45-190 45zM100 731q0 200 100 375t275 276 377 101q200 0 375-100t276-275 101-377q0-197-97-370T1235 84 852-20Q645-20 470 83T198 360t-98 371zm93 0q0-178 88-329t241-241 330-89q178 0 329 88t241 241 89 330q0 174-85 325t-239 243-335 92q-176 0-328-88t-242-243-89-329z"/><glyph unicode="ª" glyph-name="ordfeminine" horiz-adv-x="578" d="M406 817l-15 84h-8q-69-96-172-96-67 0-110 49T57 989q0 91 55 140t177 61l92 8v72q0 74-24 106t-81 33q-62 0-133-39l-28 64q81 45 170 45 96 0 137-50t41-157V817h-57zM143 987q0-113 95-113 68 0 105 51t38 144v66l-62-7q-95-9-135-40t-41-101z"/><glyph unicode="«" glyph-name="guillemotleft" horiz-adv-x="856" d="M82 541l287 366 61-35-219-344 219-344-61-37L82 514v27zm344 0l289 366 59-35-217-344 217-344-59-37-289 367v27z"/><glyph unicode="¬" glyph-name="logicalnot" horiz-adv-x="819" d="M739 250h-82v432H59v82h680V250z"/><glyph unicode="­" glyph-name="uni00AD" horiz-adv-x="516" d="M53 502v102h410V502H53z"/><glyph unicode="®" glyph-name="registered" horiz-adv-x="1704" d="M709 731h112q91 0 143 46t52 136q0 172-197 172H709V731zm411 187q0-175-147-240l198-387h-114L883 651H709V291H608v880h211q143 0 222-62t79-191zM100 731q0 200 100 375t275 276 377 101q200 0 375-100t276-275 101-377q0-197-97-370T1235 84 852-20Q645-20 470 83T198 360t-98 371zm93 0q0-178 88-329t241-241 330-89q178 0 329 88t241 241 89 330q0 174-85 325t-239 243-335 92q-176 0-328-88t-242-243-89-329z"/><glyph unicode="¯" glyph-name="overscore" horiz-adv-x="842" d="M850 1556H-8v82h858v-82z"/><glyph unicode="°" glyph-name="degree" horiz-adv-x="877" d="M139 1184q0 132 86 215t213 84q126 0 212-83t87-216q0-132-86-215t-213-84q-130 0-214 83t-85 216zm90 0q0-91 61-154t148-63q86 0 147 62t62 155q0 92-60 154t-149 63q-90 0-149-64t-60-153z"/><glyph unicode="±" glyph-name="plusminus" horiz-adv-x="819" d="M369 682H59v82h310v434h82V764h309v-82H451V250h-82v432zM59 0v82h701V0H59z"/><glyph unicode="²" glyph-name="twosuperior" horiz-adv-x="614" d="M520 586H49v78l178 223q79 98 116 154t53 101 16 109q0 66-37 106t-105 40q-88 0-164-82l-55 61q94 107 221 107 110 0 172-62t62-170q0-87-38-164T295 844L150 668h370v-82z"/><glyph unicode="³" glyph-name="threesuperior" horiz-adv-x="614" d="M498 1255q0-72-36-125t-102-77v-9q166-46 166-225 0-110-75-180t-201-70q-99 0-197 43v95q95-52 199-52 94 0 137 45t43 119q0 90-51 137t-154 48h-61v81h65q85 0 131 48t46 127q0 66-39 102t-111 37q-84 0-158-72l-53 68q99 90 219 90 111 0 171-61t61-169z"/><glyph unicode="´" glyph-name="acute" horiz-adv-x="1126" d="M434 1241v21q127 166 191 307h125v-17q-39-70-118-161t-151-150h-47z"/><glyph unicode="µ" glyph-name="mu" horiz-adv-x="874" d="M240 1085V352q0-284 157-284 123 0 180 99t58 322v596h94V0h-80l-12 152h-8q-34-81-95-126T406-20Q288-20 240 86h-9q9-120 9-183v-395h-95v1577h95z"/><glyph unicode="¶" glyph-name="paragraph" horiz-adv-x="967" d="M768-260h-94v1720H528V-260h-94v819q-30-18-69-18-111 0-163 123t-52 378q0 255 63 384t201 130h354V-260z"/><glyph unicode="·" glyph-name="middot" horiz-adv-x="422" d="M133 721q0 106 78 106t78-106q0-57-23-82t-55-25q-78 0-78 107z"/><glyph unicode="¸" glyph-name="cedilla" horiz-adv-x="465" d="M379-291q0-100-62-150t-172-51q-62 0-86 11v78q31-11 78-11 78 0 115 33t37 88q0 60-44 90t-122 43L195 0h75l-51-115q160-39 160-176z"/><glyph unicode="¹" glyph-name="onesuperior" horiz-adv-x="614" d="M397 586h-86v614q0 86 6 170-33-31-55-49t-131-96l-49 65 237 172h78V586z"/><glyph unicode="º" glyph-name="ordmasculine" horiz-adv-x="618" d="M549 1143q0-165-61-251t-177-87q-119 0-180 86t-61 252q0 160 63 248t178 88q113 0 175-82t63-254zm-389 0q0-139 36-201t113-63q82 0 116 62t34 202q0 139-35 200t-115 62q-69 0-109-62t-40-200z"/><glyph unicode="»" glyph-name="guillemotright" horiz-adv-x="856" d="M774 514L487 147l-61 37 219 344-219 344 61 35 287-366v-27zm-344 0L141 147l-59 37 217 344L82 872l59 35 289-366v-27z"/><glyph unicode="¼" glyph-name="onequarter" horiz-adv-x="1430" d="M1304 210h-100V1h-86v209H784v65l340 608h80V292h100v-82zm-186 82v282q0 122 4 170-5-12-41-87T885 292h233zM623 586h-86v614q0 86 6 170-33-31-55-49t-131-96l-49 65 237 172h78V586zm513 876L368 0h-92l768 1462h92z"/><glyph unicode="½" glyph-name="onehalf" horiz-adv-x="1430" d="M1335 1H864v78l178 223q79 98 116 154t53 101 16 109q0 66-37 106t-105 40q-88 0-164-82l-55 61q94 107 221 107 110 0 172-62t62-170q0-87-38-164t-173-243L965 83h370V1zM623 586h-86v614q0 86 6 170-33-31-55-49t-131-96l-49 65 237 172h78V586zm489 876L344 0h-92l768 1462h92z"/><glyph unicode="¾" glyph-name="threequarters" horiz-adv-x="1430" d="M1343 210h-100V1h-86v209H823v65l340 608h80V292h100v-82zm-186 82v282q0 122 4 170-5-12-41-87T924 292h233zm-659 963q0-72-36-125t-102-77v-9q166-46 166-225 0-110-75-180t-201-70q-99 0-197 43v95q95-52 199-52 94 0 137 45t43 119q0 90-51 137t-154 48h-61v81h65q85 0 131 48t46 127q0 66-39 102t-111 37q-84 0-158-72l-53 68q99 90 219 90 111 0 171-61t61-169zm679 207L409 0h-92l768 1462h92z"/><glyph unicode="¿" glyph-name="questiondown" horiz-adv-x="578" d="M387 705v-52q0-115-21-189t-77-159q-68-103-92-155T160 43 147-82q0-116 46-178t124-62q57 0 97 16t82 44l47-76q-102-74-226-74-132 0-201 85T47-88q0 76 11 132t38 112 111 186q59 92 81 158t23 166v39h76zm35 276q0-107-78-107-32 0-55 24t-23 83q0 57 23 81t55 25q78 0 78-106z"/><glyph unicode="À" glyph-name="Agrave" horiz-adv-x="813" d="M713 0L584 530H229L102 0H0l352 1462h101L813 0H713zM561 629l-129 545q-20 92-31 174-9-87-28-174L248 629h313zm-147 950q-65 53-148 148t-120 163v17h125q27-63 82-152t109-155v-21h-48z"/><glyph unicode="Á" glyph-name="Aacute" horiz-adv-x="813" d="M713 0L584 530H229L102 0H0l352 1462h101L813 0H713zM561 629l-129 545q-20 92-31 174-9-87-28-174L248 629h313zm-222 950v21q127 166 191 307h125v-17q-39-70-118-161t-151-150h-47z"/><glyph unicode="Â" glyph-name="Acircumflex" horiz-adv-x="813" d="M713 0L584 530H229L102 0H0l352 1462h101L813 0H713zM561 629l-129 545q-20 92-31 174-9-87-28-174L248 629h313zm30 950q-32 31-91 101l-97 112q-50-56-100-114t-93-99h-43v19q121 168 186 309h95q24-55 78-144t112-165v-19h-47z"/><glyph unicode="Ã" glyph-name="Atilde" horiz-adv-x="813" d="M713 0L584 530H229L102 0H0l352 1462h101L813 0H713zM561 629l-129 545q-20 92-31 174-9-87-28-174L248 629h313zm-34 952q-35 0-69 20t-65 43-58 44-51 20q-32 0-53-36t-31-93h-74q12 97 53 154t113 57q35 0 68-20t63-43 58-44 53-20q35 0 52 36t27 93h74q-9-101-51-156t-109-55z"/><glyph unicode="Ä" glyph-name="Adieresis" horiz-adv-x="813" d="M713 0L584 530H229L102 0H0l352 1462h101L813 0H713zM561 629l-129 545q-20 92-31 174-9-87-28-174L248 629h313zM191 1727q0 43 19 62t45 19q23 0 42-19t19-62q0-44-19-64t-42-20q-25 0-44 20t-20 64zm305 0q0 43 19 62t43 19q25 0 44-19t19-62q0-44-19-64t-44-20q-23 0-42 20t-20 64z"/><glyph unicode="Å" glyph-name="Aring" horiz-adv-x="813" d="M713 0L584 530H229L102 0H0l352 1462h101L813 0H713zM561 629l-129 545q-20 92-31 174-9-87-28-174L248 629h313zm43 960q0-89-54-140t-145-51q-93 0-146 50t-53 137q0 85 53 135t146 51q87 0 143-49t56-133zm-78-4q0 51-31 83t-90 33q-54 0-87-32t-34-84q0-53 30-85t91-32q54 0 87 32t34 85z"/><glyph unicode="Æ" glyph-name="AE" horiz-adv-x="1153" d="M1055 0H524v530H256L104 0H0l434 1462h621v-96H623V813h407v-94H623V94h432V0zM283 629h241v735h-28L283 629z"/><glyph unicode="Ç" glyph-name="Ccedilla" horiz-adv-x="860" d="M573 1391q-165 0-262-174t-98-484q0-201 45-350t129-229 195-80q114 0 196 41V25q-78-45-205-45-139 0-243 90T168 330t-57 405q0 350 124 550t340 200q134 0 234-62l-45-86q-84 54-191 54zM692-291q0-100-62-150t-172-51q-62 0-86 11v78q31-11 78-11 78 0 115 33t37 88q0 60-44 90t-122 43L508 0h75l-51-115q160-39 160-176z"/><glyph unicode="È" glyph-name="Egrave" horiz-adv-x="788" d="M690 0H160v1462h530v-94H258V813h408v-94H258V94h432V0zM467 1579q-65 53-148 148t-120 163v17h125q27-63 82-152t109-155v-21h-48z"/><glyph unicode="É" glyph-name="Eacute" horiz-adv-x="788" d="M690 0H160v1462h530v-94H258V813h408v-94H258V94h432V0zM324 1579v21q127 166 191 307h125v-17q-39-70-118-161t-151-150h-47z"/><glyph unicode="Ê" glyph-name="Ecircumflex" horiz-adv-x="788" d="M690 0H160v1462h530v-94H258V813h408v-94H258V94h432V0zm-85 1579q-32 31-91 101l-97 112q-50-56-100-114t-93-99h-43v19q121 168 186 309h95q24-55 78-144t112-165v-19h-47z"/><glyph unicode="Ë" glyph-name="Edieresis" horiz-adv-x="788" d="M690 0H160v1462h530v-94H258V813h408v-94H258V94h432V0zM202 1727q0 43 19 62t45 19q23 0 42-19t19-62q0-44-19-64t-42-20q-25 0-44 20t-20 64zm305 0q0 43 19 62t43 19q25 0 44-19t19-62q0-44-19-64t-44-20q-23 0-42 20t-20 64z"/><glyph unicode="Ì" glyph-name="Igrave" horiz-adv-x="418" d="M160 0v1462h98V0h-98zm74 1579q-65 53-148 148t-120 163v17H91q27-63 82-152t109-155v-21h-48z"/><glyph unicode="Í" glyph-name="Iacute" horiz-adv-x="418" d="M160 0v1462h98V0h-98zm-6 1579v21q127 166 191 307h125v-17q-39-70-118-161t-151-150h-47z"/><glyph unicode="Î" glyph-name="Icircumflex" horiz-adv-x="418" d="M160 0v1462h98V0h-98zm238 1579q-32 31-91 101l-97 112q-50-56-100-114t-93-99h-43v19q121 168 186 309h95q24-55 78-144t112-165v-19h-47z"/><glyph unicode="Ï" glyph-name="Idieresis" horiz-adv-x="418" d="M160 0v1462h98V0h-98zM-5 1727q0 43 19 62t45 19q23 0 42-19t19-62q0-44-19-64t-42-20q-25 0-44 20t-20 64zm305 0q0 43 19 62t43 19q25 0 44-19t19-62q0-44-19-64t-44-20q-23 0-42 20t-20 64z"/><glyph unicode="Ð" glyph-name="Eth" horiz-adv-x="995" d="M885 745Q885 0 420 0H160v700H61v91h99v671h266q226 0 342-182t117-535zm-103-6q0 309-91 471t-269 162H258V791h225v-91H258V90h156q190 0 279 166t89 483z"/><glyph unicode="Ñ" glyph-name="Ntilde" horiz-adv-x="1090" d="M930 0H805L252 1311h-8q12-136 12-262V0h-96v1462h127L836 166h6q-8 164-8 274v1022h96V0zM685 1581q-35 0-69 20t-65 43-58 44-51 20q-32 0-53-36t-31-93h-74q12 97 53 154t113 57q35 0 68-20t63-43 58-44 53-20q35 0 52 36t27 93h74q-9-101-51-156t-109-55z"/><glyph unicode="Ò" glyph-name="Ograve" horiz-adv-x="1065" d="M954 733q0-363-108-558T532-20q-207 0-314 196T111 735q0 378 106 563t318 185q204 0 311-194t108-556zm-741 0q0-326 81-492T532 74q157 0 238 165t82 494q0 325-80 490t-237 166q-161 0-241-167t-81-489zm338 846q-65 53-148 148t-120 163v17h125q27-63 82-152t109-155v-21h-48z"/><glyph unicode="Ó" glyph-name="Oacute" horiz-adv-x="1065" d="M954 733q0-363-108-558T532-20q-207 0-314 196T111 735q0 378 106 563t318 185q204 0 311-194t108-556zm-741 0q0-326 81-492T532 74q157 0 238 165t82 494q0 325-80 490t-237 166q-161 0-241-167t-81-489zm246 846v21q127 166 191 307h125v-17q-39-70-118-161t-151-150h-47z"/><glyph unicode="Ô" glyph-name="Ocircumflex" horiz-adv-x="1065" d="M954 733q0-363-108-558T532-20q-207 0-314 196T111 735q0 378 106 563t318 185q204 0 311-194t108-556zm-741 0q0-326 81-492T532 74q157 0 238 165t82 494q0 325-80 490t-237 166q-161 0-241-167t-81-489zm507 846q-32 31-91 101l-97 112q-50-56-100-114t-93-99h-43v19q121 168 186 309h95q24-55 78-144t112-165v-19h-47z"/><glyph unicode="Õ" glyph-name="Otilde" horiz-adv-x="1065" d="M954 733q0-363-108-558T532-20q-207 0-314 196T111 735q0 378 106 563t318 185q204 0 311-194t108-556zm-741 0q0-326 81-492T532 74q157 0 238 165t82 494q0 325-80 490t-237 166q-161 0-241-167t-81-489zm449 848q-35 0-69 20t-65 43-58 44-51 20q-32 0-53-36t-31-93h-74q12 97 53 154t113 57q35 0 68-20t63-43 58-44 53-20q35 0 52 36t27 93h74q-9-101-51-156t-109-55z"/><glyph unicode="Ö" glyph-name="Odieresis" horiz-adv-x="1065" d="M954 733q0-363-108-558T532-20q-207 0-314 196T111 735q0 378 106 563t318 185q204 0 311-194t108-556zm-741 0q0-326 81-492T532 74q157 0 238 165t82 494q0 325-80 490t-237 166q-161 0-241-167t-81-489zm113 994q0 43 19 62t45 19q23 0 42-19t19-62q0-44-19-64t-42-20q-25 0-44 20t-20 64zm305 0q0 43 19 62t43 19q25 0 44-19t19-62q0-44-19-64t-44-20q-23 0-42 20t-20 64z"/><glyph unicode="×" glyph-name="multiply" horiz-adv-x="819" d="M350 723L61 1012l58 57 289-289 292 293 60-57-293-293 287-289-58-57-288 289-291-293-58 59 291 291z"/><glyph unicode="Ø" glyph-name="Oslash" horiz-adv-x="1065" d="M954 733q0-363-108-558T532-20Q374-20 272 94L178-94 96-57l119 237Q111 374 111 735q0 378 106 563t318 185q164 0 270-131l96 190 82-41-123-239q94-190 94-529zm-741 0q0-282 59-440l484 958q-79 138-221 138-161 0-241-167t-81-489zM532 74q157 0 238 165t82 494q0 251-49 412L322 190Q399 74 532 74z"/><glyph unicode="Ù" glyph-name="Ugrave" horiz-adv-x="1012" d="M864 1462V475q0-495-354-495-177 0-270 128t-93 367v987h99V463q0-190 68-289T510 74q126 0 191 99t65 294v995h98zm-319 117q-65 53-148 148t-120 163v17h125q27-63 82-152t109-155v-21h-48z"/><glyph unicode="Ú" glyph-name="Uacute" horiz-adv-x="1012" d="M864 1462V475q0-495-354-495-177 0-270 128t-93 367v987h99V463q0-190 68-289T510 74q126 0 191 99t65 294v995h98zm-441 117v21q127 166 191 307h125v-17q-39-70-118-161t-151-150h-47z"/><glyph unicode="Û" glyph-name="Ucircumflex" horiz-adv-x="1012" d="M864 1462V475q0-495-354-495-177 0-270 128t-93 367v987h99V463q0-190 68-289T510 74q126 0 191 99t65 294v995h98zm-169 117q-32 31-91 101l-97 112q-50-56-100-114t-93-99h-43v19q121 168 186 309h95q24-55 78-144t112-165v-19h-47z"/><glyph unicode="Ü" glyph-name="Udieresis" horiz-adv-x="1012" d="M864 1462V475q0-495-354-495-177 0-270 128t-93 367v987h99V463q0-190 68-289T510 74q126 0 191 99t65 294v995h98zm-572 265q0 43 19 62t45 19q23 0 42-19t19-62q0-44-19-64t-42-20q-25 0-44 20t-20 64zm305 0q0 43 19 62t43 19q25 0 44-19t19-62q0-44-19-64t-44-20q-23 0-42 20t-20 64z"/><glyph unicode="Ý" glyph-name="Yacute" horiz-adv-x="686" d="M344 707l238 755h104L391 571V0h-98v571L0 1462h104l240-755zm-73 872v21q127 166 191 307h125v-17q-39-70-118-161t-151-150h-47z"/><glyph unicode="Þ" glyph-name="Thorn" horiz-adv-x="840" d="M772 784q0-450-407-450H258V0h-98v1462h98v-270h102q214 0 313-99t99-309zM258 428h98q170 0 243 77t73 267q0 173-71 248t-234 76H258V428z"/><glyph unicode="ß" glyph-name="germandbls" horiz-adv-x="823" d="M659 1290q0-120-91-238-47-61-69-105t-22-85q0-56 22-100t89-129l59-70q53-61 79-125t26-141q0-150-70-233T492-20q-48 0-96 13t-79 40v100q36-25 77-44t98-19q78 0 120 58t43 163q0 62-23 117T526 563q-77 94-109 163t-32 136q0 51 20 96t69 106q46 58 67 112t22 118q0 183-147 183-85 0-130-67t-46-196V0h-95v1204q0 172 73 267t204 96q117 0 177-71t60-206z"/><glyph unicode="à" glyph-name="agrave" horiz-adv-x="784" d="M565 0l-12 152h-4Q471-20 313-20q-106 0-170 84T78 291q0 155 93 245t261 99l117 6v90q0 152-38 221t-126 70q-93 0-190-61l-41 75q113 70 237 70 134 0 193-84t59-283V0h-78zM334 61q102 0 158 100t57 285v113l-113-6q-131-7-194-72t-64-192q0-118 42-173t114-55zm97 1180q-65 53-148 148t-120 163v17h125q27-63 82-152t109-155v-21h-48z"/><glyph unicode="á" glyph-name="aacute" horiz-adv-x="784" d="M565 0l-12 152h-4Q471-20 313-20q-106 0-170 84T78 291q0 155 93 245t261 99l117 6v90q0 152-38 221t-126 70q-93 0-190-61l-41 75q113 70 237 70 134 0 193-84t59-283V0h-78zM334 61q102 0 158 100t57 285v113l-113-6q-131-7-194-72t-64-192q0-118 42-173t114-55zm-44 1180v21q127 166 191 307h125v-17q-39-70-118-161t-151-150h-47z"/><glyph unicode="â" glyph-name="acircumflex" horiz-adv-x="784" d="M565 0l-12 152h-4Q471-20 313-20q-106 0-170 84T78 291q0 155 93 245t261 99l117 6v90q0 152-38 221t-126 70q-93 0-190-61l-41 75q113 70 237 70 134 0 193-84t59-283V0h-78zM334 61q102 0 158 100t57 285v113l-113-6q-131-7-194-72t-64-192q0-118 42-173t114-55zm240 1182q-32 31-91 101l-97 112q-50-56-100-114t-93-99h-43v19q121 168 186 309h95q24-55 78-144t112-165v-19h-47z"/><glyph unicode="ã" glyph-name="atilde" horiz-adv-x="784" d="M565 0l-12 152h-4Q471-20 313-20q-106 0-170 84T78 291q0 155 93 245t261 99l117 6v90q0 152-38 221t-126 70q-93 0-190-61l-41 75q113 70 237 70 134 0 193-84t59-283V0h-78zM334 61q102 0 158 100t57 285v113l-113-6q-131-7-194-72t-64-192q0-118 42-173t114-55zm183 1182q-35 0-69 20t-65 43-58 44-51 20q-32 0-53-36t-31-93h-74q12 97 53 154t113 57q35 0 68-20t63-43 58-44 53-20q35 0 52 36t27 93h74q-9-101-51-156t-109-55z"/><glyph unicode="ä" glyph-name="adieresis" horiz-adv-x="784" d="M565 0l-12 152h-4Q471-20 313-20q-106 0-170 84T78 291q0 155 93 245t261 99l117 6v90q0 152-38 221t-126 70q-93 0-190-61l-41 75q113 70 237 70 134 0 193-84t59-283V0h-78zM334 61q102 0 158 100t57 285v113l-113-6q-131-7-194-72t-64-192q0-118 42-173t114-55zM165 1389q0 43 19 62t45 19q23 0 42-19t19-62q0-44-19-64t-42-20q-25 0-44 20t-20 64zm305 0q0 43 19 62t43 19q25 0 44-19t19-62q0-44-19-64t-44-20q-23 0-42 20t-20 64z"/><glyph unicode="å" glyph-name="aring" horiz-adv-x="784" d="M565 0l-12 152h-4Q471-20 313-20q-106 0-170 84T78 291q0 155 93 245t261 99l117 6v90q0 152-38 221t-126 70q-93 0-190-61l-41 75q113 70 237 70 134 0 193-84t59-283V0h-78zM334 61q102 0 158 100t57 285v113l-113-6q-131-7-194-72t-64-192q0-118 42-173t114-55zm249 1381q0-89-54-140t-145-51q-93 0-146 50t-53 137q0 85 53 135t146 51q87 0 143-49t56-133zm-78-4q0 51-31 83t-90 33q-54 0-87-32t-34-84q0-53 30-85t91-32q54 0 87 32t34 85z"/><glyph unicode="æ" glyph-name="ae" horiz-adv-x="1260" d="M334 61q102 0 158 100t57 285v113l-113-6q-132-7-195-69t-63-195q0-118 42-173t114-55zm532 957q-194 0-215-389h418v12q0 172-55 274t-148 103zm-481 4q-93 0-190-61l-41 75q47 29 102 49t133 21q178 0 229-172 84 172 250 172 137 0 216-127t79-348v-88H649q9-477 258-477 50 0 109 17t112 50V45q-100-65-223-65-105 0-185 63T600 221Q554 92 483 36T313-20q-106 0-170 84T78 291q0 155 93 245t261 99l117 6v90q0 146-39 218t-125 73z"/><glyph unicode="ç" glyph-name="ccedilla" horiz-adv-x="635" d="M424-20q-163 0-245 141T96 537q0 278 83 423t247 146q101 0 168-37l-37-84q-67 31-123 31-239 0-239-477 0-473 239-473 71 0 154 32V18q-33-18-81-28t-83-10zm115-271q0-100-62-150t-172-51q-62 0-86 11v78q31-11 78-11 78 0 115 33t37 88q0 60-44 90t-122 43L355 0h75l-51-115q160-39 160-176z"/><glyph unicode="è" glyph-name="egrave" horiz-adv-x="803" d="M453-20q-172 0-264 146T96 535q0 278 82 424t238 147q135 0 213-128t78-347v-88H193q2-237 67-355T457 70q102 0 215 67V45Q568-20 453-20zm-43 1040q-196 0-215-391h417q0 179-54 285t-148 106zm55 221q-65 53-148 148t-120 163v17h125q27-63 82-152t109-155v-21h-48z"/><glyph unicode="é" glyph-name="eacute" horiz-adv-x="803" d="M453-20q-172 0-264 146T96 535q0 278 82 424t238 147q135 0 213-128t78-347v-88H193q2-237 67-355T457 70q102 0 215 67V45Q568-20 453-20zm-43 1040q-196 0-215-391h417q0 179-54 285t-148 106zm189 221v21q127 166 191 307h125v-17q-39-70-118-161t-151-150h-47z"/><glyph unicode="ê" glyph-name="ecircumflex" horiz-adv-x="803" d="M453-20q-172 0-264 146T96 535q0 278 82 424t238 147q135 0 213-128t78-347v-88H193q2-237 67-355T457 70q102 0 215 67V45Q568-20 453-20zm-43 1040q-196 0-215-391h417q0 179-54 285t-148 106zm191 221q-32 31-91 101l-97 112q-50-56-100-114t-93-99h-43v19q121 168 186 309h95q24-55 78-144t112-165v-19h-47z"/><glyph unicode="ë" glyph-name="edieresis" horiz-adv-x="803" d="M453-20q-172 0-264 146T96 535q0 278 82 424t238 147q135 0 213-128t78-347v-88H193q2-237 67-355T457 70q102 0 215 67V45Q568-20 453-20zm-43 1040q-196 0-215-391h417q0 179-54 285t-148 106zm-215 369q0 43 19 62t45 19q23 0 42-19t19-62q0-44-19-64t-42-20q-25 0-44 20t-20 64zm305 0q0 43 19 62t43 19q25 0 44-19t19-62q0-44-19-64t-44-20q-23 0-42 20t-20 64z"/><glyph unicode="ì" glyph-name="igrave" horiz-adv-x="385" d="M240 0h-95v1085h95V0zm-4 1241q-65 53-148 148t-120 163v17H93q27-63 82-152t109-155v-21h-48z"/><glyph unicode="í" glyph-name="iacute" horiz-adv-x="385" d="M240 0h-95v1085h95V0zM113 1241v21q127 166 191 307h125v-17q-39-70-118-161t-151-150h-47z"/><glyph unicode="î" glyph-name="icircumflex" horiz-adv-x="385" d="M240 0h-95v1085h95V0zm142 1241q-32 31-91 101l-97 112q-50-56-100-114t-93-99h-43v19q121 168 186 309h95q24-55 78-144t112-165v-19h-47z"/><glyph unicode="ï" glyph-name="idieresis" horiz-adv-x="385" d="M240 0h-95v1085h95V0zM-20 1389q0 43 19 62t45 19q23 0 42-19t19-62q0-44-19-64t-42-20q-25 0-44 20t-20 64zm305 0q0 43 19 62t43 19q25 0 44-19t19-62q0-44-19-64t-44-20q-23 0-42 20t-20 64z"/><glyph unicode="ð" glyph-name="eth" horiz-adv-x="856" d="M350 1399q-59 56-112 96l47 61q73-46 141-112l188 110 39-65-174-103q283-325 283-872 0-534-338-534-148 0-239 135T94 469q0 233 80 359t232 126q153 0 227-123h8q-53 295-238 510l-174-102-39 66 160 94zm316-916q0 166-64 273T432 864q-117 0-179-102t-63-301q0-181 64-288T430 66q122 0 179 103t57 314z"/><glyph unicode="ñ" glyph-name="ntilde" horiz-adv-x="870" d="M635 0v748q0 270-160 270-122 0-178-101t-57-321V0h-95v1085h80l8-151h9q34 82 98 127t137 45q126 0 189-84t63-272V0h-94zm-69 1243q-35 0-69 20t-65 43-58 44-51 20q-32 0-53-36t-31-93h-74q12 97 53 154t113 57q35 0 68-20t63-43 58-44 53-20q35 0 52 36t27 93h74q-9-101-51-156t-109-55z"/><glyph unicode="ò" glyph-name="ograve" d="M756 545q0-274-86-419T422-20q-159 0-243 145T94 545q0 561 332 561 156 0 243-147t87-414zm-563 0q0-235 56-355T424 70q233 0 233 475 0 471-233 471-122 0-176-118t-55-353zm281 696q-65 53-148 148t-120 163v17h125q27-63 82-152t109-155v-21h-48z"/><glyph unicode="ó" glyph-name="oacute" d="M756 545q0-274-86-419T422-20q-159 0-243 145T94 545q0 561 332 561 156 0 243-147t87-414zm-563 0q0-235 56-355T424 70q233 0 233 475 0 471-233 471-122 0-176-118t-55-353zm404 696v21q127 166 191 307h125v-17q-39-70-118-161t-151-150h-47z"/><glyph unicode="ô" glyph-name="ocircumflex" d="M756 545q0-274-86-419T422-20q-159 0-243 145T94 545q0 561 332 561 156 0 243-147t87-414zm-563 0q0-235 56-355T424 70q233 0 233 475 0 471-233 471-122 0-176-118t-55-353zm422 696q-32 31-91 101l-97 112q-50-56-100-114t-93-99h-43v19q121 168 186 309h95q24-55 78-144t112-165v-19h-47z"/><glyph unicode="õ" glyph-name="otilde" d="M756 545q0-274-86-419T422-20q-159 0-243 145T94 545q0 561 332 561 156 0 243-147t87-414zm-563 0q0-235 56-355T424 70q233 0 233 475 0 471-233 471-122 0-176-118t-55-353zm352 698q-35 0-69 20t-65 43-58 44-51 20q-32 0-53-36t-31-93h-74q12 97 53 154t113 57q35 0 68-20t63-43 58-44 53-20q35 0 52 36t27 93h74q-9-101-51-156t-109-55z"/><glyph unicode="ö" glyph-name="odieresis" d="M756 545q0-274-86-419T422-20q-159 0-243 145T94 545q0 561 332 561 156 0 243-147t87-414zm-563 0q0-235 56-355T424 70q233 0 233 475 0 471-233 471-122 0-176-118t-55-353zm17 844q0 43 19 62t45 19q23 0 42-19t19-62q0-44-19-64t-42-20q-25 0-44 20t-20 64zm305 0q0 43 19 62t43 19q25 0 44-19t19-62q0-44-19-64t-44-20q-23 0-42 20t-20 64z"/><glyph unicode="÷" glyph-name="divide" horiz-adv-x="819" d="M760 764v-82H59v82h701zM332 373q0 106 78 106 77 0 77-106 0-57-22-82t-55-25q-78 0-78 107zm0 698q0 107 78 107 77 0 77-107 0-57-22-81t-55-25q-78 0-78 106z"/><glyph unicode="ø" glyph-name="oslash" d="M68-102l112 227Q94 271 94 545q0 561 332 561 117 0 197-86l84 170 75-41-102-209q76-148 76-395 0-274-86-419T422-20q-113 0-184 69l-95-192-75 41zm125 647q0-202 38-314l347 699q-56 86-154 86-122 0-176-118t-55-353zm464 0q0 180-32 284L283 137q51-67 141-67 233 0 233 475z"/><glyph unicode="ù" glyph-name="ugrave" horiz-adv-x="870" d="M236 1085V377q0-161 38-235t119-74q123 0 180 99t58 322v596h94V0h-80l-12 152h-8q-35-83-97-127T393-20q-131 0-191 93t-61 304v708h95zm227 156q-65 53-148 148t-120 163v17h125q27-63 82-152t109-155v-21h-48z"/><glyph unicode="ú" glyph-name="uacute" horiz-adv-x="870" d="M236 1085V377q0-161 38-235t119-74q123 0 180 99t58 322v596h94V0h-80l-12 152h-8q-35-83-97-127T393-20q-131 0-191 93t-61 304v708h95zm371 156v21q127 166 191 307h125v-17q-39-70-118-161t-151-150h-47z"/><glyph unicode="û" glyph-name="ucircumflex" horiz-adv-x="870" d="M236 1085V377q0-161 38-235t119-74q123 0 180 99t58 322v596h94V0h-80l-12 152h-8q-35-83-97-127T393-20q-131 0-191 93t-61 304v708h95zm379 156q-32 31-91 101l-97 112q-50-56-100-114t-93-99h-43v19q121 168 186 309h95q24-55 78-144t112-165v-19h-47z"/><glyph unicode="ü" glyph-name="udieresis" horiz-adv-x="870" d="M236 1085V377q0-161 38-235t119-74q123 0 180 99t58 322v596h94V0h-80l-12 152h-8q-35-83-97-127T393-20q-131 0-191 93t-61 304v708h95zm-18 304q0 43 19 62t45 19q23 0 42-19t19-62q0-44-19-64t-42-20q-25 0-44 20t-20 64zm305 0q0 43 19 62t43 19q25 0 44-19t19-62q0-44-19-64t-44-20q-23 0-42 20t-20 64z"/><glyph unicode="ý" glyph-name="yacute" horiz-adv-x="653" d="M281 2L10 1085h96l164-677q29-122 56-275h8q19 133 53 277l160 675h96L326-205q-35-143-91-215T84-492q-38 0-86 17v86q40-14 78-14 60 0 95 51t62 166L281 2zm-28 1239v21q127 166 191 307h125v-17q-39-70-118-161t-151-150h-47z"/><glyph unicode="þ" glyph-name="thorn" horiz-adv-x="893" d="M475 1016q-119 0-177-105t-58-329v-31q0-250 59-367T479 66q110 0 164 113t55 366q0 245-52 358t-171 113zm-235-80q39 81 103 125t138 45q318 0 318-561 0-271-78-418T494-20q-84 0-152 46T240 150h-7l11-119v-523h-99v2048h95v-484l-4-136h4z"/><glyph unicode="ÿ" glyph-name="ydieresis" horiz-adv-x="653" d="M281 2L10 1085h96l164-677q29-122 56-275h8q19 133 53 277l160 675h96L326-205q-35-143-91-215T84-492q-38 0-86 17v86q40-14 78-14 60 0 95 51t62 166L281 2zM116 1389q0 43 19 62t45 19q23 0 42-19t19-62q0-44-19-64t-42-20q-25 0-44 20t-20 64zm305 0q0 43 19 62t43 19q25 0 44-19t19-62q0-44-19-64t-44-20q-23 0-42 20t-20 64z"/><glyph unicode="–" glyph-name="endash" horiz-adv-x="1024" d="M82 512v82h860v-82H82z"/><glyph unicode="—" glyph-name="emdash" horiz-adv-x="2048" d="M82 512v82h1884v-82H82z"/><glyph unicode="‘" glyph-name="quoteleft" horiz-adv-x="315" d="M43 1016q66 225 166 446h63q-75-255-100-469H57l-14 23z"/><glyph unicode="’" glyph-name="quoteright" horiz-adv-x="315" d="M272 1440q-64-218-166-447H43q75 255 100 469h115l14-22z"/><glyph unicode="‚" glyph-name="quotesinglbase" horiz-adv-x="422" d="M307 182Q241-43 141-264H78Q153-9 178 205h115l14-23z"/><glyph unicode="“" glyph-name="quotedblleft" horiz-adv-x="598" d="M326 1016q66 225 166 446h63q-75-255-100-469H340l-14 23zm-283 0q66 225 166 446h63q-75-255-100-469H57l-14 23z"/><glyph unicode="”" glyph-name="quotedblright" horiz-adv-x="598" d="M272 1440q-64-218-166-447H43q75 255 100 469h115l14-22zm283 0q-64-218-166-447h-63q75 255 100 469h115l14-22z"/><glyph unicode="„" glyph-name="quotedblbase" horiz-adv-x="659" d="M262 182Q196-43 96-264H33Q108-9 133 205h115l14-23zm283 0Q483-29 379-264h-64q35 120 63 250t38 219h114l15-23z"/><glyph unicode="•" glyph-name="bullet" horiz-adv-x="770" d="M168 748q0 120 56 180t161 61q104 0 160-60t57-181q0-118-56-180t-161-62q-103 0-160 62t-57 180z"/><glyph unicode="‹" glyph-name="guilsinglleft" horiz-adv-x="512" d="M82 541l287 366 61-35-219-344 219-344-61-37L82 514v27z"/><glyph unicode="›" glyph-name="guilsinglright" horiz-adv-x="512" d="M430 514L143 147l-61 37 219 344L82 872l61 35 287-366v-27z"/></font>
</defs>
</svg>
