<svg xmlns="http://www.w3.org/2000/svg"><defs><font id="OpenSans" horiz-adv-x="1106"><font-face font-family="Open Sans" units-per-em="2048" ascent="2189" descent="-600" alphabetic="0"/><glyph horiz-adv-x="532"/><glyph unicode="!" horiz-adv-x="524" d="M158 406l191 1056h202L293 406H158zM146-28Q97-28 71-1T44 76q0 61 34 109t110 48q44 0 70-27t27-77q0-56-34-106T146-28z"/><glyph unicode="&quot;" horiz-adv-x="785" d="M568 934l75 528h182L675 934H568zm-345 0l76 528h182L330 934H223z"/><glyph unicode="#" horiz-adv-x="1316" d="M201 0l122 432H62l12 126h285l102 343H184l12 123h299l124 438h137l-126-438h305l128 438h129l-124-438h264l-13-123h-289l-99-343h284l-12-126H895L770 0H633l131 432H459L332 0H201zm294 558h305l95 343H592l-97-343z"/><glyph unicode="$" horiz-adv-x="1128" d="M346-119l49 221q-87 5-173 24T74 174v153q77-40 170-62t178-25l98 454q-84 31-145 72t-94 100-33 145q0 116 55 193t149 121 211 53l39 174h124l-36-175q77-6 149-25t133-51l-62-134q-51 27-115 48t-134 25l-95-444q92-35 155-75t95-96 32-137q0-118-57-199T736 163t-218-59l-49-223H346zm201 364q67 8 121 36t88 77 33 116q0 40-16 71t-50 57-88 48l-88-405zm4 595l84 400q-68-7-121-34t-82-74-30-117q0-39 17-72t50-58 82-45z"/><glyph unicode="%" horiz-adv-x="1628" d="M233 0l1085 1462h149L382 0H233zm164 565q-110 0-171 75t-61 219q0 61 10 142t37 165 70 156 111 116 160 45q115 0 175-72t61-207q0-56-11-137t-39-169-72-162-111-123-159-48zm14 126q56 0 96 40t68 103 44 132 24 131 8 96q0 88-28 127t-81 39q-55 0-96-37t-68-96-44-127-24-131-8-107q0-85 27-127t82-43zm732-712q-111 0-172 74t-61 218q0 62 11 143t36 166 70 156 111 116 160 45q116 0 177-72t61-206q0-57-12-138t-39-169-72-162-112-123-158-48zm13 126q56 0 96 40t69 103 44 133 24 130 8 95q0 88-28 127t-83 40q-55 0-95-37t-67-96-43-127-24-131-7-106q0-85 26-128t80-43z"/><glyph unicode="&amp;" horiz-adv-x="1380" d="M444-20q-165 0-270 92T69 339q0 112 47 195t135 151 215 126q-43 67-74 144t-31 162q0 104 46 187t133 132 212 49q97 0 169-35t111-101 40-154q0-105-55-178T871 887 671 776l280-391q68 60 118 140t84 165h167q-35-84-79-158t-95-139-111-124L1235 0h-197L921 166Q823 85 713 33T444-20zm31 138q77 0 140 21t118 57 108 80L536 708q-80-40-149-87T276 509t-42-159q0-71 31-123t85-81 125-28zm129 762q50 25 103 53t100 65 75 81 29 104q0 74-44 120t-124 46q-69 0-119-28t-77-79-27-125q0-63 20-120t64-117z"/><glyph unicode="'" horiz-adv-x="440" d="M223 934l76 528h182L330 934H223z"/><glyph unicode="(" horiz-adv-x="583" d="M226-324q-46 83-79 177T97 52 80 269q0 183 34 347t99 311 158 280 213 255h155q-110-120-201-255T379 923 276 611t-37-340q0-117 13-221t40-197 65-177H226z"/><glyph unicode=")" horiz-adv-x="583" d="M-155-324Q-44-204 47-69t158 284 103 313 36 340q0 117-13 220t-39 197-64 177h131q46-83 78-177t49-199 17-218q0-183-33-347t-99-310T213-69-1-324h-154z"/><glyph unicode="*" horiz-adv-x="1124" d="M767 623l-116 398-258-332-115 116 307 279-369 119 54 148 368-187 45 398 164-33-118-384 418 24-8-156-391 39 178-379-159-50z"/><glyph unicode="+" horiz-adv-x="1171" d="M693 790h412V654H693V230H556v424H144v136h412v426h137V790z"/><glyph unicode="," horiz-adv-x="508" d="M-88-264q38 83 75 171T57 81t59 157h180l8-23q-33-73-76-156t-92-166-97-157H-88z"/><glyph unicode="-" horiz-adv-x="641" d="M56 472l34 154h482l-33-154H56z"/><glyph unicode="." horiz-adv-x="514" d="M143-28Q96-28 70-2T44 73q0 63 35 111t112 49q42 0 68-26t26-76q0-59-35-109T143-28z"/><glyph unicode="/" horiz-adv-x="718" d="M-93 0l815 1462h170L79 0H-93z"/><glyph unicode="0" horiz-adv-x="1128" d="M483-20q-177 0-270 127t-94 363q0 102 14 216t44 228 79 216 115 183 156 126 199 46q94 0 163-31t114-90 68-146 22-198q0-123-15-247t-48-241-81-216-117-176T677 23 483-20zm19 142q70 0 128 38t105 106 82 156 58 189 35 206 12 206q0 155-50 237t-155 82q-68 0-126-38t-107-104-84-153-62-183-38-198-13-195q0-169 52-259t163-90z"/><glyph unicode="1" horiz-adv-x="1128" d="M420 0l199 932q14 63 28 127t29 120 26 94q-30-31-62-55t-73-51l-191-121-78 125 457 291h146L588 0H420z"/><glyph unicode="2" horiz-adv-x="1128" d="M8 0l30 142 473 427q98 89 171 159t123 132 73 127 25 140q0 95-58 154t-164 59q-60 0-114-16t-104-45-101-66l-79 114q87 68 188 112t228 44q121 0 205-42t128-116 44-172q0-120-47-220T881 725 617 475L256 159v-7h678L905 0H8z"/><glyph unicode="3" horiz-adv-x="1128" d="M430-20Q311-20 218 1T45 60v161q71-40 175-70t212-31q85 0 151 21t111 61 69 96 24 125q0 86-36 144t-103 89-165 30H349l28 138h137q77 0 147 21t126 61 86 100 32 135q0 96-60 148t-156 53q-96 0-177-33t-162-89l-78 118q86 62 190 103t241 42q120 0 203-40t126-113 43-169q0-105-46-189T899 832t-202-77v-9q117-21 191-102t75-214q0-88-31-169t-97-144T669 17 430-20z"/><glyph unicode="4" horiz-adv-x="1128" d="M599 0l74 339H14l29 150 837 974h191L867 487h229l-32-148H833L760 0H599zM215 487h489l81 380q17 76 37 155t40 151 33 119h-7q-27-41-70-99t-73-92L215 487z"/><glyph unicode="5" horiz-adv-x="1128" d="M411-20q-65 0-125 9T173 16 76 60v161q72-45 158-73t178-28q106 0 183 28t128 79 74 117 24 143q0 128-75 200t-206 73q-64 0-118-10t-123-28l-71 55 199 685h671l-32-152H539L410 870q38 9 83 16t105 7q121 0 209-47t138-133 49-205q0-96-31-189t-99-170T685 26 411-20z"/><glyph unicode="6" horiz-adv-x="1128" d="M514-20q-117 0-203 50T177 179t-47 249q0 107 19 225t58 237 98 222 141 184q59 60 132 102t161 63 190 22q53 0 102-6t86-17l-34-144q-34 11-75 18t-98 7q-132 0-244-61t-198-193-136-347h7q39 52 92 92t118 63 140 23q152 0 242-96t91-271q0-105-31-206t-95-184T737 29 514-20zm16 140q78 0 139 34t102 94 64 134 22 154q0 119-55 182t-168 64q-80 0-145-35t-109-85-62-96q-8-21-13-46t-8-51-2-54q0-56 12-109t40-95 73-66 110-25z"/><glyph unicode="7" horiz-adv-x="1128" d="M173 0l773 1315H224l30 147h897l-25-131L353 0H173z"/><glyph unicode="8" horiz-adv-x="1128" d="M502-20q-138 0-229 49T137 161 92 344q0 108 48 190t137 144 211 106q-53 38-93 82t-64 102-23 133q0 119 57 205t155 132 219 47q131 0 212-45t120-119 38-157q0-108-48-183T933 853t-173-91q72-42 125-93t82-117 30-158q0-112-54-206T779 37 502-20zm16 138q104 0 172 38t103 101 35 134q0 69-24 123t-74 100-122 85q-97-30-174-72T311 519t-46-166q0-111 71-173t182-62zm125 720q96 36 162 78t101 99 35 133q0 91-58 143t-157 53q-75 0-132-29t-90-84-32-130q0-94 47-155t124-108z"/><glyph unicode="9" horiz-adv-x="1128" d="M338-20q-62 0-126 9T96 14v154q54-18 115-31t131-13q101 0 183 36t148 108 113 183 81 261h-9q-34-49-83-86t-111-59-132-22q-112 0-190 44T222 719t-41 208q0 90 23 172t66 153 106 121 141 81 172 29q121 0 206-51t129-152 45-247q0-108-19-228t-55-239-89-221-118-175q-46-51-98-87T580 24 463-9 338-20zm227 700q71 0 132 25t107 73 74 113q14 33 20 74t7 91q0 83-25 147t-75 102-125 37q-79 0-141-32t-105-89-65-129-23-157q0-122 56-188t163-67z"/><glyph unicode=":" horiz-adv-x="514" d="M310 862q-46 0-72 26t-27 72q0 44 15 80t48 59 83 23q43 0 69-25t26-76q0-61-35-110t-107-49zM143-28Q96-28 70-2T44 73q0 63 35 111t112 49q42 0 68-26t26-76q0-59-35-109T143-28z"/><glyph unicode=";" horiz-adv-x="514" d="M-99-264q37 83 74 171T45 81t59 157h182l7-23q-33-73-76-156t-92-166-97-157H-99zM310 862q-47 0-73 26t-26 72q0 44 15 80t48 59 83 23q43 0 69-25t26-76q0-61-35-110t-107-49z"/><glyph unicode="&lt;" horiz-adv-x="1171" d="M1106 243L144 669v95l962 476v-148L324 723l782-333V243z"/><glyph unicode="=" horiz-adv-x="1171" d="M156 858v135h938V858H156zm0-409v135h938V449H156z"/><glyph unicode="&gt;" horiz-adv-x="1171" d="M144 390l783 331-783 371v148l962-476v-95L144 243v147z"/><glyph unicode="?" horiz-adv-x="875" d="M259 406q15 91 43 157t77 121 124 114q66 50 123 98t93 107 36 139q0 92-52 144t-150 52q-76 0-150-24t-142-58l-60 128q83 44 180 71t190 28q161 0 256-81t96-240q0-94-34-169T788 852 628 715q-78-57-123-99t-70-89-41-121H259zm-1-434q-46 0-72 26t-27 75q0 63 35 111t111 49q43 0 69-26t26-76q0-59-35-109T258-28z"/><glyph unicode="@" horiz-adv-x="1734" d="M786-186q-152 0-276 46T296-6 158 211t-49 292q0 148 42 288t123 262 197 212 266 142 328 51q212 0 348-83t201-221 66-304q0-109-21-205t-59-174-93-136-120-87-141-31q-112 0-157 54t-53 131h-8q-45-79-117-132t-174-53q-112 0-179 73t-68 211q0 99 26 184t75 155 113 117 142 75 160 26q95 0 160-18t118-40l-94-358q-18-65-27-107t-9-79q0-64 28-91t73-27q52 0 96 28t79 77 60 112 38 136 13 146q0 138-49 250t-160 179-292 67q-144 0-266-41t-218-117-165-178-103-226-36-261q0-177 64-304T505 10t301-68q110 0 219 24t201 60V-98q-104-43-217-65t-223-23zm-16 524q102 0 170 88t108 231l69 258q-22 9-55 17t-75 8q-73 0-137-32t-112-91-75-135-28-169q0-91 35-133t100-42z"/><glyph unicode="A" horiz-adv-x="1148" d="M-115 0l801 1462h177L1048 0H881l-58 466H318L70 0h-185zm514 617h407l-39 341q-7 74-15 162t-10 159h-6q-32-76-72-159t-86-169L399 617z"/><glyph unicode="B" horiz-adv-x="1229" d="M86 0l309 1462h378q136 0 232-35t148-109 51-187q0-100-41-176t-115-124-175-68v-9q102-28 169-102t67-197q0-150-73-251T836 51 545 0H86zm199 145h268q118 0 202 35t131 105 46 170q0 105-68 172t-223 67H401L285 145zm146 690h250q97 0 175 29t126 91 47 156q0 100-65 153t-212 53H534L431 835z"/><glyph unicode="C" horiz-adv-x="1204" d="M668-20q-163 0-278 68T212 241t-62 299q0 136 32 271t95 256 159 214 221 148 284 54q104 0 190-20t163-61l-67-141q-58 31-127 51t-159 21q-123 0-221-44t-171-122-122-179-73-214-25-230q0-192 97-303t271-112q87 0 168 17t159 43V41Q946 13 864-3T668-20z"/><glyph unicode="D" horiz-adv-x="1368" d="M86 0l309 1462h341q266 0 416-143t151-441q0-150-36-283t-107-242-175-188T744 43 439 0H86zm199 146h164q132 0 239 36t188 104 137 158 84 202 28 234q0 230-111 333t-300 104H534L285 146z"/><glyph unicode="E" horiz-adv-x="1058" d="M86 0l309 1462h741l-32-150H532L431 839h536l-29-148H401L285 150h573L826 0H86z"/><glyph unicode="F" horiz-adv-x="979" d="M86 0l309 1462h741l-30-150H532L419 774h537l-32-150H386L254 0H86z"/><glyph unicode="G" horiz-adv-x="1392" d="M700-20q-259 0-404 145T150 532q0 162 37 305t106 262 167 205 218 132 260 47q131 0 231-23t191-63l-65-148q-77 35-166 59t-193 25q-129 0-239-57t-193-164-129-250-46-319q0-120 42-213t129-147 217-54q81 0 150 12t118 29l97 446H782l32 148h469L1129 57q-93-34-197-55T700-20z"/><glyph unicode="H" horiz-adv-x="1393" d="M88 0l309 1462h169L433 839h668l132 623h166L1090 0H923l145 689H401L256 0H88z"/><glyph unicode="I" horiz-adv-x="555" d="M86 0l311 1462h166L252 0H86z"/><glyph unicode="J" horiz-adv-x="550" d="M-166-385q-48 0-90 7t-66 17l5 146q32-9 69-14t79-6q64 0 115 26t89 81T90 14l308 1448h169L256-5q-29-135-87-219T27-346t-193-39z"/><glyph unicode="K" horiz-adv-x="1147" d="M86 0l309 1462h168L410 742l126 132 587 588h205L685 822 1038 0H853L557 720 377 585 254 0H86z"/><glyph unicode="L" horiz-adv-x="982" d="M86 0l309 1462h168L285 152h573L826 0H86z"/><glyph unicode="M" horiz-adv-x="1714" d="M84 0l309 1462h239L784 249h8l668 1213h259L1415 0h-170l192 908q18 82 35 154t31 131 27 102h-4L806 0H673L507 1294h-8q-4-41-13-104t-22-135-27-138L244 0H84z"/><glyph unicode="N" horiz-adv-x="1441" d="M84 0l309 1462h178l463-1224h5q7 50 18 116t25 139 28 139l178 830h160L1139 0H961L495 1227h-5q-5-34-12-81t-17-102-21-112-23-112L244 0H84z"/><glyph unicode="O" horiz-adv-x="1476" d="M689-20q-176 0-296 70T211 248t-61 301q0 125 22 242t66 221 106 191 146 150 181 97 216 35q246 0 384-152t139-424q0-121-20-236t-60-220-100-190-140-150-180-98-221-35zm6 149q86 0 159 30t132 84 105 127 77 160 47 185 16 198q0 200-94 311t-262 111q-86 0-160-28t-135-81-107-125-79-159-48-186-17-203q0-132 43-227t125-146 198-51z"/><glyph unicode="P" horiz-adv-x="1159" d="M86 0l309 1462h329q155 0 251-47t140-132 44-200q0-121-40-215T998 709t-198-98-275-34H376L254 0H86zm321 720h144q136 0 233 39t150 118 53 201q0 126-71 182t-216 57H534L407 720z"/><glyph unicode="Q" horiz-adv-x="1476" d="M940-348L719-18q-9-1-16-1t-16-1q-175 1-294 70T212 247t-62 302q0 125 22 242t66 221 106 191 146 150 181 97 216 35q246 0 384-152t139-424q0-123-21-240t-64-223-105-193-147-149-187-94l271-358H940zM695 129q88 0 161 30t133 84 105 127 75 160 46 185 16 198q0 200-94 311t-262 111q-86 0-160-28t-135-81-107-125-79-159-48-186-17-203q0-132 43-227t125-146 198-51z"/><glyph unicode="R" horiz-adv-x="1171" d="M86 0l309 1462h320q224 0 336-92t112-274q0-108-37-196t-118-153-214-100L1034 0H850L638 610H383L254 0H86zm327 754h177q101 0 176 23t124 67 74 104 25 136q0 127-72 179t-219 52H534L413 754z"/><glyph unicode="S" horiz-adv-x="1032" d="M382-20Q273-20 191-4T39 45v167q63-32 148-58t197-27q69 0 132 16t112 50 78 87 29 126q0 59-25 104t-81 88-144 92q-76 45-136 94t-96 116-35 162q0 102 38 180t104 132 153 81 184 28q115 0 200-23t164-62l-65-144q-56 30-134 54t-165 25q-63 0-117-16t-96-50-64-81-23-113q0-65 24-108t72-78 118-76q89-52 157-103t106-119 38-170q0-110-38-192T764 90 596 8 382-20z"/><glyph unicode="T" horiz-adv-x="1022" d="M315 0l278 1312H185l32 150h986l-30-150H765L486 0H315z"/><glyph unicode="U" horiz-adv-x="1389" d="M614-20q-150 0-250 47T214 164t-50 220q0 35 6 84t17 105l190 889h169L355 564q-11-46-17-96t-6-82q0-121 74-189t218-68q123 0 205 43t132 129 78 213l203 948h168l-204-962q-34-163-106-279T909 42 614-20z"/><glyph unicode="V" horiz-adv-x="1126" d="M352 0L191 1462h167l98-951q6-54 10-109t7-109 1-100h4q20 47 43 97t51 105 60 117l492 950h187L531 0H352z"/><glyph unicode="W" horiz-adv-x="1746" d="M286 0l-63 1462h166l32-915q3-82 1-168t-8-167h6q29 78 67 175t82 187l416 888h171l45-885q6-92 8-192t1-174h6q18 51 38 107t42 116 47 118l397 910h179L1256 0h-172l-48 969q-3 44-5 92t-2 95-1 88h-6q-19-60-45-121t-69-155L459 0H286z"/><glyph unicode="X" horiz-adv-x="1070" d="M-108 0l600 773-262 689h171l204-570 447 570h185L681 765 961 0H783L566 642 78 0h-186z"/><glyph unicode="Y" horiz-adv-x="1037" d="M312 0l119 550-242 912h169l183-745 494 745h191L596 545 483 0H312z"/><glyph unicode="Z" horiz-adv-x="1089" d="M-20 0L6 131l932 1179H279l32 152h862l-24-133L218 152h701L888 0H-20z"/><glyph unicode="[" horiz-adv-x="597" d="M-18-324l380 1786h396l-31-137H490L169-186h239l-31-138H-18z"/><glyph unicode="\" horiz-adv-x="718" d="M441 0L219 1462h151L592 0H441z"/><glyph unicode="]" horiz-adv-x="597" d="M-147-324l28 138h238l320 1511H201l30 137h396L246-324h-393z"/><glyph unicode="^" horiz-adv-x="1166" d="M81 549l456 924h96l454-924H939l-353 746-356-746H81z"/><glyph unicode="_" horiz-adv-x="804" d="M-186-319l28 131h807l-28-131h-807z"/><glyph unicode="`" horiz-adv-x="557" d="M521 1241q-38 39-82 95t-81 113-59 99v21h178q16-50 40-103t52-104 55-96v-25H521z"/><glyph unicode="a" horiz-adv-x="1158" d="M396-20q-89 0-156 43T136 150 99 355q0 121 25 233t73 208 113 168 150 112 179 40q74 0 128-28t91-73 58-97h10l64 178h127L885 0H752l30 212h-8q-45-60-103-113T544 13 396-20zm54 138q77 0 152 56t136 153 93 218q16 59 21 108t6 93q0 103-54 166t-149 64q-67 0-126-33t-106-93-82-138-52-171-19-189q0-115 47-174t133-60z"/><glyph unicode="b" horiz-adv-x="1183" d="M544-20q-77 0-133 27t-94 73-58 97h-9L184 0H58l330 1556h166l-80-376q-14-67-30-132t-28-111-17-54h8q48 61 103 113t122 85 146 33q92 0 160-42t105-126 38-206q0-118-23-229t-69-208-110-168T730 21 544-20zm-12 138q70 0 128 35t105 95 79 141 50 170 17 183q0 116-46 175t-139 59q-48 0-97-23t-96-67-85-101-69-128-47-148-17-159q0-105 53-168t164-64z"/><glyph unicode="c" horiz-adv-x="928" d="M506-20q-122 0-213 46T151 164t-51 226q0 117 25 225t75 199 119 159 159 105 196 38q71 0 141-13t128-39l-47-140q-42 20-99 36t-122 16q-91 0-165-46T382 803t-83-187-29-224q0-85 30-146t86-95 136-33q73 0 137 20t127 48V44Q731 16 661-2T506-20z"/><glyph unicode="d" horiz-adv-x="1183" d="M397-20q-90 0-157 42T136 147 99 355q0 118 24 229t69 208 112 168 150 113 186 41q77 0 132-28t91-72 58-96h10q6 46 12 89t14 89 20 93l77 367h165L889 0H752l27 212h-7q-48-62-104-115T544 12 397-20zm56 138q47 0 95 23t95 65 86 101 70 128 48 148 17 161q0 106-51 169t-163 63q-69 0-127-35t-106-96-79-140-50-170-18-183q0-115 46-174t137-60z"/><glyph unicode="e" horiz-adv-x="1020" d="M497-20q-123 0-212 49T149 171t-48 222q0 133 38 261t111 233 173 167 228 62q151 0 229-67t78-186q0-83-38-153T802 589t-201-80-288-29h-38q-2-18-3-40t-2-41q0-132 64-206t192-75q79 0 149 22t148 60V57Q749 23 674 2T497-20zM299 616h24q128 0 235 22t172 74 65 138q0 56-38 92t-116 36q-69 0-136-42T384 812t-85-196z"/><glyph unicode="f" horiz-adv-x="639" d="M-103-492q-39 0-72 6t-58 15v141q27-10 55-16t60-7q74 0 115 59t66 171L293 969H102l14 71 203 61 24 106q23 102 55 171t77 111 102 60 135 18q50 0 102-11t86-27l-43-127q-30 11-64 19t-74 9q-85 0-133-47t-77-177l-25-110h236l-24-127H459L225-142q-24-110-65-188T55-450t-158-42z"/><glyph unicode="g" horiz-adv-x="1063" d="M317-492q-193 0-302 73T-94-212q0 107 72 185t233 132q-38 20-57 50t-20 71q0 68 50 117t140 92q-64 33-103 97t-39 147q1 99 34 181t93 140q56 54 131 84t165 30q38 0 76-5t75-15h370l-24-101-217-22q23-31 34-73t11-93q0-98-33-177t-94-134q-55-49-130-75t-169-28q-27 0-48 2t-36 6q-73-26-108-61t-35-74q0-28 17-45 16-15 44-22t71-13l118-13q120-14 196-47t112-91 36-141q0-106-49-183T681-418q-70-36-161-55t-203-19zm7 121q91 0 162 16t122 46q54 33 82 80t29 108q0 27-8 49t-27 39q-28 27-80 44T472 35L312 51Q228 33 172-2T86-87 57-197q0-82 68-128t199-46zm187 872q86 0 145 43t92 116 32 159q0 43-11 76t-35 56q-22 23-55 35t-77 12q-63 0-113-24t-84-68-53-100-19-122q0-42 11-75t32-56q46-52 135-52z"/><glyph unicode="h" horiz-adv-x="1180" d="M58 0l330 1556h166l-88-404q-8-43-19-88t-24-91-24-90h10q39 53 92 106t125 89 162 36q86 0 147-31t95-92 34-155q0-39-6-79t-15-85L899 0H732l146 690q10 45 14 77t4 56q0 73-36 113t-117 40q-75 0-157-50T434 767 327 483L225 0H58z"/><glyph unicode="i" horiz-adv-x="517" d="M58 0l233 1096h167L225 0H58zm373 1288q-40 0-66 23t-27 67q0 33 13 62t39 46 63 18q44 0 66-23t22-64q0-59-34-94t-76-35z"/><glyph unicode="j" horiz-adv-x="517" d="M-136-492q-37 0-70 6t-56 15v141q25-10 55-16t64-7q43 0 76 22t56 68 39 112l263 1247h165L188-167q-21-100-59-173T26-452t-162-40zm565 1780q-39 0-65 23t-26 67q0 33 13 62t39 46 63 18q44 0 65-23t22-64q0-59-34-94t-77-35z"/><glyph unicode="k" horiz-adv-x="1001" d="M56 0l330 1556h168L418 921q-22-104-41-178t-33-120-21-72h4l540 545h197L590 625 885 0H701L464 521 305 392 225 0H56z"/><glyph unicode="l" horiz-adv-x="517" d="M56 0l332 1556h166L223 0H56z"/><glyph unicode="m" horiz-adv-x="1785" d="M58 0l233 1096h136l-26-212h10q36 52 87 105t118 90 154 37q116 0 176-67t70-183h7q40 61 96 118t127 95 158 37q127 0 196-69t69-200q0-47-5-89t-17-86L1505 0h-168l148 690q9 45 13 78t5 63q0 67-36 106t-111 39q-53 0-110-29t-110-87-97-148-69-209L863 0H697l146 687q9 46 13 79t5 58q0 71-33 111t-108 41q-53 0-110-28t-112-88-99-153-72-224L225 0H58z"/><glyph unicode="n" horiz-adv-x="1180" d="M51 0l235 1101h147l-26-211h2q38 52 91 105t125 90 163 37q88 0 151-32t97-94 34-149q0-46-7-93t-15-84L902 0H725l148 692q9 45 14 77t6 60q0 70-38 106t-112 36q-73 0-154-50T439 764 332 483L229 0H51z"/><glyph unicode="o" horiz-adv-x="1153" d="M505-16q-126 0-217 51T149 181t-49 224q0 104 23 205t68 192 111 160 154 109 194 40q128 0 218-51t139-147 49-225q0-102-22-203t-67-191-111-160T702 24 505-16zm10 138q62 0 118 26t102 75 79 121 52 163 19 200q0 65-23 126t-74 100-136 40q-70 0-129-29t-107-82-79-125-50-158-18-181q0-131 64-203t182-73z"/><glyph unicode="p" horiz-adv-x="1183" d="M-44-490l335 1586h136l-27-213h7q47 62 103 114t124 85 148 32q90 0 157-42t104-126 38-208q0-118-23-229t-69-207-110-168T729 21 544-20q-77 0-132 27t-93 73-60 97h-9q-4-37-12-96T220-19L120-490H-44zm576 608q70 0 128 35t105 95 79 141 50 170 17 183q0 116-46 175t-139 59q-48 0-97-23t-95-66-86-101-69-128-47-148-17-160q0-105 53-168t164-64z"/><glyph unicode="q" horiz-adv-x="1183" d="M620-490l99 464q7 28 17 70t23 88 21 81h-8q-46-61-102-114T546 13 399-20q-91 0-158 42T136 148 99 355q0 117 24 228t69 208 112 170 151 114 187 41q76 0 130-28t92-73 57-97h10l66 178h125L785-490H620zM453 118q48 0 96 23t95 67 85 102 70 129 47 147 17 158q0 98-51 165t-160 67q-69 0-128-35t-106-96-80-140-50-170-18-183q0-115 45-174t138-60z"/><glyph unicode="r" horiz-adv-x="809" d="M58 0l233 1096h136l-26-212h10q42 57 90 110t109 88 142 34q30 0 61-3t58-12l-36-149q-27 6-52 9t-53 3q-76 0-141-39T473 819t-87-147-54-165L225 0H58z"/><glyph unicode="s" horiz-adv-x="883" d="M319-20Q219-20 144 0T12 50v154q53-32 134-60t168-28q85 0 141 23t85 63 29 95q0 43-18 74t-60 62-111 69q-77 43-130 87t-80 96-28 123q0 94 46 163t129 107 196 38q99 0 183-22t145-52l-54-133q-52 25-119 46t-155 21q-94 0-149-43t-56-116q0-38 16-68t58-59 112-69q69-40 124-81t88-95 33-132q0-107-51-181T543 19 319-20z"/><glyph unicode="t" horiz-adv-x="675" d="M370-20q-109 0-181 52t-73 181q0 31 4 67t13 76l129 613H93l16 77 182 70 120 232h99l-55-252h282l-26-127H430L300 354q-7-28-12-60t-6-61q0-50 26-83t87-34q38 0 72 7t74 20V15Q516 3 466-8t-96-12z"/><glyph unicode="u" horiz-adv-x="1180" d="M387-20q-83 0-145 31t-95 91-34 149q0 44 6 85t15 87l145 673h168L298 404q-8-43-12-76t-5-60q0-71 36-110t117-40q75 0 157 51t153 160 108 285l102 482h164L886 0H749l27 212h-9q-38-52-92-105T550 17 387-20z"/><glyph unicode="v" horiz-adv-x="943" d="M230 0L98 1096h168l67-631q6-53 11-120t8-126 4-89h6q22 49 51 111t60 124 53 106l338 625h178L445 0H230z"/><glyph unicode="w" horiz-adv-x="1465" d="M164 0l-48 1096h163l19-605q3-109 1-196t-7-145h7q16 42 38 97t47 112 46 101l301 636h178l40-607q2-75 4-169t0-170h7q17 50 40 111t51 131 60 141l254 563h176L1032 0H834l-37 616q-3 52-3 101t-1 101 1 113h-8q-18-49-35-92t-39-91-53-114L359 0H164z"/><glyph unicode="x" horiz-adv-x="983" d="M-75 0l477 564-238 532h168l176-414 334 414h193L577 557 831 0H661L469 436 118 0H-75z"/><glyph unicode="y" horiz-adv-x="943" d="M-58-493q-49 0-79 6t-60 15v135q27-7 60-12t70-6q82 0 141 52t115 153l77 137L98 1096h168l76-563q10-66 16-141t9-143 3-110h6q14 33 42 95t60 131 57 114l329 617h178L340-190q-54-100-110-167T104-459t-162-34z"/><glyph unicode="z" horiz-adv-x="909" d="M-31 0l23 113 698 857H207l26 126h665l-26-133-687-837h535L695 0H-31z"/><glyph unicode="{" horiz-adv-x="712" d="M440-324q-144 0-219 54t-75 169q0 32 6 65t14 70l52 229q6 32 10 58t4 51q0 71-51 106T27 514l31 138q119 0 189 44t93 152l68 325q23 106 67 169t119 92 187 28h34l-29-138q-94 0-148-33t-77-134l-71-322q-23-105-80-173t-174-88v-4q77-20 112-74t36-132q0-26-4-60t-13-66L319 15q-6-25-10-49t-5-45q0-64 43-85t119-21v-139h-26z"/><glyph unicode="|" horiz-adv-x="1125" d="M537-494v2050h137V-494H537z"/><glyph unicode="}" horiz-adv-x="712" d="M-79-324l1 139q68 0 117 14t80 50 45 103l72 322q23 104 80 171t174 87v5q-77 22-112 75t-35 130q0 27 5 60t12 66l50 225q7 26 11 50t4 43q0 64-48 86t-135 22l26 138h14q98 0 164-23t99-73 34-127q0-31-5-64t-15-70l-52-231q-6-31-11-57t-5-50q0-72 53-107t154-35l-31-139q-79 0-136-19t-94-62-51-114L318-35q-24-113-71-176t-123-88-188-25h-15z"/><glyph unicode="~" horiz-adv-x="1171" d="M595 658q-71 32-120 44t-96 13q-57 0-120-34t-115-86v149q50 53 111 80t135 27q62 0 120-13t147-52q73-31 121-44t93-13q59 0 122 34t113 86V702q-48-52-109-80t-135-29q-60 0-119 13t-148 52z"/><glyph horiz-adv-x="532"/><glyph unicode="¡" horiz-adv-x="524" d="M-19-373L251 683h112L182-373H-19zM348 856q-48 0-74 25t-26 74q0 64 35 112t110 49q44 0 69-26t26-77q0-37-15-73t-46-60-79-24z"/><glyph unicode="¢" horiz-adv-x="1128" d="M455-20l43 214q-127 32-203 132t-76 264q0 111 23 212t66 189 105 155 141 111 173 57l33 169h121l-37-169q60-4 116-16t104-33l-47-139q-43 20-99 35t-122 16q-91 0-165-46t-129-127-83-187-30-225q0-127 67-200t186-74q71 0 136 19t126 49V244q-57-29-127-46t-158-19L577-20H455z"/><glyph unicode="£" horiz-adv-x="1128" d="M-22 0L5 141q62 13 114 47t91 93 58 151l47 219H115l26 126h201l72 340q29 132 90 212t149 116 194 36q104 0 188-25t144-59l-65-132q-49 26-117 51t-154 26q-91 0-164-51t-104-197l-68-317h367l-27-126H480l-48-218q-25-127-77-188t-117-93h726L932 0H-22z"/><glyph unicode="¤" horiz-adv-x="1132" d="M956 282L824 413q-46-34-102-52t-118-19q-61 0-118 19t-104 53L252 284l-87 89 130 131q-34 46-53 101t-19 118q0 60 19 116t53 104l-132 132 89 91 130-132q48 33 104 52t118 20q62 0 117-19t103-53l132 132 90-89-132-132q32-47 52-103t20-119q0-63-19-119t-53-102l131-131-89-89zM604 469q72 0 131 34t93 91 35 129q0 72-34 130t-94 93-131 35q-70 0-128-34t-92-93-34-131q0-71 34-128t92-92 128-34z"/><glyph unicode="¥" horiz-adv-x="1128" d="M362 0l58 270H125l29 127h292l35 166H186l29 128h234l-212 771h163l184-738 494 738h183L721 691h238l-27-128H634l-34-166h298l-27-127H576L516 0H362z"/><glyph unicode="¦" horiz-adv-x="1125" d="M537 780v776h137V780H537zm0-1274v778h137v-778H537z"/><glyph unicode="§" horiz-adv-x="998" d="M355-9Q253-9 178 10T55 54v144q54-29 135-54t165-26q133 0 204 46t72 132q0 34-21 62t-65 56-118 61q-74 33-130 72t-89 94-32 131q0 79 34 137t89 98 117 68q-52 32-87 81t-35 123q0 82 46 147t132 102 207 38q95 0 176-19t144-50l-51-120q-67 27-134 44t-135 17q-54 0-106-15t-86-49-34-90q0-56 46-92t154-84q72-32 129-70t90-90 33-127q0-70-30-130t-83-107-117-82q47-31 80-75t33-115q0-95-49-167T594 32 355-9zm223 569q68 36 121 97t54 142q0 45-23 79t-76 65-136 67q-45-13-89-42t-74-74-30-103q0-50 24-86t79-70 150-75z"/><glyph unicode="¨" horiz-adv-x="1140" d="M909 1296q-35 0-58 21t-23 60q0 44 26 78t78 35q39 0 58-21t19-56q0-54-31-85t-69-32zm-366 0q-37 0-59 21t-23 60q0 44 26 78t76 35q27 0 44-9t25-27 9-41q0-54-30-85t-68-32z"/><glyph unicode="©" horiz-adv-x="1704" d="M852-20q-163 0-300 56T313 193 156 431t-56 300q0 163 56 300t157 239 239 157 300 56q157 0 293-56t240-158 161-239 58-299q0-162-56-299t-157-239-239-157-300-56zm32 294q-202 0-304 124T478 731q0 133 48 235t141 161 225 59q66 0 131-16t122-45l-56-116q-50 26-99 39t-96 14q-127 0-197-88t-70-243q0-160 63-246t201-86q50 0 107 13t110 34V324q-49-22-101-36t-123-14zM852 82q133 0 249 48t205 135 138 206 50 260q0 134-47 251t-134 207-203 140-258 51q-140 0-257-48t-204-135-134-206-48-260q0-134 47-251t133-207 204-140 259-51z"/><glyph unicode="ª" horiz-adv-x="690" d="M351 787q-50 0-91 26t-66 77-24 126q0 87 22 170t64 149 103 105 140 39q65 0 101-31t53-75h8l36 93h87L644 800h-91l16 118h-6q-40-55-89-93t-123-38zm35 103q45 0 81 23t65 62 47 86 28 94 10 89q0 61-28 97t-87 37q-49 0-89-30t-69-80-44-112-16-128q0-70 27-104t75-34z"/><glyph unicode="«" horiz-adv-x="953" d="M309 118L81 555l1 27 391 383 82-82-301-332 170-383-115-50zm383 0L476 519l1 28 371 408 89-72-289-364 158-351-114-50z"/><glyph unicode="¬" horiz-adv-x="1171" d="M1101 790V263H967v391H144v136h957z"/><glyph unicode="­" horiz-adv-x="638" d="M56 472l34 154h482l-33-154H56z"/><glyph unicode="®" horiz-adv-x="1704" d="M575 284v893h261q163 0 241-65t78-198q0-97-49-153t-114-82l237-395h-164L858 640H720V284H575zm145 474h111q83 0 130 41t48 111q0 77-44 111t-136 34H720V758zM852-20q-163 0-300 56T313 193 156 431t-56 300q0 163 56 300t157 239 239 157 300 56q157 0 293-56t240-158 161-239 58-299q0-162-56-299t-157-239-239-157-300-56zm0 102q133 0 249 48t205 135 138 206 50 260q0 134-47 251t-134 207-203 140-258 51q-140 0-257-48t-204-135-134-206-48-260q0-134 47-251t133-207 204-140 259-51z"/><glyph unicode="¯" horiz-adv-x="824" d="M207 1556l31 129h808l-32-129H207z"/><glyph unicode="°" horiz-adv-x="877" d="M438 859q-96 0-168 39t-112 109-41 163q0 93 39 163t112 110 170 40q95 0 167-39t114-110 41-164q0-92-41-162T606 898t-168-39zm2 114q98 0 147 54t49 143q0 92-50 146t-146 55q-101 0-150-54t-49-147q0-88 48-142t151-55z"/><glyph unicode="±" horiz-adv-x="1171" d="M144 0v135h963V0H144zm549 795h412V659H693V235H556v424H144v136h412v426h137V795z"/><glyph unicode="²" horiz-adv-x="714" d="M140 852l24 105 267 228q84 72 138 127t81 104 27 104q0 52-31 84t-91 32q-52 0-100-20t-99-61l-59 91q63 50 132 75t149 26q125 0 178-65t54-142q0-69-25-128t-83-121-152-141L333 969h399l-24-117H140z"/><glyph unicode="³" horiz-adv-x="714" d="M396 839q-67 0-127 14t-108 40v125q54-30 116-50t123-20q106 0 159 46t53 127q0 66-45 100t-132 34h-95l24 106h94q64 0 113 18t76 54 28 84q0 59-34 90t-100 30q-56-1-103-19t-93-49l-53 92q49 37 118 62t154 25q81 0 135-26t81-73 27-106q0-94-56-150t-152-82v-7q69-17 107-67t39-119q0-81-38-144t-116-99-195-36z"/><glyph unicode="´" horiz-adv-x="529" d="M236 1241v25q37 40 80 93t84 108 71 102h189v-20q-22-28-59-68t-83-85-92-85-86-70H236z"/><glyph unicode="µ" horiz-adv-x="1191" d="M-45-490l335 1586h166L311 405q-10-46-14-79t-5-56q0-70 37-111t116-41q73 0 154 49t153 158 110 287l106 484h163L897 0H762l25 212h-9q-39-55-92-108T564 15 406-20q-61 0-103 25t-69 78h-7q-5-31-13-80t-16-98-15-81l-65-314H-45z"/><glyph unicode="¶" horiz-adv-x="1341" d="M758-260v837q-31-9-66-13t-80-5q-94 0-169 27t-130 85-82 152-29 230q0 142 31 238t90 155 139 84 181 26h554V-260h-112v1669H870V-260H758z"/><glyph unicode="·" horiz-adv-x="514" d="M268 582q-47 0-73 26t-26 75q0 63 35 111t112 49q42 0 68-26t26-76q0-59-35-109t-107-50z"/><glyph unicode="¸" horiz-adv-x="417" d="M-80-492q-27 0-52 3t-42 8v100q20-4 41-6t37-2q55 0 93 12t58 38 20 64q0 45-38 67t-104 29L32 0h107L79-119q50-13 91-47t42-109q0-62-34-111t-99-77-159-29z"/><glyph unicode="¹" horiz-adv-x="714" d="M389 850l111 520q11 53 28 117t29 109q-19-16-43-36t-53-41l-106-67-53 90 292 184h118L526 850H389z"/><glyph unicode="º" horiz-adv-x="697" d="M425 787q-106 0-176 67t-71 200q0 81 21 157t65 137 106 96 147 36q127 0 185-74t58-187q0-80-19-157t-61-139-104-99-151-37zm9 101q53 0 92 27t67 73 41 104 14 120q0 86-36 125t-99 40q-54 0-95-26t-70-70-42-102-14-122q0-84 37-126t105-43z"/><glyph unicode="»" horiz-adv-x="953" d="M481 118l-82 82 302 330-171 385 116 50 227-439-1-29-391-379zm-375 11l-90 71 290 360-159 355 115 50 215-403v-30L106 129z"/><glyph unicode="¼" horiz-adv-x="1485" d="M174 0l1086 1462h152L326 0H174zm152 586l111 520q11 53 28 117t29 109q-19-16-43-36t-53-41l-106-67-53 90 292 184h118L463 586H326zM1092 2l42 203H766l22 101 485 579h136l-121-567h126l-22-113h-130L1220 2h-128zM927 318h232l43 195q12 53 23 105t25 101q-13-24-50-72t-65-80L927 318z"/><glyph unicode="½" horiz-adv-x="1628" d="M176 0l1086 1462h152L328 0H176zm150 586l111 520q11 53 28 117t29 109q-19-16-43-36t-53-41l-106-67-53 90 292 184h118L463 586H326zM875 2l24 105 267 228q84 72 138 127t81 104 27 104q0 52-31 84t-91 32q-52 0-100-20t-99-61l-59 91q63 50 132 75t149 26q125 0 178-65t54-142q0-69-25-128t-83-121-152-141l-217-181h399L1443 2H875z"/><glyph unicode="¾" horiz-adv-x="1600" d="M340 573q-67 0-127 14t-108 40v125q54-30 116-50t123-20q106 0 159 46t53 127q0 66-45 100t-132 34h-95l24 106h94q64 0 113 18t76 54 28 84q0 59-34 90t-100 30q-56-1-103-19t-93-49l-53 92q49 37 118 62t154 25q81 0 135-26t81-73 27-106q0-94-56-150t-152-82v-7q69-17 107-67t39-119q0-81-38-144t-116-99-195-36zM298 0l1086 1462h152L450 0H298zm908 0l42 203H880l22 101 485 579h136l-121-567h126l-22-113h-130L1334 0h-128zm-165 316h232l43 195q12 53 23 105t25 101q-13-24-50-72t-65-80l-208-249z"/><glyph unicode="¿" horiz-adv-x="875" d="M624 681q-15-91-43-157t-77-121-124-114q-66-50-123-98T164 84 128-55q0-92 52-144t150-52q76 0 150 24t142 58l60-128q-83-44-180-71t-190-28q-160 0-256 81T-40-75q0 94 34 169T95 236t160 136q79 58 124 99t69 89 41 121h135zm1 434q47 0 73-26t26-75q0-63-35-111t-111-49q-43 0-69 26t-26 76q0 59 35 109t107 50z"/><glyph unicode="À" horiz-adv-x="1148" d="M-115 0l801 1462h177L1048 0H881l-58 466H318L70 0h-185zm514 617h407l-39 341q-7 74-15 162t-10 159h-6q-32-76-72-159t-86-169L399 617zm410 991q-38 39-82 95t-81 113-59 99v21h178q16-50 40-103t52-104 55-96v-25H809z"/><glyph unicode="Á" horiz-adv-x="1148" d="M-115 0l801 1462h177L1048 0H881l-58 466H318L70 0h-185zm514 617h407l-39 341q-7 74-15 162t-10 159h-6q-32-76-72-159t-86-169L399 617zm300 991v25q37 40 80 93t84 108 71 102h189v-20q-22-28-59-68t-83-85-92-85-86-70H699z"/><glyph unicode="Â" horiz-adv-x="1148" d="M-115 0l801 1462h177L1048 0H881l-58 466H318L70 0h-185zm514 617h407l-39 341q-7 74-15 162t-10 159h-6q-32-76-72-159t-86-169L399 617zm74 991l1 25q36 33 92 87t110 112 84 103h160q20-52 50-106t62-105 58-91v-25H986q-25 24-52 55t-54 66-54 73q-61-55-124-105t-118-89H473z"/><glyph unicode="Ã" horiz-adv-x="1148" d="M-115 0l801 1462h177L1048 0H881l-58 466H318L70 0h-185zm514 617h407l-39 341q-7 74-15 162t-10 159h-6q-32-76-72-159t-86-169L399 617zm57 994q18 83 50 140t77 86 105 29q45 0 84-17t75-41 65-40 59-18q44 0 70 26t51 92h103q-22-83-55-140t-78-86-103-30q-41 0-78 17t-71 41-68 41-67 18q-43 0-69-28t-49-90H456z"/><glyph unicode="Ä" horiz-adv-x="1148" d="M-115 0l801 1462h177L1048 0H881l-58 466H318L70 0h-185zm514 617h407l-39 341q-7 74-15 162t-10 159h-6q-32-76-72-159t-86-169L399 617zm597 1046q-35 0-58 21t-23 60q0 44 26 78t78 35q39 0 58-21t19-56q0-54-31-85t-69-32zm-366 0q-37 0-59 21t-23 60q0 44 26 78t76 35q27 0 44-9t25-27 9-41q0-54-30-85t-68-32z"/><glyph unicode="Å" horiz-adv-x="1148" d="M-115 0l801 1462h177L1048 0H881l-58 466H318L70 0h-185zm514 617h407l-39 341q-7 74-15 162t-10 159h-6q-32-76-72-159t-86-169L399 617zm410 969q-96 0-157 56t-62 158q0 100 64 156t155 56q97 0 159-56t62-154q0-103-63-159t-158-57zm0 96q53 0 86 32t33 86q0 54-33 86t-86 32q-49 0-83-32t-34-86q0-54 31-86t86-32z"/><glyph unicode="Æ" horiz-adv-x="1679" d="M-117 0l932 1462h944l-30-150h-576l-103-473h540l-29-148h-538L908 150h574L1450 0H705l99 466H367L76 0h-193zm580 616h371l148 696h-84L463 616z"/><glyph unicode="Ç" horiz-adv-x="1204" d="M668-20q-163 0-278 68T212 241t-62 299q0 136 32 271t95 256 159 214 221 148 284 54q104 0 190-20t163-61l-67-141q-58 31-127 51t-159 21q-123 0-221-44t-171-122-122-179-73-214-25-230q0-192 97-303t271-112q87 0 168 17t159 43V41Q946 13 864-3T668-20zM478-492q-27 0-52 3t-42 8v100q20-4 41-6t37-2q55 0 93 12t58 38 20 64q0 45-38 67t-104 29L590 0h107l-60-119q50-13 91-47t42-109q0-62-34-111t-99-77-159-29z"/><glyph unicode="È" horiz-adv-x="1058" d="M86 0l309 1462h741l-32-150H532L431 839h536l-29-148H401L285 150h573L826 0H86zm712 1608q-38 39-82 95t-81 113-59 99v21h178q16-50 40-103t52-104 55-96v-25H798z"/><glyph unicode="É" horiz-adv-x="1058" d="M86 0l309 1462h741l-32-150H532L431 839h536l-29-148H401L285 150h573L826 0H86zm600 1608v25q37 40 80 93t84 108 71 102h189v-20q-22-28-59-68t-83-85-92-85-86-70H686z"/><glyph unicode="Ê" horiz-adv-x="1058" d="M86 0l309 1462h741l-32-150H532L431 839h536l-29-148H401L285 150h573L826 0H86zm379 1608l1 25q36 33 92 87t110 112 84 103h160q20-52 50-106t62-105 58-91v-25H978q-25 24-52 55t-54 66-54 73q-61-55-124-105t-118-89H465z"/><glyph unicode="Ë" horiz-adv-x="1058" d="M86 0l309 1462h741l-32-150H532L431 839h536l-29-148H401L285 150h573L826 0H86zm903 1663q-35 0-58 21t-23 60q0 44 26 78t78 35q39 0 58-21t19-56q0-54-31-85t-69-32zm-366 0q-37 0-59 21t-23 60q0 44 26 78t76 35q27 0 44-9t25-27 9-41q0-54-30-85t-68-32z"/><glyph unicode="Ì" horiz-adv-x="555" d="M86 0l311 1462h166L252 0H86zm419 1608q-38 39-82 95t-81 113-59 99v21h178q16-50 40-103t52-104 55-96v-25H505z"/><glyph unicode="Í" horiz-adv-x="555" d="M86 0l311 1462h166L252 0H86zm332 1608v25q37 40 80 93t84 108 71 102h189v-20q-22-28-59-68t-83-85-92-85-86-70H418z"/><glyph unicode="Î" horiz-adv-x="555" d="M86 0l311 1462h166L252 0H86zm113 1608l1 25q36 33 92 87t110 112 84 103h160q20-52 50-106t62-105 58-91v-25H712q-25 24-52 55t-54 66-54 73q-61-55-124-105t-118-89H199z"/><glyph unicode="Ï" horiz-adv-x="555" d="M86 0l311 1462h166L252 0H86zm633 1663q-35 0-58 21t-23 60q0 44 26 78t78 35q39 0 58-21t19-56q0-54-31-85t-69-32zm-366 0q-37 0-59 21t-23 60q0 44 26 78t76 35q27 0 44-9t25-27 9-41q0-54-30-85t-68-32z"/><glyph unicode="Ð" horiz-adv-x="1368" d="M86 0l135 651H70l32 147h151l142 664h341q266 0 416-143t151-441q0-150-36-283t-107-242-175-188T744 43 439 0H86zm199 146h164q132 0 239 36t188 104 137 158 84 202 28 234q0 230-111 333t-300 104H534L423 798h331l-33-147H391L285 146z"/><glyph unicode="Ñ" horiz-adv-x="1441" d="M84 0l309 1462h178l463-1224h5q7 50 18 116t25 139 28 139l178 830h160L1139 0H961L495 1227h-5q-5-34-12-81t-17-102-21-112-23-112L244 0H84zm530 1611q18 83 50 140t77 86 105 29q45 0 84-17t75-41 65-40 59-18q44 0 70 26t51 92h103q-22-83-55-140t-78-86-103-30q-41 0-78 17t-71 41-68 41-67 18q-43 0-69-28t-49-90H614z"/><glyph unicode="Ò" horiz-adv-x="1476" d="M689-20q-176 0-296 70T211 248t-61 301q0 125 22 242t66 221 106 191 146 150 181 97 216 35q246 0 384-152t139-424q0-121-20-236t-60-220-100-190-140-150-180-98-221-35zm6 149q86 0 159 30t132 84 105 127 77 160 47 185 16 198q0 200-94 311t-262 111q-86 0-160-28t-135-81-107-125-79-159-48-186-17-203q0-132 43-227t125-146 198-51zm274 1479q-38 39-82 95t-81 113-59 99v21h178q16-50 40-103t52-104 55-96v-25H969z"/><glyph unicode="Ó" horiz-adv-x="1476" d="M689-20q-176 0-296 70T211 248t-61 301q0 125 22 242t66 221 106 191 146 150 181 97 216 35q246 0 384-152t139-424q0-121-20-236t-60-220-100-190-140-150-180-98-221-35zm6 149q86 0 159 30t132 84 105 127 77 160 47 185 16 198q0 200-94 311t-262 111q-86 0-160-28t-135-81-107-125-79-159-48-186-17-203q0-132 43-227t125-146 198-51zm162 1479v25q37 40 80 93t84 108 71 102h189v-20q-22-28-59-68t-83-85-92-85-86-70H857z"/><glyph unicode="Ô" horiz-adv-x="1476" d="M689-20q-176 0-296 70T211 248t-61 301q0 125 22 242t66 221 106 191 146 150 181 97 216 35q246 0 384-152t139-424q0-121-20-236t-60-220-100-190-140-150-180-98-221-35zm6 149q86 0 159 30t132 84 105 127 77 160 47 185 16 198q0 200-94 311t-262 111q-86 0-160-28t-135-81-107-125-79-159-48-186-17-203q0-132 43-227t125-146 198-51zm-63 1479l1 25q36 33 92 87t110 112 84 103h160q20-52 50-106t62-105 58-91v-25h-104q-25 24-52 55t-54 66-54 73q-61-55-124-105t-118-89H632z"/><glyph unicode="Õ" horiz-adv-x="1476" d="M689-20q-176 0-296 70T211 248t-61 301q0 125 22 242t66 221 106 191 146 150 181 97 216 35q246 0 384-152t139-424q0-121-20-236t-60-220-100-190-140-150-180-98-221-35zm6 149q86 0 159 30t132 84 105 127 77 160 47 185 16 198q0 200-94 311t-262 111q-86 0-160-28t-135-81-107-125-79-159-48-186-17-203q0-132 43-227t125-146 198-51zm-79 1482q18 83 50 140t77 86 105 29q45 0 84-17t75-41 65-40 59-18q44 0 70 26t51 92h103q-22-83-55-140t-78-86-103-30q-41 0-78 17t-71 41-68 41-67 18q-43 0-69-28t-49-90H616z"/><glyph unicode="Ö" horiz-adv-x="1476" d="M689-20q-176 0-296 70T211 248t-61 301q0 125 22 242t66 221 106 191 146 150 181 97 216 35q246 0 384-152t139-424q0-121-20-236t-60-220-100-190-140-150-180-98-221-35zm6 149q86 0 159 30t132 84 105 127 77 160 47 185 16 198q0 200-94 311t-262 111q-86 0-160-28t-135-81-107-125-79-159-48-186-17-203q0-132 43-227t125-146 198-51zm461 1534q-35 0-58 21t-23 60q0 44 26 78t78 35q39 0 58-21t19-56q0-54-31-85t-69-32zm-366 0q-37 0-59 21t-23 60q0 44 26 78t76 35q27 0 44-9t25-27 9-41q0-54-30-85t-68-32z"/><glyph unicode="×" horiz-adv-x="1171" d="M981 1174l94-97-354-354 353-354-95-97-356 352-349-352-99 97 353 354-354 352 99 99 352-356 356 356z"/><glyph unicode="Ø" horiz-adv-x="1476" d="M217-81L110 7l142 174q-52 72-77 165t-25 203q0 125 22 242t66 221 106 191 146 150 181 97 216 35q101 0 183-28t150-86l135 166 110-87-152-183q47-64 72-157t25-201q0-121-20-236t-60-220-100-190-140-150-180-98-221-35Q585-20 502 5T352 83L217-81zm478 210q86 0 159 30t134 84 105 127 77 160 47 185 16 198q0 60-9 113t-26 93L453 210q43-37 104-59t138-22zM370 326l746 919q-44 44-104 68t-137 24q-86 0-160-29t-135-81-108-125-79-160-48-186-17-203q0-65 10-123t32-104z"/><glyph unicode="Ù" horiz-adv-x="1389" d="M614-20q-150 0-250 47T214 164t-50 220q0 35 6 84t17 105l190 889h169L355 564q-11-46-17-96t-6-82q0-121 74-189t218-68q123 0 205 43t132 129 78 213l203 948h168l-204-962q-34-163-106-279T909 42 614-20zm315 1628q-38 39-82 95t-81 113-59 99v21h178q16-50 40-103t52-104 55-96v-25H929z"/><glyph unicode="Ú" horiz-adv-x="1389" d="M614-20q-150 0-250 47T214 164t-50 220q0 35 6 84t17 105l190 889h169L355 564q-11-46-17-96t-6-82q0-121 74-189t218-68q123 0 205 43t132 129 78 213l203 948h168l-204-962q-34-163-106-279T909 42 614-20zm201 1628v25q37 40 80 93t84 108 71 102h189v-20q-22-28-59-68t-83-85-92-85-86-70H815z"/><glyph unicode="Û" horiz-adv-x="1389" d="M614-20q-150 0-250 47T214 164t-50 220q0 35 6 84t17 105l190 889h169L355 564q-11-46-17-96t-6-82q0-121 74-189t218-68q123 0 205 43t132 129 78 213l203 948h168l-204-962q-34-163-106-279T909 42 614-20zm-22 1628l1 25q36 33 92 87t110 112 84 103h160q20-52 50-106t62-105 58-91v-25h-104q-25 24-52 55t-54 66-54 73q-61-55-124-105t-118-89H592z"/><glyph unicode="Ü" horiz-adv-x="1389" d="M614-20q-150 0-250 47T214 164t-50 220q0 35 6 84t17 105l190 889h169L355 564q-11-46-17-96t-6-82q0-121 74-189t218-68q123 0 205 43t132 129 78 213l203 948h168l-204-962q-34-163-106-279T909 42 614-20zm502 1683q-35 0-58 21t-23 60q0 44 26 78t78 35q39 0 58-21t19-56q0-54-31-85t-69-32zm-366 0q-37 0-59 21t-23 60q0 44 26 78t76 35q27 0 44-9t25-27 9-41q0-54-30-85t-68-32z"/><glyph unicode="Ý" horiz-adv-x="1037" d="M312 0l119 550-242 912h169l183-745 494 745h191L596 545 483 0H312zm328 1608v25q37 40 80 93t84 108 71 102h189v-20q-22-28-59-68t-83-85-92-85-86-70H640z"/><glyph unicode="Þ" horiz-adv-x="1159" d="M86 0l309 1462h168l-53-256h160q155 0 251-46t141-130 45-199q0-126-42-221T940 450t-202-96-274-33H323L254 0H86zm266 466h141q132 0 231 37t155 117 55 205q0 125-71 180t-216 56H477L352 466z"/><glyph unicode="ß" horiz-adv-x="1184" d="M-137-492q-36 0-68 6t-55 15v143q25-11 52-17t59-6q66 0 109 47t66 154l279 1315q29 135 89 224t154 134 224 44q158 0 251-70t94-199q0-74-29-129t-74-97-96-81q-64-46-116-91t-53-104q0-32 23-60t54-51 53-42q75-64 122-129t47-162q0-128-55-210T845 20 643-20q-91 0-158 19T374 49v154q44-33 112-60t138-27q126 0 190 62t64 156q0 46-14 80t-43 65-76 69q-82 65-120 119t-39 120q0 71 28 120t73 86 93 71q45 30 85 62t64 71 25 90q0 68-53 105t-143 38q-82 0-140-30t-94-89-54-146L195-140q-23-110-64-189T25-450t-162-42z"/><glyph unicode="à" horiz-adv-x="1158" d="M396-20q-89 0-156 43T136 150 99 355q0 121 25 233t73 208 113 168 150 112 179 40q74 0 128-28t91-73 58-97h10l64 178h127L885 0H752l30 212h-8q-45-60-103-113T544 13 396-20zm54 138q77 0 152 56t136 153 93 218q16 59 21 108t6 93q0 103-54 166t-149 64q-67 0-126-33t-106-93-82-138-52-171-19-189q0-115 47-174t133-60zm289 1123q-38 39-82 95t-81 113-59 99v21h178q16-50 40-103t52-104 55-96v-25H739z"/><glyph unicode="á" horiz-adv-x="1158" d="M396-20q-89 0-156 43T136 150 99 355q0 121 25 233t73 208 113 168 150 112 179 40q74 0 128-28t91-73 58-97h10l64 178h127L885 0H752l30 212h-8q-45-60-103-113T544 13 396-20zm54 138q77 0 152 56t136 153 93 218q16 59 21 108t6 93q0 103-54 166t-149 64q-67 0-126-33t-106-93-82-138-52-171-19-189q0-115 47-174t133-60zm172 1123v25q37 40 80 93t84 108 71 102h189v-20q-22-28-59-68t-83-85-92-85-86-70H622z"/><glyph unicode="â" horiz-adv-x="1158" d="M396-20q-89 0-156 43T136 150 99 355q0 121 25 233t73 208 113 168 150 112 179 40q74 0 128-28t91-73 58-97h10l64 178h127L885 0H752l30 212h-8q-45-60-103-113T544 13 396-20zm54 138q77 0 152 56t136 153 93 218q16 59 21 108t6 93q0 103-54 166t-149 64q-67 0-126-33t-106-93-82-138-52-171-19-189q0-115 47-174t133-60zm-49 1123l1 25q36 33 92 87t110 112 84 103h160q20-52 50-106t62-105 58-91v-25H914q-25 24-52 55t-54 66-54 73q-61-55-124-105t-118-89H401z"/><glyph unicode="ã" horiz-adv-x="1158" d="M396-20q-89 0-156 43T136 150 99 355q0 121 25 233t73 208 113 168 150 112 179 40q74 0 128-28t91-73 58-97h10l64 178h127L885 0H752l30 212h-8q-45-60-103-113T544 13 396-20zm54 138q77 0 152 56t136 153 93 218q16 59 21 108t6 93q0 103-54 166t-149 64q-67 0-126-33t-106-93-82-138-52-171-19-189q0-115 47-174t133-60zm-70 1126q18 83 50 140t77 86 105 29q45 0 84-17t75-41 65-40 59-18q44 0 70 26t51 92h103q-22-83-55-140t-78-86-103-30q-41 0-78 17t-71 41-68 41-67 18q-43 0-69-28t-49-90H380z"/><glyph unicode="ä" horiz-adv-x="1158" d="M396-20q-89 0-156 43T136 150 99 355q0 121 25 233t73 208 113 168 150 112 179 40q74 0 128-28t91-73 58-97h10l64 178h127L885 0H752l30 212h-8q-45-60-103-113T544 13 396-20zm54 138q77 0 152 56t136 153 93 218q16 59 21 108t6 93q0 103-54 166t-149 64q-67 0-126-33t-106-93-82-138-52-171-19-189q0-115 47-174t133-60zm474 1178q-35 0-58 21t-23 60q0 44 26 78t78 35q39 0 58-21t19-56q0-54-31-85t-69-32zm-366 0q-37 0-59 21t-23 60q0 44 26 78t76 35q27 0 44-9t25-27 9-41q0-54-30-85t-68-32z"/><glyph unicode="å" horiz-adv-x="1158" d="M396-20q-89 0-156 43T136 150 99 355q0 121 25 233t73 208 113 168 150 112 179 40q74 0 128-28t91-73 58-97h10l64 178h127L885 0H752l30 212h-8q-45-60-103-113T544 13 396-20zm54 138q77 0 152 56t136 153 93 218q16 59 21 108t6 93q0 103-54 166t-149 64q-67 0-126-33t-106-93-82-138-52-171-19-189q0-115 47-174t133-60zm288 1124q-96 0-157 56t-62 158q0 100 64 156t155 56q97 0 159-56t62-154q0-103-63-159t-158-57zm0 96q53 0 86 32t33 86q0 54-33 86t-86 32q-49 0-83-32t-34-86q0-54 31-86t86-32z"/><glyph unicode="æ" horiz-adv-x="1684" d="M366-20q-80 0-140 43t-93 126-34 204q0 122 25 235t72 209 112 167 144 112 171 40q69 0 117-28t81-73 52-97h10l66 178h108l-32-154q55 77 140 125t200 49q109 0 189-62t80-191q0-83-38-153t-118-121-200-80-287-29h-44q-1-18-2-40t-2-41q0-131 64-206t197-75q77 0 147 24t147 58V54q-77-36-156-55t-168-19q-111 0-194 42T856 153L823 0H712l27 211h-7q-53-68-108-120T507 10 366-20zm54 138q57 0 113 32t105 91 89 136 63 169q16 59 21 108t6 92q0 103-45 166t-127 64q-64 0-121-33t-103-93-81-138-52-170-18-189q0-116 39-175t111-60zm552 498h27q128 0 235 22t171 74 65 135q0 67-39 99t-98 32q-78 0-148-42t-126-124-87-196z"/><glyph unicode="ç" horiz-adv-x="928" d="M506-20q-122 0-213 46T151 164t-51 226q0 117 25 225t75 199 119 159 159 105 196 38q71 0 141-13t128-39l-47-140q-42 20-99 36t-122 16q-91 0-165-46T382 803t-83-187-29-224q0-85 30-146t86-95 136-33q73 0 137 20t127 48V44Q731 16 661-2T506-20zM286-492q-27 0-52 3t-42 8v100q20-4 41-6t37-2q55 0 93 12t58 38 20 64q0 45-38 67t-104 29L398 0h107l-60-119q50-13 91-47t42-109q0-62-34-111t-99-77-159-29z"/><glyph unicode="è" horiz-adv-x="1020" d="M497-20q-123 0-212 49T149 171t-48 222q0 133 38 261t111 233 173 167 228 62q151 0 229-67t78-186q0-83-38-153T802 589t-201-80-288-29h-38q-2-18-3-40t-2-41q0-132 64-206t192-75q79 0 149 22t148 60V57Q749 23 674 2T497-20zM299 616h24q128 0 235 22t172 74 65 138q0 56-38 92t-116 36q-69 0-136-42T384 812t-85-196zm384 625q-38 39-82 95t-81 113-59 99v21h178q16-50 40-103t52-104 55-96v-25H683z"/><glyph unicode="é" horiz-adv-x="1020" d="M497-20q-123 0-212 49T149 171t-48 222q0 133 38 261t111 233 173 167 228 62q151 0 229-67t78-186q0-83-38-153T802 589t-201-80-288-29h-38q-2-18-3-40t-2-41q0-132 64-206t192-75q79 0 149 22t148 60V57Q749 23 674 2T497-20zM299 616h24q128 0 235 22t172 74 65 138q0 56-38 92t-116 36q-69 0-136-42T384 812t-85-196zm270 625v25q37 40 80 93t84 108 71 102h189v-20q-22-28-59-68t-83-85-92-85-86-70H569z"/><glyph unicode="ê" horiz-adv-x="1020" d="M497-20q-123 0-212 49T149 171t-48 222q0 133 38 261t111 233 173 167 228 62q151 0 229-67t78-186q0-83-38-153T802 589t-201-80-288-29h-38q-2-18-3-40t-2-41q0-132 64-206t192-75q79 0 149 22t148 60V57Q749 23 674 2T497-20zM299 616h24q128 0 235 22t172 74 65 138q0 56-38 92t-116 36q-69 0-136-42T384 812t-85-196zm46 625l1 25q36 33 92 87t110 112 84 103h160q20-52 50-106t62-105 58-91v-25H858q-25 24-52 55t-54 66-54 73q-61-55-124-105t-118-89H345z"/><glyph unicode="ë" horiz-adv-x="1020" d="M497-20q-123 0-212 49T149 171t-48 222q0 133 38 261t111 233 173 167 228 62q151 0 229-67t78-186q0-83-38-153T802 589t-201-80-288-29h-38q-2-18-3-40t-2-41q0-132 64-206t192-75q79 0 149 22t148 60V57Q749 23 674 2T497-20zM299 616h24q128 0 235 22t172 74 65 138q0 56-38 92t-116 36q-69 0-136-42T384 812t-85-196zm825 680q-35 0-58 21t-23 60q0 44 26 78t78 35q39 0 58-21t19-56q0-54-31-85t-69-32zm-366 0q-37 0-59 21t-23 60q0 44 26 78t76 35q27 0 44-9t25-27 9-41q0-54-30-85t-68-32z"/><glyph unicode="ì" horiz-adv-x="517" d="M58 0l233 1096h167L225 0H58zm612 1241q-38 39-82 95t-81 113-59 99v21h178q16-50 40-103t52-104 55-96v-25H670z"/><glyph unicode="í" horiz-adv-x="517" d="M58 0l233 1096h167L225 0H58zm242 1241v25q37 40 80 93t84 108 71 102h189v-20q-22-28-59-68t-83-85-92-85-86-70H300z"/><glyph unicode="î" horiz-adv-x="517" d="M58 0l233 1096h167L225 0H58zm21 1241l1 25q36 33 92 87t110 112 84 103h160q20-52 50-106t62-105 58-91v-25H592q-25 24-52 55t-54 66-54 73q-61-55-124-105t-118-89H79z"/><glyph unicode="ï" horiz-adv-x="517" d="M58 0l233 1096h167L225 0H58zm543 1296q-35 0-58 21t-23 60q0 44 26 78t78 35q39 0 58-21t19-56q0-54-31-85t-69-32zm-366 0q-37 0-59 21t-23 60q0 44 26 78t76 35q27 0 44-9t25-27 9-41q0-54-30-85t-68-32z"/><glyph unicode="ð" horiz-adv-x="1163" d="M479-20q-120 0-207 47T137 162 90 375q0 117 36 223t104 190 164 131 216 48q121 0 193-52t102-123l6 2q2 121-29 234t-119 223l-267-147-56 102 238 131q-31 29-67 58t-79 57l91 114q47-32 96-69t93-84l257 144 61-102-237-131q48-63 86-139t60-171 22-212q0-117-19-235t-61-223-109-187T707 27 479-20zm10 138q80 0 141 30t106 79 72 110 41 122 13 116q0 45-13 90t-41 82-76 60-116 23q-92 0-159-38T346 688t-65-146-21-165q0-113 54-186t175-73z"/><glyph unicode="ñ" horiz-adv-x="1180" d="M51 0l235 1101h147l-26-211h2q38 52 91 105t125 90 163 37q88 0 151-32t97-94 34-149q0-46-7-93t-15-84L902 0H725l148 692q9 45 14 77t6 60q0 70-38 106t-112 36q-73 0-154-50T439 764 332 483L229 0H51zm343 1244q18 83 50 140t77 86 105 29q45 0 84-17t75-41 65-40 59-18q44 0 70 26t51 92h103q-22-83-55-140t-78-86-103-30q-41 0-78 17t-71 41-68 41-67 18q-43 0-69-28t-49-90H394z"/><glyph unicode="ò" horiz-adv-x="1153" d="M505-16q-126 0-217 51T149 181t-49 224q0 104 23 205t68 192 111 160 154 109 194 40q128 0 218-51t139-147 49-225q0-102-22-203t-67-191-111-160T702 24 505-16zm10 138q62 0 118 26t102 75 79 121 52 163 19 200q0 65-23 126t-74 100-136 40q-70 0-129-29t-107-82-79-125-50-158-18-181q0-131 64-203t182-73zm186 1119q-38 39-82 95t-81 113-59 99v21h178q16-50 40-103t52-104 55-96v-25H701z"/><glyph unicode="ó" horiz-adv-x="1153" d="M505-16q-126 0-217 51T149 181t-49 224q0 104 23 205t68 192 111 160 154 109 194 40q128 0 218-51t139-147 49-225q0-102-22-203t-67-191-111-160T702 24 505-16zm10 138q62 0 118 26t102 75 79 121 52 163 19 200q0 65-23 126t-74 100-136 40q-70 0-129-29t-107-82-79-125-50-158-18-181q0-131 64-203t182-73zm73 1119v25q37 40 80 93t84 108 71 102h189v-20q-22-28-59-68t-83-85-92-85-86-70H588z"/><glyph unicode="ô" horiz-adv-x="1153" d="M505-16q-126 0-217 51T149 181t-49 224q0 104 23 205t68 192 111 160 154 109 194 40q128 0 218-51t139-147 49-225q0-102-22-203t-67-191-111-160T702 24 505-16zm10 138q62 0 118 26t102 75 79 121 52 163 19 200q0 65-23 126t-74 100-136 40q-70 0-129-29t-107-82-79-125-50-158-18-181q0-131 64-203t182-73zM364 1241l1 25q36 33 92 87t110 112 84 103h160q20-52 50-106t62-105 58-91v-25H877q-25 24-52 55t-54 66-54 73q-61-55-124-105t-118-89H364z"/><glyph unicode="õ" horiz-adv-x="1153" d="M505-16q-126 0-217 51T149 181t-49 224q0 104 23 205t68 192 111 160 154 109 194 40q128 0 218-51t139-147 49-225q0-102-22-203t-67-191-111-160T702 24 505-16zm10 138q62 0 118 26t102 75 79 121 52 163 19 200q0 65-23 126t-74 100-136 40q-70 0-129-29t-107-82-79-125-50-158-18-181q0-131 64-203t182-73zM347 1244q18 83 50 140t77 86 105 29q45 0 84-17t75-41 65-40 59-18q44 0 70 26t51 92h103q-22-83-55-140t-78-86-103-30q-41 0-78 17t-71 41-68 41-67 18q-43 0-69-28t-49-90H347z"/><glyph unicode="ö" horiz-adv-x="1153" d="M505-16q-126 0-217 51T149 181t-49 224q0 104 23 205t68 192 111 160 154 109 194 40q128 0 218-51t139-147 49-225q0-102-22-203t-67-191-111-160T702 24 505-16zm10 138q62 0 118 26t102 75 79 121 52 163 19 200q0 65-23 126t-74 100-136 40q-70 0-129-29t-107-82-79-125-50-158-18-181q0-131 64-203t182-73zm631 1174q-35 0-58 21t-23 60q0 44 26 78t78 35q39 0 58-21t19-56q0-54-31-85t-69-32zm-366 0q-37 0-59 21t-23 60q0 44 26 78t76 35q27 0 44-9t25-27 9-41q0-54-30-85t-68-32z"/><glyph unicode="÷" horiz-adv-x="1171" d="M144 654v136h963V654H144zm481-401q-46 0-77 28t-31 90q0 65 31 91t77 26q44 0 75-26t31-91q0-61-31-89t-75-29zm0 702q-46 0-77 28t-31 90q0 64 31 90t77 26q44 0 75-26t31-90q0-61-31-89t-75-29z"/><glyph unicode="ø" horiz-adv-x="1153" d="M153-76L52 3l118 141q-34 53-51 117t-18 144q0 104 23 205t67 192 111 160 154 109 194 40q80 0 142-18t112-54l107 128 101-76-121-132q32-49 46-118t15-137q0-103-22-206t-66-195-109-164T702 26 507-16q-74 0-137 18T258 54L153-76zm362 194q62 0 118 26t104 75 81 118 54 158 19 192q0 36-4 67t-12 51L352 170q29-26 71-39t92-13zM282 282l527 640q-25 22-62 37t-95 15q-70 0-130-29t-108-81-82-122-52-153-18-174q0-43 5-78t15-55z"/><glyph unicode="ù" horiz-adv-x="1180" d="M387-20q-83 0-145 31t-95 91-34 149q0 44 6 85t15 87l145 673h168L298 404q-8-43-12-76t-5-60q0-71 36-110t117-40q75 0 157 51t153 160 108 285l102 482h164L886 0H749l27 212h-9q-38-52-92-105T550 17 387-20zm360 1261q-38 39-82 95t-81 113-59 99v21h178q16-50 40-103t52-104 55-96v-25H747z"/><glyph unicode="ú" horiz-adv-x="1180" d="M387-20q-83 0-145 31t-95 91-34 149q0 44 6 85t15 87l145 673h168L298 404q-8-43-12-76t-5-60q0-71 36-110t117-40q75 0 157 51t153 160 108 285l102 482h164L886 0H749l27 212h-9q-38-52-92-105T550 17 387-20zm245 1261v25q37 40 80 93t84 108 71 102h189v-20q-22-28-59-68t-83-85-92-85-86-70H632z"/><glyph unicode="û" horiz-adv-x="1180" d="M387-20q-83 0-145 31t-95 91-34 149q0 44 6 85t15 87l145 673h168L298 404q-8-43-12-76t-5-60q0-71 36-110t117-40q75 0 157 51t153 160 108 285l102 482h164L886 0H749l27 212h-9q-38-52-92-105T550 17 387-20zm22 1261l1 25q36 33 92 87t110 112 84 103h160q20-52 50-106t62-105 58-91v-25H922q-25 24-52 55t-54 66-54 73q-61-55-124-105t-118-89H409z"/><glyph unicode="ü" horiz-adv-x="1180" d="M387-20q-83 0-145 31t-95 91-34 149q0 44 6 85t15 87l145 673h168L298 404q-8-43-12-76t-5-60q0-71 36-110t117-40q75 0 157 51t153 160 108 285l102 482h164L886 0H749l27 212h-9q-38-52-92-105T550 17 387-20zm546 1316q-35 0-58 21t-23 60q0 44 26 78t78 35q39 0 58-21t19-56q0-54-31-85t-69-32zm-366 0q-37 0-59 21t-23 60q0 44 26 78t76 35q27 0 44-9t25-27 9-41q0-54-30-85t-68-32z"/><glyph unicode="ý" horiz-adv-x="943" d="M-58-493q-49 0-79 6t-60 15v135q27-7 60-12t70-6q82 0 141 52t115 153l77 137L98 1096h168l76-563q10-66 16-141t9-143 3-110h6q14 33 42 95t60 131 57 114l329 617h178L340-190q-54-100-110-167T104-459t-162-34zm535 1734v25q37 40 80 93t84 108 71 102h189v-20q-22-28-59-68t-83-85-92-85-86-70H477z"/><glyph unicode="þ" horiz-adv-x="1183" d="M-44-490l432 2046h166l-80-375q-19-86-38-162t-37-136h8q48 62 104 114t123 85 146 32q137 0 219-96t82-280q0-117-23-228t-68-207-110-168T731 21 546-20q-76 0-133 27t-95 73-61 97h-9q-2-35-10-95T220-19L120-490H-44zm576 608q70 0 128 35t105 95 79 141 50 170 17 183q0 116-46 175t-139 59q-76 0-154-57T431 762t-94-225q-11-46-16-93t-6-94q0-105 53-168t164-64z"/><glyph unicode="ÿ" horiz-adv-x="943" d="M-58-493q-49 0-79 6t-60 15v135q27-7 60-12t70-6q82 0 141 52t115 153l77 137L98 1096h168l76-563q10-66 16-141t9-143 3-110h6q14 33 42 95t60 131 57 114l329 617h178L340-190q-54-100-110-167T104-459t-162-34zm837 1789q-35 0-58 21t-23 60q0 44 26 78t78 35q39 0 58-21t19-56q0-54-31-85t-69-32zm-366 0q-37 0-59 21t-23 60q0 44 26 78t76 35q27 0 44-9t25-27 9-41q0-54-30-85t-68-32z"/><glyph unicode="–" horiz-adv-x="983" d="M56 474l34 153h824l-31-153H56z"/><glyph unicode="—" horiz-adv-x="1965" d="M56 474l34 153h1806l-32-153H56z"/><glyph unicode="‘" horiz-adv-x="344" d="M131 961l-7 22q33 74 76 156t92 166 97 157h127q-27-60-55-125t-56-132-51-128-44-116H131z"/><glyph unicode="’" horiz-adv-x="344" d="M123 961q37 80 75 169t73 175 58 157h179l8-22q-32-74-75-156t-93-166-98-157H123z"/><glyph unicode="‚" horiz-adv-x="487" d="M-98-264q36 80 74 169T48 80t59 158h180l8-23q-33-73-77-156t-93-166-97-157H-98z"/><glyph unicode="“" horiz-adv-x="709" d="M496 961l-9 22q33 74 77 156t94 166 98 157h125q-36-80-74-169t-73-175-59-157H496zm-365 0l-7 22q33 74 76 156t92 166 97 157h127q-27-60-55-125t-56-132-51-128-44-116H131z"/><glyph unicode="”" horiz-adv-x="709" d="M488 961q37 80 74 169t71 175 58 157h182l8-22q-31-74-75-156t-94-166-99-157H488zm-365 0q37 80 75 169t73 175 58 157h179l8-22q-32-74-75-156t-93-166-98-157H123z"/><glyph unicode="„" horiz-adv-x="851" d="M264-264q37 80 75 169t73 175 58 158h180l8-23q-32-73-76-156t-93-166-96-157H264zm-362 0q36 80 74 169T48 80t59 158h180l8-23q-33-73-77-156t-93-166-97-157H-98z"/><glyph unicode="•" horiz-adv-x="770" d="M424 507q-91 0-151 55t-60 181q0 86 28 140t77 79 111 26q60 0 108-23t76-76 28-137q0-84-28-138t-78-81-111-26z"/><glyph unicode="‹" horiz-adv-x="571" d="M309 118L81 550l1 29 391 386 82-82-301-338 170-377-115-50z"/><glyph unicode="›" horiz-adv-x="571" d="M99 118l-83 82 301 337-170 378 115 50 227-432-1-26L99 118z"/></font>
</defs>
</svg>
