<?xml version="1.0" encoding="UTF-8" standalone="no"?>
<!DOCTYPE svg PUBLIC "-//W3C//DTD SVG 1.1//EN" "http://www.w3.org/Graphics/SVG/1.1/DTD/svg11.dtd">
<svg width="100%" height="100%" viewBox="0 0 1200 300" version="1.1" xmlns="http://www.w3.org/2000/svg" xml:space="preserve" style="fill-rule:evenodd;clip-rule:evenodd;stroke-linejoin:round;stroke-miterlimit:2;">
    <g transform="matrix(1.02031,0,0,1.12042,-17.0775,-20.0736)">
        <rect x="7.573" y="12.171" width="1186.39" height="277.955" style="fill:white;"/>
    </g>
    <g transform="matrix(1,0,0,1,200,75)">
        <path d="M130.7,149.5L130.7,0.5L223.8,0.5L223.8,26.5L161.1,26.5L161.1,61.4L213.5,61.4L213.5,87.6L161.1,87.6L161.1,123.5L223.8,123.5L223.8,149.5L130.7,149.5Z" style="fill:rgb(230,25,0);fill-rule:nonzero;"/>
        <path d="M320.1,149.5L297.9,92.1L275.9,92.1L275.9,149.5L245.5,149.5L245.5,0.5L301.6,0.5C319.3,0.5 331.2,3.7 338.9,10.3C346.8,17.2 350.8,28 350.8,43.9C350.8,54.7 348.7,64 344.2,71.7C340.2,78.6 334.7,83.9 327.8,87.6L354.5,149.5L320.1,149.5ZM297.4,67.2C306.1,67.2 312.2,65.3 315.7,61.6C318.6,58.4 319.9,53.7 319.9,46.3C319.9,32 317,25.9 299.8,25.9L276.3,25.9L276.3,67.2C276.2,67.2 297.4,67.2 297.4,67.2Z" style="fill:rgb(230,25,0);fill-rule:nonzero;"/>
        <g transform="matrix(1.071,0,0,1.071,-202.657,-63.1625)">
            <g transform="matrix(42.0298,0,0,44.2916,554.149,90.7356)">
                <path d="M0.077,-0.7L0.077,0L0.184,0L0.184,-0.278L0.353,-0.278L0.496,0L0.61,0L0.459,-0.296C0.532,-0.318 0.58,-0.381 0.58,-0.489C0.58,-0.624 0.503,-0.7 0.386,-0.7L0.077,-0.7ZM0.184,-0.615L0.369,-0.615C0.432,-0.615 0.473,-0.575 0.473,-0.489C0.473,-0.401 0.431,-0.363 0.369,-0.363L0.184,-0.363L0.184,-0.615Z" style="fill:rgb(230,25,0);fill-rule:nonzero;"/>
            </g>
            <g transform="matrix(42.0298,0,0,44.2916,581.679,90.7356)">
                <path d="M0.525,-0.615L0.525,-0.7L0.077,-0.7L0.077,0L0.53,0L0.53,-0.085L0.184,-0.085L0.184,-0.326L0.503,-0.326L0.503,-0.411L0.184,-0.411L0.184,-0.615L0.525,-0.615Z" style="fill:rgb(230,25,0);fill-rule:nonzero;"/>
            </g>
            <g transform="matrix(42.0298,0,0,44.2916,605.762,90.7356)">
                <path d="M0.397,0L0.641,-0.7L0.527,-0.7L0.334,-0.115L0.142,-0.7L0.027,-0.7L0.272,0L0.397,0Z" style="fill:rgb(230,25,0);fill-rule:nonzero;"/>
            </g>
            <g transform="matrix(42.0298,0,0,44.2916,633.88,90.7356)">
                <path d="M0.525,-0.615L0.525,-0.7L0.077,-0.7L0.077,0L0.53,0L0.53,-0.085L0.184,-0.085L0.184,-0.326L0.503,-0.326L0.503,-0.411L0.184,-0.411L0.184,-0.615L0.525,-0.615Z" style="fill:rgb(230,25,0);fill-rule:nonzero;"/>
            </g>
            <g transform="matrix(42.0298,0,0,44.2916,657.963,90.7356)">
                <path d="M0.077,-0.7L0.077,0L0.184,0L0.184,-0.278L0.353,-0.278L0.496,0L0.61,0L0.459,-0.296C0.532,-0.318 0.58,-0.381 0.58,-0.489C0.58,-0.624 0.503,-0.7 0.386,-0.7L0.077,-0.7ZM0.184,-0.615L0.369,-0.615C0.432,-0.615 0.473,-0.575 0.473,-0.489C0.473,-0.401 0.431,-0.363 0.369,-0.363L0.184,-0.363L0.184,-0.615Z" style="fill:rgb(230,25,0);fill-rule:nonzero;"/>
            </g>
            <g transform="matrix(42.0298,0,0,44.2916,685.492,90.7356)">
                <path d="M0.039,-0.013C0.1,-0.003 0.191,0.01 0.273,0.01C0.408,0.01 0.548,-0.034 0.548,-0.198C0.548,-0.349 0.481,-0.373 0.323,-0.412C0.172,-0.448 0.143,-0.464 0.143,-0.526C0.143,-0.602 0.207,-0.623 0.299,-0.623C0.378,-0.623 0.467,-0.603 0.506,-0.593L0.522,-0.678C0.472,-0.691 0.388,-0.708 0.302,-0.708C0.153,-0.708 0.038,-0.665 0.038,-0.52C0.038,-0.404 0.085,-0.365 0.265,-0.32C0.383,-0.294 0.44,-0.284 0.44,-0.2C0.44,-0.104 0.353,-0.077 0.263,-0.077C0.191,-0.077 0.106,-0.09 0.054,-0.1L0.039,-0.013Z" style="fill:rgb(230,25,0);fill-rule:nonzero;"/>
            </g>
            <g transform="matrix(42.0298,0,0,44.2916,710.29,90.7356)">
                <path d="M0.525,-0.615L0.525,-0.7L0.077,-0.7L0.077,0L0.53,0L0.53,-0.085L0.184,-0.085L0.184,-0.326L0.503,-0.326L0.503,-0.411L0.184,-0.411L0.184,-0.615L0.525,-0.615Z" style="fill:rgb(230,25,0);fill-rule:nonzero;"/>
            </g>
        </g>
        <g transform="matrix(1.071,0,0,1.071,-202.175,-4.85664)">
            <g transform="matrix(42.0298,0,0,44.2916,554.149,90.7356)">
                <path d="M0.525,-0.615L0.525,-0.7L0.077,-0.7L0.077,0L0.53,0L0.53,-0.085L0.184,-0.085L0.184,-0.326L0.503,-0.326L0.503,-0.411L0.184,-0.411L0.184,-0.615L0.525,-0.615Z" style="fill:rgb(230,25,0);fill-rule:nonzero;"/>
            </g>
            <g transform="matrix(42.0298,0,0,44.2916,578.232,90.7356)">
                <path d="M0.63,0L0.63,-0.7L0.523,-0.7L0.523,-0.179L0.183,-0.7L0.072,-0.7L0.072,0L0.179,0L0.179,-0.521L0.519,0L0.63,0Z" style="fill:rgb(230,25,0);fill-rule:nonzero;"/>
            </g>
            <g transform="matrix(42.0298,0,0,44.2916,607.737,90.7356)">
                <path d="M0.598,-0.403L0.333,-0.403L0.333,-0.317L0.492,-0.317L0.492,-0.108C0.448,-0.094 0.39,-0.076 0.335,-0.076C0.245,-0.076 0.164,-0.128 0.164,-0.35C0.164,-0.561 0.228,-0.624 0.35,-0.624C0.408,-0.624 0.48,-0.608 0.567,-0.588L0.588,-0.67C0.498,-0.694 0.415,-0.709 0.342,-0.709C0.167,-0.709 0.057,-0.621 0.057,-0.35C0.057,-0.073 0.184,0.009 0.333,0.009C0.423,0.009 0.52,-0.022 0.598,-0.054L0.598,-0.403Z" style="fill:rgb(230,25,0);fill-rule:nonzero;"/>
            </g>
            <g transform="matrix(42.0298,0,0,44.2916,635.897,90.7356)">
                <rect x="0.075" y="-0.7" width="0.106" height="0.7" style="fill:rgb(230,25,0);fill-rule:nonzero;"/>
            </g>
            <g transform="matrix(42.0298,0,0,44.2916,646.447,90.7356)">
                <path d="M0.63,0L0.63,-0.7L0.523,-0.7L0.523,-0.179L0.183,-0.7L0.072,-0.7L0.072,0L0.179,0L0.179,-0.521L0.519,0L0.63,0Z" style="fill:rgb(230,25,0);fill-rule:nonzero;"/>
            </g>
            <g transform="matrix(42.0298,0,0,44.2916,675.952,90.7356)">
                <path d="M0.525,-0.615L0.525,-0.7L0.077,-0.7L0.077,0L0.53,0L0.53,-0.085L0.184,-0.085L0.184,-0.326L0.503,-0.326L0.503,-0.411L0.184,-0.411L0.184,-0.615L0.525,-0.615Z" style="fill:rgb(230,25,0);fill-rule:nonzero;"/>
            </g>
            <g transform="matrix(42.0298,0,0,44.2916,700.035,90.7356)">
                <path d="M0.525,-0.615L0.525,-0.7L0.077,-0.7L0.077,0L0.53,0L0.53,-0.085L0.184,-0.085L0.184,-0.326L0.503,-0.326L0.503,-0.411L0.184,-0.411L0.184,-0.615L0.525,-0.615Z" style="fill:rgb(230,25,0);fill-rule:nonzero;"/>
            </g>
            <g transform="matrix(42.0298,0,0,44.2916,724.118,90.7356)">
                <path d="M0.077,-0.7L0.077,0L0.184,0L0.184,-0.278L0.353,-0.278L0.496,0L0.61,0L0.459,-0.296C0.532,-0.318 0.58,-0.381 0.58,-0.489C0.58,-0.624 0.503,-0.7 0.386,-0.7L0.077,-0.7ZM0.184,-0.615L0.369,-0.615C0.432,-0.615 0.473,-0.575 0.473,-0.489C0.473,-0.401 0.431,-0.363 0.369,-0.363L0.184,-0.363L0.184,-0.615Z" style="fill:rgb(230,25,0);fill-rule:nonzero;"/>
            </g>
            <g transform="matrix(42.0298,0,0,44.2916,751.647,90.7356)">
                <rect x="0.075" y="-0.7" width="0.106" height="0.7" style="fill:rgb(230,25,0);fill-rule:nonzero;"/>
            </g>
            <g transform="matrix(42.0298,0,0,44.2916,762.197,90.7356)">
                <path d="M0.63,0L0.63,-0.7L0.523,-0.7L0.523,-0.179L0.183,-0.7L0.072,-0.7L0.072,0L0.179,0L0.179,-0.521L0.519,0L0.63,0Z" style="fill:rgb(230,25,0);fill-rule:nonzero;"/>
            </g>
            <g transform="matrix(42.0298,0,0,44.2916,791.702,90.7356)">
                <path d="M0.598,-0.403L0.333,-0.403L0.333,-0.317L0.492,-0.317L0.492,-0.108C0.448,-0.094 0.39,-0.076 0.335,-0.076C0.245,-0.076 0.164,-0.128 0.164,-0.35C0.164,-0.561 0.228,-0.624 0.35,-0.624C0.408,-0.624 0.48,-0.608 0.567,-0.588L0.588,-0.67C0.498,-0.694 0.415,-0.709 0.342,-0.709C0.167,-0.709 0.057,-0.621 0.057,-0.35C0.057,-0.073 0.184,0.009 0.333,0.009C0.423,0.009 0.52,-0.022 0.598,-0.054L0.598,-0.403Z" style="fill:rgb(230,25,0);fill-rule:nonzero;"/>
            </g>
        </g>
        <g transform="matrix(1.071,0,0,1.071,-202.188,51.1918)">
            <g transform="matrix(42.0298,0,0,44.2916,554.149,90.7356)">
                <path d="M0.54,-0.628L0.54,-0.7L0.056,-0.7L0.056,-0.615L0.403,-0.615L0.042,-0.072L0.042,0L0.546,0L0.546,-0.085L0.18,-0.085L0.54,-0.628Z" style="fill:rgb(230,25,0);fill-rule:nonzero;"/>
            </g>
            <g transform="matrix(42.0298,0,0,44.2916,578.905,90.7356)">
                <path d="M0.525,-0.615L0.525,-0.7L0.077,-0.7L0.077,0L0.53,0L0.53,-0.085L0.184,-0.085L0.184,-0.326L0.503,-0.326L0.503,-0.411L0.184,-0.411L0.184,-0.615L0.525,-0.615Z" style="fill:rgb(230,25,0);fill-rule:nonzero;"/>
            </g>
            <g transform="matrix(42.0298,0,0,44.2916,602.988,90.7356)">
                <path d="M0.63,0L0.63,-0.7L0.523,-0.7L0.523,-0.179L0.183,-0.7L0.072,-0.7L0.072,0L0.179,0L0.179,-0.521L0.519,0L0.63,0Z" style="fill:rgb(230,25,0);fill-rule:nonzero;"/>
            </g>
            <g transform="matrix(42.0298,0,0,44.2916,632.493,90.7356)">
                <path d="M0.549,-0.615L0.549,-0.7L0.027,-0.7L0.027,-0.615L0.235,-0.615L0.235,0L0.342,0L0.342,-0.615L0.549,-0.615Z" style="fill:rgb(230,25,0);fill-rule:nonzero;"/>
            </g>
            <g transform="matrix(42.0298,0,0,44.2916,656.744,90.7356)">
                <path d="M0.077,-0.7L0.077,0L0.184,0L0.184,-0.278L0.353,-0.278L0.496,0L0.61,0L0.459,-0.296C0.532,-0.318 0.58,-0.381 0.58,-0.489C0.58,-0.624 0.503,-0.7 0.386,-0.7L0.077,-0.7ZM0.184,-0.615L0.369,-0.615C0.432,-0.615 0.473,-0.575 0.473,-0.489C0.473,-0.401 0.431,-0.363 0.369,-0.363L0.184,-0.363L0.184,-0.615Z" style="fill:rgb(230,25,0);fill-rule:nonzero;"/>
            </g>
            <g transform="matrix(42.0298,0,0,44.2916,683.609,90.7356)">
                <path d="M0.615,-0.7L0.508,-0.7L0.508,-0.314C0.508,-0.117 0.497,-0.076 0.346,-0.076C0.194,-0.076 0.184,-0.117 0.184,-0.314L0.184,-0.7L0.077,-0.7L0.077,-0.314C0.077,-0.106 0.1,0.009 0.346,0.009C0.592,0.009 0.615,-0.106 0.615,-0.314L0.615,-0.7Z" style="fill:rgb(230,25,0);fill-rule:nonzero;"/>
            </g>
            <g transform="matrix(42.0298,0,0,44.2916,712.484,90.7356)">
                <path d="M0.804,0L0.804,-0.7L0.673,-0.7L0.438,-0.24L0.203,-0.7L0.072,-0.7L0.072,0L0.179,0L0.179,-0.536L0.404,-0.096L0.472,-0.096L0.697,-0.536L0.697,0L0.804,0Z" style="fill:rgb(230,25,0);fill-rule:nonzero;"/>
            </g>
        </g>
    </g>
    <g transform="matrix(199.084,0,0,209.798,191.502,224.945)">
        <path d="M0.011,0L0.011,-0.13L0.387,-0.595L0.01,-0.595L0.01,-0.716L0.577,-0.716L0.577,-0.604L0.185,-0.121L0.592,-0.121L0.592,0L0.011,0Z" style="fill:rgb(230,25,0);fill-rule:nonzero;"/>
    </g>
</svg>
