<svg viewBox="0 0 1200 300" xmlns="http://www.w3.org/2000/svg" fill-rule="evenodd" clip-rule="evenodd" stroke-linejoin="round" stroke-miterlimit="2"><path fill="#fff" d="M-9.35-6.437h1210.485v311.426H-9.351z"/><path d="M330.7 224.5v-149h93.1v26h-62.7v34.9h52.4v26.2h-52.4v35.9h62.7v26h-93.1zm189.4 0l-22.2-57.4h-22v57.4h-30.4v-149h56.1c17.7 0 29.6 3.2 37.3 9.8 7.9 6.9 11.9 17.7 11.9 33.6 0 10.8-2.1 20.1-6.6 27.8-4 6.9-9.5 12.2-16.4 15.9l26.7 61.9h-34.4zm-22.7-82.3c8.7 0 14.8-1.9 18.3-5.6 2.9-3.2 4.2-7.9 4.2-15.3 0-14.3-2.9-20.4-20.1-20.4h-23.5v41.3h21.1zm96.903-66.39v33.205h4.816V95.828h7.607l6.437 13.187h5.132l-6.797-14.04c3.286-1.044 5.447-4.033 5.447-9.156 0-6.404-3.466-10.01-8.733-10.01h-13.91zm4.816 4.032h8.328c2.836 0 4.681 1.897 4.681 5.977 0 4.174-1.89 5.977-4.681 5.977h-8.328V79.842zm44.835 0V75.81h-20.167v33.205h20.392v-4.032h-15.575V93.551h14.36V89.52h-14.36v-9.677h15.35zm20.031 29.173l10.983-33.205h-5.132l-8.687 27.75-8.643-27.75h-5.177l11.029 33.205h5.627zm35.875-29.173V75.81h-20.165v33.205h20.39v-4.032h-15.574V93.551h14.36V89.52h-14.36v-9.677h15.35zm5.627-4.032v33.205h4.817V95.828h7.607l6.437 13.187h5.132l-6.797-14.04c3.286-1.044 5.446-4.033 5.446-9.156 0-6.404-3.466-10.01-8.732-10.01h-13.91zm4.817 4.032h8.328c2.835 0 4.681 1.897 4.681 5.977 0 4.174-1.89 5.977-4.681 5.977h-8.328V79.842zm22.956 28.557c2.746.474 6.843 1.09 10.534 1.09 6.077 0 12.379-2.087 12.379-9.866 0-7.163-3.016-8.301-10.129-10.151-6.797-1.708-8.102-2.467-8.102-5.408 0-3.605 2.88-4.601 7.022-4.601 3.556 0 7.562.948 9.318 1.423l.72-4.032c-2.25-.617-6.032-1.424-9.903-1.424-6.707 0-11.884 2.04-11.884 8.918 0 5.503 2.116 7.353 10.219 9.488 5.311 1.233 7.877 1.707 7.877 5.692 0 4.554-3.916 5.835-7.967 5.835-3.241 0-7.068-.617-9.408-1.091l-.676 4.127zm48.436-28.557V75.81H761.53v33.205h20.391v-4.032h-15.575V93.551h14.36V89.52h-14.36v-9.677h15.35zM614.95 138.148v-4.032h-20.165v33.205h20.391v-4.032h-15.575v-11.432h14.36v-4.032H599.6v-9.677h15.35zm30.52 29.173v-33.205h-4.816v24.714l-15.305-24.714h-4.997v33.205h4.817v-24.714l15.305 24.714h4.996zm30.16-19.117H663.7v4.08h7.157v9.914c-1.98.664-4.591 1.518-7.067 1.518-4.051 0-7.697-2.467-7.697-12.998 0-10.009 2.88-12.997 8.372-12.997 2.611 0 5.852.759 9.768 1.708l.946-3.89c-4.052-1.139-7.788-1.85-11.074-1.85-7.877 0-12.829 4.174-12.829 17.03 0 13.14 5.717 17.03 12.424 17.03 4.051 0 8.418-1.471 11.929-2.99v-16.555zm6.617-14.088h4.771v33.205h-4.771zm36.282 33.205v-33.205h-4.817v24.714l-15.305-24.714h-4.996v33.205h4.816v-24.714l15.305 24.714h4.997zm26.873-29.173v-4.032h-20.166v33.205h20.391v-4.032h-15.575v-11.432h14.36v-4.032h-14.36v-9.677h15.35zm25.793 0v-4.032h-20.166v33.205h20.39v-4.032h-15.574v-11.432h14.36v-4.032h-14.36v-9.677h15.35zm5.626-4.032v33.205h4.817v-13.187h7.607l6.437 13.187h5.132l-6.797-14.041c3.286-1.044 5.446-4.032 5.446-9.155 0-6.404-3.466-10.01-8.732-10.01h-13.91zm4.817 4.032h8.328c2.835 0 4.681 1.897 4.681 5.977 0 4.174-1.89 5.977-4.681 5.977h-8.328v-11.954zm24.577-4.032h4.771v33.205h-4.771zm36.282 33.205v-33.205h-4.817v24.714l-15.304-24.714h-4.997v33.205h4.816v-24.714L837.5 167.32h4.997zm30.159-19.117h-11.929v4.08h7.158v9.914c-1.98.664-4.592 1.518-7.067 1.518-4.052 0-7.698-2.467-7.698-12.998 0-10.009 2.881-12.997 8.373-12.997 2.61 0 5.852.759 9.768 1.708l.945-3.89c-4.051-1.139-7.787-1.85-11.073-1.85-7.878 0-12.83 4.174-12.83 17.03 0 13.14 5.717 17.03 12.424 17.03 4.052 0 8.418-1.471 11.93-2.99v-16.555zM615.613 193.58v-3.416h-21.787v4.032h15.62l-16.25 25.758v3.416h22.687v-4.032h-16.475l16.205-25.758zm25.839.616v-4.032h-20.167v33.206h20.392v-4.032h-15.575v-11.433h14.36v-4.032h-14.36v-9.677h15.35zm30.518 29.174v-33.206h-4.816v24.715l-15.304-24.715h-4.997v33.206h4.817v-24.715l15.304 24.715h4.997zm27.955-29.174v-4.032h-23.498v4.032h9.363v29.174h4.817v-29.174h9.318zm4.725-4.032v33.206h4.817v-13.188h7.608l6.437 13.188h5.131l-6.797-14.042c3.286-1.043 5.447-4.032 5.447-9.155 0-6.404-3.466-10.009-8.733-10.009h-13.91zm4.817 4.032h8.328c2.836 0 4.681 1.898 4.681 5.977 0 4.175-1.89 5.977-4.681 5.977h-8.328v-11.954zm48.173-4.032h-4.816v18.31c0 9.346-.495 11.29-7.292 11.29-6.842 0-7.292-1.944-7.292-11.29v-18.31h-4.817v18.31c0 9.867 1.036 15.323 12.11 15.323 11.072 0 12.108-5.456 12.108-15.322v-18.31zm39.434 33.206v-33.206h-5.897l-10.579 21.82-10.578-21.82h-5.897v33.206h4.817v-25.426l10.128 20.872h3.06l10.13-20.872v25.426h4.816zm-603.382 1.575v-27.274l74.856-97.556h-75.055V74.73h112.88v23.497l-78.04 101.332h81.027v25.386H193.692z" fill="#e61900" fill-rule="nonzero"/></svg>