<svg width="147" height="147" xmlns="http://www.w3.org/2000/svg"><g fill="none"><path d="M143.403 50.787c-1.29-3.968-4.082-7.153-7.782-8.939.729-4.043-.206-8.175-2.658-11.55-2.453-3.375-6.093-5.542-10.163-6.098-.556-4.07-2.723-7.71-6.098-10.163-3.375-2.453-7.51-3.388-11.55-2.658-1.786-3.7-4.97-6.493-8.939-7.782-3.97-1.29-8.187-.904-11.806 1.04C81.565 1.673 77.673 0 73.5 0s-8.065 1.672-10.907 4.638c-3.619-1.944-7.838-2.331-11.806-1.041-3.968 1.29-7.153 4.082-8.939 7.782-4.044-.729-8.175.207-11.55 2.658C26.923 16.49 24.756 20.13 24.2 24.2c-4.07.556-7.71 2.723-10.163 6.098-2.452 3.375-3.387 7.507-2.658 11.55-3.7 1.786-6.493 4.97-7.782 8.939-1.29 3.968-.902 8.187 1.04 11.806C1.673 65.435 0 69.327 0 73.5s1.672 8.065 4.638 10.907c-1.943 3.619-2.33 7.838-1.041 11.806 1.29 3.968 4.082 7.153 7.782 8.939-.729 4.043.206 8.175 2.658 11.55 2.453 3.375 6.093 5.542 10.163 6.098.556 4.07 2.723 7.71 6.098 10.163a15.02 15.02 0 0011.55 2.658c1.786 3.7 4.97 6.493 8.939 7.782 3.968 1.288 8.186.902 11.806-1.04C65.435 145.327 69.327 147 73.5 147s8.065-1.672 10.907-4.638c3.619 1.942 7.836 2.33 11.806 1.041 3.968-1.29 7.153-4.082 8.939-7.782 4.044.73 8.174-.208 11.55-2.658 3.375-2.453 5.542-6.093 6.098-10.163 4.07-.556 7.71-2.723 10.163-6.098 2.452-3.375 3.387-7.507 2.658-11.55 3.7-1.786 6.493-4.97 7.782-8.939 1.29-3.968.902-8.187-1.04-11.806C145.327 81.565 147 77.673 147 73.5s-1.672-8.065-4.638-10.907c1.943-3.619 2.33-7.838 1.041-11.806z" fill="#D10000"/><path d="M107.594 39.406a4.8 4.8 0 00-6.789 0L72.998 67.213 45.19 39.406a4.8 4.8 0 00-6.79 6.788l27.81 27.808-27.807 27.807a4.8 4.8 0 006.789 6.789L72.998 80.79l27.807 27.808a4.8 4.8 0 006.789-6.789L79.787 74.002l27.807-27.808a4.8 4.8 0 000-6.788z" fill="#FFF"/></g></svg>