<svg width="148" height="148" xmlns="http://www.w3.org/2000/svg"><g fill="none"><path d="M143.405 50.787c-1.29-3.968-4.082-7.153-7.782-8.939.729-4.043-.206-8.175-2.658-11.55-2.453-3.375-6.093-5.542-10.163-6.098-.556-4.07-2.723-7.71-6.098-10.163-3.375-2.453-7.51-3.388-11.55-2.658-1.786-3.7-4.97-6.493-8.939-7.782-3.97-1.29-8.187-.904-11.806 1.04C81.567 1.673 77.675 0 73.502 0s-8.065 1.672-10.907 4.638c-3.619-1.944-7.838-2.331-11.806-1.041-3.968 1.29-7.153 4.082-8.94 7.782-4.043-.729-8.175.207-11.549 2.658-3.375 2.453-5.542 6.093-6.098 10.163-4.07.556-7.71 2.723-10.163 6.098-2.452 3.375-3.387 7.507-2.659 11.55-3.699 1.786-6.492 4.97-7.781 8.939-1.29 3.968-.902 8.187 1.04 11.806C1.675 65.435.003 69.327.003 73.5s1.672 8.065 4.638 10.907c-1.943 3.619-2.33 7.838-1.041 11.806 1.29 3.968 4.082 7.153 7.781 8.939-.728 4.043.207 8.175 2.659 11.55 2.453 3.375 6.093 5.542 10.163 6.098.556 4.07 2.723 7.71 6.098 10.163a15.02 15.02 0 0011.55 2.658c1.786 3.7 4.97 6.493 8.939 7.782 3.968 1.288 8.186.902 11.806-1.04C65.437 145.327 69.33 147 73.502 147s8.065-1.672 10.907-4.638c3.619 1.942 7.836 2.33 11.806 1.041 3.968-1.29 7.153-4.082 8.939-7.782 4.044.73 8.174-.208 11.55-2.658 3.375-2.453 5.542-6.093 6.098-10.163 4.07-.556 7.71-2.723 10.163-6.098 2.452-3.375 3.387-7.507 2.658-11.55 3.7-1.786 6.493-4.97 7.782-8.939 1.29-3.968.902-8.187-1.04-11.806 2.965-2.842 4.637-6.734 4.637-10.907s-1.672-8.065-4.638-10.907c1.943-3.619 2.33-7.838 1.041-11.806z" fill="#008526"/><path d="M106.002 44.937c2.62-2.793 6.787 1.28 4.168 4.074-14.526 16.06-29.171 31.888-43.816 47.832-.715.814-1.43 1.513-2.144 2.327-1.071 1.164-3.095 1.048-4.167 0-7.382-6.866-14.764-13.849-22.146-20.715-2.739-2.56 1.429-6.75 4.167-4.074 6.668 6.168 13.217 12.337 19.884 18.621 14.764-16.06 29.41-32.004 44.054-48.065z" fill="#FFF" stroke="#FFF" stroke-width="2"/></g></svg>