<?xml version="1.0" encoding="UTF-8"?>
<svg width="280px" height="44px" viewBox="0 0 280 44" version="1.1" xmlns="http://www.w3.org/2000/svg" xmlns:xlink="http://www.w3.org/1999/xlink">
    <title>Group</title>
    <g id="testest" stroke="none" stroke-width="1" fill="none" fill-rule="evenodd">
        <g id="Safari" transform="translate(-50.000000, -124.000000)" fill-rule="nonzero">
            <g id="Group" transform="translate(50.720000, 124.000000)">
                <g id="schnelltest-test" transform="translate(0.000000, 7.000000)" fill="#000000">
                    <path d="M7.344,9.396 C3.348,9.396 0.972,11.16 0.972,14.94 C0.972,21.816 9.072,18.864 9.072,21.672 C9.072,22.5 8.388,23.004 6.948,23.004 C5.328,23.004 4.392,22.68 3.636,21.96 C3.276,21.6 2.952,21.42 2.628,21.42 C2.196,21.42 1.728,21.78 1.044,22.5 L0.684,22.896 C0.252,23.4 0,23.796 0,24.228 C0,24.624 0.216,24.984 0.648,25.416 C2.232,26.964 4.428,27.36 6.912,27.36 C12.132,27.36 14.04,24.732 14.04,21.6 C14.04,14.94 5.94,16.956 5.94,14.724 C5.94,14.04 6.372,13.752 7.344,13.752 C8.28,13.752 9.072,14.004 9.792,14.508 C10.224,14.796 10.62,14.976 11.016,14.976 C11.556,14.976 12.096,14.652 12.6,14.004 L12.888,13.608 C13.284,13.068 13.5,12.672 13.5,12.312 C13.5,11.844 13.14,11.412 12.42,10.836 C11.196,9.9 9.36,9.396 7.344,9.396 Z" id="Path"></path>
                    <path d="M24.156,13.968 C24.732,13.968 25.2,14.256 25.632,14.544 C26.028,14.796 26.352,14.94 26.712,14.94 C27.18,14.94 27.648,14.724 28.116,14.256 L28.836,13.536 C29.34,13.032 29.52,12.6 29.52,12.24 C29.52,11.664 29.052,11.268 28.764,11.052 C27.324,9.9 25.848,9.396 24.084,9.396 C18.936,9.396 15.804,12.672 15.804,18.468 C15.804,24.228 18.9,27.36 24.156,27.36 C25.596,27.36 27.252,27 28.944,25.704 C29.448,25.308 29.7,24.912 29.7,24.48 C29.7,24.048 29.448,23.58 28.908,23.04 L28.476,22.608 C27.972,22.104 27.648,21.852 27.252,21.852 C26.928,21.852 26.568,22.032 26.028,22.32 C25.524,22.608 24.804,22.788 24.228,22.788 C22.176,22.788 20.772,21.312 20.772,18.468 C20.772,15.624 22.068,13.968 24.156,13.968 Z" id="Path"></path>
                    <path d="M45.432,27 C47.124,27 47.556,26.568 47.556,24.84 L47.556,16.128 C47.556,11.808 45.432,9.396 42.048,9.396 C39.42,9.396 37.728,10.872 37.26,12.924 L37.26,2.16 C37.26,0.432 36.828,0 35.136,0 L34.416,0 C32.724,0 32.292,0.432 32.292,2.16 L32.292,24.84 C32.292,26.568 32.724,27 34.416,27 L35.136,27 C36.828,27 37.26,26.568 37.26,24.84 L37.26,18.396 C37.368,15.984 38.412,13.86 40.572,13.86 C41.94,13.86 42.552,15.156 42.552,17.172 L42.552,24.84 C42.552,26.568 42.984,27 44.676,27 L45.432,27 Z" id="Path"></path>
                    <path d="M55.872,11.952 C55.872,10.224 55.44,9.792 53.748,9.792 L52.992,9.792 C51.3,9.792 50.868,10.224 50.868,11.952 L50.868,24.84 C50.868,26.568 51.3,27 52.992,27 L53.748,27 C55.44,27 55.872,26.568 55.872,24.84 L55.872,18.396 C55.98,15.984 57.024,13.86 59.184,13.86 C60.552,13.86 61.164,15.156 61.164,17.172 L61.164,24.84 C61.164,26.568 61.596,27 63.288,27 L64.044,27 C65.736,27 66.168,26.568 66.168,24.84 L66.168,16.128 C66.168,11.808 64.044,9.396 60.66,9.396 C58.032,9.396 56.34,10.872 55.872,12.924 L55.872,11.952 Z" id="Path"></path>
                    <path d="M76.68,9.396 C71.46,9.396 68.652,13.536 68.652,18.396 C68.652,24.192 72.072,27.36 77.328,27.36 C80.64,27.36 82.476,26.46 83.772,25.38 C84.276,24.948 84.528,24.588 84.528,24.192 C84.528,23.832 84.348,23.508 83.952,23.076 L83.16,22.212 C82.8,21.816 82.512,21.636 82.152,21.636 C81.792,21.636 81.324,21.816 80.604,22.212 C79.776,22.644 78.84,23.004 77.292,23.004 C75.384,23.004 74.412,22.212 73.944,20.772 L82.656,20.772 C84.348,20.772 84.744,20.34 84.744,18.612 L84.744,18.144 C84.744,13.536 82.188,9.396 76.68,9.396 Z M76.68,13.752 C78.192,13.752 79.308,14.724 79.704,16.488 L73.8,16.488 C74.16,14.652 75.132,13.752 76.68,13.752 Z" id="Shape"></path>
                    <path d="M87.624,24.84 C87.624,26.568 88.056,27 89.748,27 L90.504,27 C92.196,27 92.628,26.568 92.628,24.84 L92.628,2.16 C92.628,0.432 92.196,0 90.504,0 L89.748,0 C88.056,0 87.624,0.432 87.624,2.16 L87.624,24.84 Z" id="Path"></path>
                    <path d="M96.084,24.84 C96.084,26.568 96.516,27 98.208,27 L98.964,27 C100.656,27 101.088,26.568 101.088,24.84 L101.088,2.16 C101.088,0.432 100.656,0 98.964,0 L98.208,0 C96.516,0 96.084,0.432 96.084,2.16 L96.084,24.84 Z" id="Path"></path>
                    <path d="M110.556,7.092 C110.556,5.364 110.268,4.932 109.152,4.932 L108.936,4.932 C107.928,4.932 107.388,6.336 106.812,7.416 L105.552,9.792 L105.264,9.792 C103.572,9.792 103.14,10.224 103.14,11.952 L103.14,12.384 C103.14,14.112 103.572,14.544 105.264,14.544 L105.552,14.544 L105.552,21.492 C105.552,25.164 107.352,27.252 111.312,27.252 C111.888,27.252 112.572,27.216 113.184,27.18 C114.048,27.108 114.588,26.676 114.588,25.632 L114.588,23.868 C114.588,22.824 114.228,22.356 113.472,22.392 C113.004,22.392 112.572,22.5 111.96,22.5 C111.24,22.5 110.556,22.104 110.556,19.98 L110.556,14.544 L112.32,14.544 C114.012,14.544 114.444,14.112 114.444,12.384 L114.444,11.952 C114.444,10.224 114.012,9.792 112.32,9.792 L110.556,9.792 L110.556,7.092 Z" id="Path"></path>
                    <path d="M123.984,9.396 C118.764,9.396 115.956,13.536 115.956,18.396 C115.956,24.192 119.376,27.36 124.632,27.36 C127.944,27.36 129.78,26.46 131.076,25.38 C131.58,24.948 131.832,24.588 131.832,24.192 C131.832,23.832 131.652,23.508 131.256,23.076 L130.464,22.212 C130.104,21.816 129.816,21.636 129.456,21.636 C129.096,21.636 128.628,21.816 127.908,22.212 C127.08,22.644 126.144,23.004 124.596,23.004 C122.688,23.004 121.716,22.212 121.248,20.772 L129.96,20.772 C131.652,20.772 132.048,20.34 132.048,18.612 L132.048,18.144 C132.048,13.536 129.492,9.396 123.984,9.396 Z M123.984,13.752 C125.496,13.752 126.612,14.724 127.008,16.488 L121.104,16.488 C121.464,14.652 122.436,13.752 123.984,13.752 Z" id="Shape"></path>
                    <path d="M141.264,9.396 C137.268,9.396 134.892,11.16 134.892,14.94 C134.892,21.816 142.992,18.864 142.992,21.672 C142.992,22.5 142.308,23.004 140.868,23.004 C139.248,23.004 138.312,22.68 137.556,21.96 C137.196,21.6 136.872,21.42 136.548,21.42 C136.116,21.42 135.648,21.78 134.964,22.5 L134.604,22.896 C134.172,23.4 133.92,23.796 133.92,24.228 C133.92,24.624 134.136,24.984 134.568,25.416 C136.152,26.964 138.348,27.36 140.832,27.36 C146.052,27.36 147.96,24.732 147.96,21.6 C147.96,14.94 139.86,16.956 139.86,14.724 C139.86,14.04 140.292,13.752 141.264,13.752 C142.2,13.752 142.992,14.004 143.712,14.508 C144.144,14.796 144.54,14.976 144.936,14.976 C145.476,14.976 146.016,14.652 146.52,14.004 L146.808,13.608 C147.204,13.068 147.42,12.672 147.42,12.312 C147.42,11.844 147.06,11.412 146.34,10.836 C145.116,9.9 143.28,9.396 141.264,9.396 Z" id="Path"></path>
                    <path d="M156.348,7.092 C156.348,5.364 156.06,4.932 154.944,4.932 L154.728,4.932 C153.72,4.932 153.18,6.336 152.604,7.416 L151.344,9.792 L151.056,9.792 C149.364,9.792 148.932,10.224 148.932,11.952 L148.932,12.384 C148.932,14.112 149.364,14.544 151.056,14.544 L151.344,14.544 L151.344,21.492 C151.344,25.164 153.144,27.252 157.104,27.252 C157.68,27.252 158.364,27.216 158.976,27.18 C159.84,27.108 160.38,26.676 160.38,25.632 L160.38,23.868 C160.38,22.824 160.02,22.356 159.264,22.392 C158.796,22.392 158.364,22.5 157.752,22.5 C157.032,22.5 156.348,22.104 156.348,19.98 L156.348,14.544 L158.112,14.544 C159.804,14.544 160.236,14.112 160.236,12.384 L160.236,11.952 C160.236,10.224 159.804,9.792 158.112,9.792 L156.348,9.792 L156.348,7.092 Z" id="Path"></path>
                    <path d="M175.536,7.092 C175.536,5.364 175.248,4.932 174.132,4.932 L173.916,4.932 C172.908,4.932 172.368,6.336 171.792,7.416 L170.532,9.792 L170.244,9.792 C168.552,9.792 168.12,10.224 168.12,11.952 L168.12,12.384 C168.12,14.112 168.552,14.544 170.244,14.544 L170.532,14.544 L170.532,21.492 C170.532,25.164 172.332,27.252 176.292,27.252 C176.868,27.252 177.552,27.216 178.164,27.18 C179.028,27.108 179.568,26.676 179.568,25.632 L179.568,23.868 C179.568,22.824 179.208,22.356 178.452,22.392 C177.984,22.392 177.552,22.5 176.94,22.5 C176.22,22.5 175.536,22.104 175.536,19.98 L175.536,14.544 L177.3,14.544 C178.992,14.544 179.424,14.112 179.424,12.384 L179.424,11.952 C179.424,10.224 178.992,9.792 177.3,9.792 L175.536,9.792 L175.536,7.092 Z" id="Path"></path>
                    <path d="M188.964,9.396 C183.744,9.396 180.936,13.536 180.936,18.396 C180.936,24.192 184.356,27.36 189.612,27.36 C192.924,27.36 194.76,26.46 196.056,25.38 C196.56,24.948 196.812,24.588 196.812,24.192 C196.812,23.832 196.632,23.508 196.236,23.076 L195.444,22.212 C195.084,21.816 194.796,21.636 194.436,21.636 C194.076,21.636 193.608,21.816 192.888,22.212 C192.06,22.644 191.124,23.004 189.576,23.004 C187.668,23.004 186.696,22.212 186.228,20.772 L194.94,20.772 C196.632,20.772 197.028,20.34 197.028,18.612 L197.028,18.144 C197.028,13.536 194.472,9.396 188.964,9.396 Z M188.964,13.752 C190.476,13.752 191.592,14.724 191.988,16.488 L186.084,16.488 C186.444,14.652 187.416,13.752 188.964,13.752 Z" id="Shape"></path>
                    <path d="M206.244,9.396 C202.248,9.396 199.872,11.16 199.872,14.94 C199.872,21.816 207.972,18.864 207.972,21.672 C207.972,22.5 207.288,23.004 205.848,23.004 C204.228,23.004 203.292,22.68 202.536,21.96 C202.176,21.6 201.852,21.42 201.528,21.42 C201.096,21.42 200.628,21.78 199.944,22.5 L199.584,22.896 C199.152,23.4 198.9,23.796 198.9,24.228 C198.9,24.624 199.116,24.984 199.548,25.416 C201.132,26.964 203.328,27.36 205.812,27.36 C211.032,27.36 212.94,24.732 212.94,21.6 C212.94,14.94 204.84,16.956 204.84,14.724 C204.84,14.04 205.272,13.752 206.244,13.752 C207.18,13.752 207.972,14.004 208.692,14.508 C209.124,14.796 209.52,14.976 209.916,14.976 C210.456,14.976 210.996,14.652 211.5,14.004 L211.788,13.608 C212.184,13.068 212.4,12.672 212.4,12.312 C212.4,11.844 212.04,11.412 211.32,10.836 C210.096,9.9 208.26,9.396 206.244,9.396 Z" id="Path"></path>
                    <path d="M221.328,7.092 C221.328,5.364 221.04,4.932 219.924,4.932 L219.708,4.932 C218.7,4.932 218.16,6.336 217.584,7.416 L216.324,9.792 L216.036,9.792 C214.344,9.792 213.912,10.224 213.912,11.952 L213.912,12.384 C213.912,14.112 214.344,14.544 216.036,14.544 L216.324,14.544 L216.324,21.492 C216.324,25.164 218.124,27.252 222.084,27.252 C222.66,27.252 223.344,27.216 223.956,27.18 C224.82,27.108 225.36,26.676 225.36,25.632 L225.36,23.868 C225.36,22.824 225,22.356 224.244,22.392 C223.776,22.392 223.344,22.5 222.732,22.5 C222.012,22.5 221.328,22.104 221.328,19.98 L221.328,14.544 L223.092,14.544 C224.784,14.544 225.216,14.112 225.216,12.384 L225.216,11.952 C225.216,10.224 224.784,9.792 223.092,9.792 L221.328,9.792 L221.328,7.092 Z" id="Path"></path>
                </g>
                <g id="noun-seal-4266670" transform="translate(235.280000, 0.000000)" fill="#008526">
                    <path d="M42.9233643,15.2015381 C42.5374512,14.0137207 41.7014404,13.0606202 40.5941895,12.5259278 C40.8122559,11.3158203 40.5324219,10.079126 39.7984619,9.06882328 C39.0642335,8.05852053 37.974707,7.40996097 36.756543,7.24345705 C36.5900391,6.02529296 35.9414795,4.93576661 34.9311768,4.20153811 C33.920874,3.46730962 32.683374,3.18747561 31.4740723,3.4058106 C30.9393799,2.29855962 29.9862793,1.46254889 28.7984619,1.07663578 C27.610376,0.69045416 26.3479004,0.805932655 25.2645508,1.38815919 C24.4140381,0.50058591 23.2490479,0 22,0 C20.7509521,0 19.5859619,0.50058591 18.7354492,1.38815919 C17.6520996,0.80646973 16.3893555,0.690454105 15.2015381,1.07663578 C14.0137207,1.46254889 13.0606201,2.29855962 12.5259277,3.4058106 C11.3155517,3.18774418 10.0788574,3.46784675 9.06882322,4.20153811 C8.05852047,4.93576661 7.40996091,6.02529301 7.24345699,7.24345705 C6.0252929,7.40996097 4.93576655,8.05852053 4.20153806,9.06882328 C3.46757807,10.079126 3.18774412,11.3158203 3.40581054,12.5259278 C2.29855956,13.0606202 1.46254884,14.0137207 1.07663573,15.2015381 C0.690722615,16.3893555 0.80673824,17.6520996 1.38815913,18.7354493 C0.50058591,19.5859619 0,20.7509521 0,22 C0,23.2490479 0.50058591,24.4140381 1.38815919,25.2645508 C0.806738295,26.3479004 0.69072267,27.6106445 1.07663578,28.7984619 C1.46254889,29.9862793 2.29855962,30.9393799 3.4058106,31.4740723 C3.18774418,32.6841797 3.46757818,33.9208741 4.20153811,34.9311768 C4.93576661,35.9414795 6.02529301,36.5900391 7.24345705,36.756543 C7.40996097,37.9747071 8.05852053,39.0642335 9.06882328,39.7984619 C10.0788575,40.5326904 11.316626,40.8119873 12.5259278,40.5941895 C13.0606202,41.7014404 14.0137207,42.5374512 15.2015381,42.9233643 C16.3893555,43.3087403 17.6518311,43.1932618 18.7354493,42.6118409 C19.5859619,43.4994141 20.7509521,44 22,44 C23.2490479,44 24.4140381,43.4994141 25.2645508,42.6118408 C26.3479004,43.1929931 27.6101074,43.3090088 28.7984619,42.9233642 C29.9862793,42.5374511 30.9393799,41.7014404 31.4740723,40.5941894 C32.6844483,40.8127929 33.9206055,40.5318847 34.9311768,39.7984619 C35.9414795,39.0642334 36.5900391,37.974707 36.756543,36.756543 C37.9747071,36.590039 39.0642335,35.9414795 39.7984619,34.9311767 C40.5324219,33.920874 40.8122559,32.6841797 40.5941895,31.4740722 C41.7014404,30.9393798 42.5374512,29.9862793 42.9233643,28.7984619 C43.3092774,27.6106445 43.1932618,26.3479004 42.6118409,25.2645507 C43.4994141,24.4140381 44,23.2490479 44,22 C44,20.7509521 43.4994141,19.5859619 42.6118408,18.7354492 C43.1932617,17.6520996 43.3092773,16.3893555 42.9233643,15.2015381 Z" id="Shape"></path>
                </g>
                <g id="noun-checkmark-67952" transform="translate(246.412530, 13.253012)" fill="#FFFFFF" stroke="#FFFFFF" stroke-width="2">
                    <path d="M20.3810929,0.0315302631 C21.1598443,-0.816378443 22.3987668,0.420155087 21.6200155,1.26806379 C17.3014854,6.14353885 12.9475576,10.9483549 8.59362975,15.7885004 C8.38124302,16.0358071 8.1688563,16.2477843 7.95646957,16.495091 C7.63788949,16.8483863 7.0361271,16.8130567 6.71754702,16.495091 C4.5228842,14.4106487 2.32822138,12.290877 0.133558568,10.2064347 C-0.680590541,9.42918509 0.558332016,8.15732203 1.37248113,8.96990121 C3.35475722,10.8423663 5.30163552,12.7148313 7.28391161,14.6226259 C11.6732372,9.74715085 16.0271651,4.90700532 20.3810929,0.0315302631 Z" id="Path"></path>
                </g>
            </g>
        </g>
    </g>
</svg>