<?xml version="1.0" encoding="UTF-8"?>
<svg width="273px" height="44px" viewBox="0 0 273 44" version="1.1" xmlns="http://www.w3.org/2000/svg" xmlns:xlink="http://www.w3.org/1999/xlink">
    <title>Logo</title>
    <g id="testest" stroke="none" stroke-width="1" fill="none" fill-rule="evenodd">
        <g id="Safari" transform="translate(-51.000000, -120.000000)" fill-rule="nonzero">
            <g id="Logo" transform="translate(51.248000, 120.000000)">
                <g id="corona-test" transform="translate(0.000000, 8.576000)" fill="#000000">
                    <path d="M11.136,12.048 C11.904,12.048 12.528,12.432 13.104,12.816 C13.632,13.152 14.064,13.344 14.544,13.344 C15.168,13.344 15.792,13.056 16.416,12.432 L17.376,11.472 C18.048,10.8 18.288,10.224 18.288,9.744 C18.288,8.976 17.664,8.448 17.28,8.16 C15.36,6.624 13.392,5.952 11.04,5.952 C4.176,5.952 0,10.32 0,18.048 C0,25.728 4.128,29.904 11.136,29.904 C13.056,29.904 15.264,29.424 17.52,27.696 C18.192,27.168 18.528,26.64 18.528,26.064 C18.528,25.488 18.192,24.864 17.472,24.144 L16.896,23.568 C16.224,22.896 15.792,22.56 15.264,22.56 C14.832,22.56 14.352,22.8 13.632,23.184 C12.96,23.568 12,23.808 11.232,23.808 C8.496,23.808 6.624,21.84 6.624,18.048 C6.624,14.256 8.352,12.048 11.136,12.048 Z" id="Path"></path>
                    <path d="M43.344,18 C43.344,10.128 38.832,5.952 31.824,5.952 C24.912,5.952 20.448,10.128 20.448,18 C20.448,25.872 25.008,29.904 31.824,29.904 C38.832,29.904 43.344,25.872 43.344,18 Z M27.168,18 C27.168,14.112 29.088,11.856 31.824,11.856 C34.704,11.856 36.624,14.112 36.624,18 C36.624,21.888 34.704,24 31.824,24 C29.088,24 27.168,21.888 27.168,18 Z" id="Shape"></path>
                    <path d="M60.912,7.584 C60.912,5.856 60.144,5.568 59.088,5.568 L58.944,5.568 C55.92,5.568 53.424,8.016 52.896,11.136 L52.896,9.36 C52.896,7.056 52.32,6.48 50.064,6.48 L49.728,6.48 C47.472,6.48 46.896,7.056 46.896,9.36 L46.896,26.544 C46.896,28.848 47.472,29.424 49.728,29.424 L50.688,29.424 C52.944,29.424 53.52,28.848 53.52,26.544 L53.52,19.152 C53.52,13.92 56.16,12.192 58.176,12.192 C58.32,12.192 58.512,12.192 58.944,12.24 C60.096,12.336 60.912,11.76 60.912,10.128 L60.912,7.584 Z" id="Path"></path>
                    <path d="M84.816,18 C84.816,10.128 80.304,5.952 73.296,5.952 C66.384,5.952 61.92,10.128 61.92,18 C61.92,25.872 66.48,29.904 73.296,29.904 C80.304,29.904 84.816,25.872 84.816,18 Z M68.64,18 C68.64,14.112 70.56,11.856 73.296,11.856 C76.176,11.856 78.096,14.112 78.096,18 C78.096,21.888 76.176,24 73.296,24 C70.56,24 68.64,21.888 68.64,18 Z" id="Shape"></path>
                    <path d="M95.04,9.36 C95.04,7.056 94.464,6.48 92.208,6.48 L91.2,6.48 C88.944,6.48 88.368,7.056 88.368,9.36 L88.368,26.544 C88.368,28.848 88.944,29.424 91.2,29.424 L92.208,29.424 C94.464,29.424 95.04,28.848 95.04,26.544 L95.04,17.952 C95.184,14.736 96.576,11.904 99.456,11.904 C101.28,11.904 102.096,13.632 102.096,16.32 L102.096,26.544 C102.096,28.848 102.672,29.424 104.928,29.424 L105.936,29.424 C108.192,29.424 108.768,28.848 108.768,26.544 L108.768,14.928 C108.768,9.168 105.936,5.952 101.424,5.952 C97.92,5.952 95.664,7.92 95.04,10.656 L95.04,9.36 Z" id="Path"></path>
                    <path d="M122.4,12.432 C124.8,12.432 125.712,13.248 125.952,15.312 L122.496,15.312 C115.152,15.312 112.272,18.288 112.272,22.656 C112.272,27.456 115.008,29.904 119.904,29.904 C123.216,29.904 125.616,28.848 126.672,27.264 C127.248,28.992 127.872,29.424 129.936,29.424 C132.192,29.424 132.528,28.848 132.528,26.544 L132.528,16.224 C132.528,8.544 127.68,5.952 122.352,5.952 C119.424,5.952 117.264,6.768 115.344,8.16 C114.768,8.592 113.856,9.312 113.856,10.272 C113.856,10.752 114.096,11.328 114.768,11.904 L115.632,12.672 C116.976,13.872 117.36,13.92 118.56,13.248 C119.568,12.72 120.288,12.432 122.4,12.432 Z M121.44,24.384 C120.048,24.384 118.896,23.808 118.896,22.32 C118.896,20.976 120,20.256 122.496,20.256 L126,20.256 L126,20.688 C126,23.568 124.128,24.384 121.44,24.384 Z" id="Shape"></path>
                    <path d="M153.84,2.88 C153.84,0.576 153.456,0 151.968,0 L151.68,0 C150.336,0 149.616,1.872 148.848,3.312 L147.168,6.48 L146.784,6.48 C144.528,6.48 143.952,7.056 143.952,9.36 L143.952,9.936 C143.952,12.24 144.528,12.816 146.784,12.816 L147.168,12.816 L147.168,22.08 C147.168,26.976 149.568,29.76 154.848,29.76 C155.616,29.76 156.528,29.712 157.344,29.664 C158.496,29.568 159.216,28.992 159.216,27.6 L159.216,25.248 C159.216,23.856 158.736,23.232 157.728,23.28 C157.104,23.28 156.528,23.424 155.712,23.424 C154.752,23.424 153.84,22.896 153.84,20.064 L153.84,12.816 L156.192,12.816 C158.448,12.816 159.024,12.24 159.024,9.936 L159.024,9.36 C159.024,7.056 158.448,6.48 156.192,6.48 L153.84,6.48 L153.84,2.88 Z" id="Path"></path>
                    <path d="M171.744,5.952 C164.784,5.952 161.04,11.472 161.04,17.952 C161.04,25.68 165.6,29.904 172.608,29.904 C177.024,29.904 179.472,28.704 181.2,27.264 C181.872,26.688 182.208,26.208 182.208,25.68 C182.208,25.2 181.968,24.768 181.44,24.192 L180.384,23.04 C179.904,22.512 179.52,22.272 179.04,22.272 C178.56,22.272 177.936,22.512 176.976,23.04 C175.872,23.616 174.624,24.096 172.56,24.096 C170.016,24.096 168.72,23.04 168.096,21.12 L179.712,21.12 C181.968,21.12 182.496,20.544 182.496,18.24 L182.496,17.616 C182.496,11.472 179.088,5.952 171.744,5.952 Z M171.744,11.76 C173.76,11.76 175.248,13.056 175.776,15.408 L167.904,15.408 C168.384,12.96 169.68,11.76 171.744,11.76 Z" id="Shape"></path>
                    <path d="M194.784,5.952 C189.456,5.952 186.288,8.304 186.288,13.344 C186.288,22.512 197.088,18.576 197.088,22.32 C197.088,23.424 196.176,24.096 194.256,24.096 C192.096,24.096 190.848,23.664 189.84,22.704 C189.36,22.224 188.928,21.984 188.496,21.984 C187.92,21.984 187.296,22.464 186.384,23.424 L185.904,23.952 C185.328,24.624 184.992,25.152 184.992,25.728 C184.992,26.256 185.28,26.736 185.856,27.312 C187.968,29.376 190.896,29.904 194.208,29.904 C201.168,29.904 203.712,26.4 203.712,22.224 C203.712,13.344 192.912,16.032 192.912,13.056 C192.912,12.144 193.488,11.76 194.784,11.76 C196.032,11.76 197.088,12.096 198.048,12.768 C198.624,13.152 199.152,13.392 199.68,13.392 C200.4,13.392 201.12,12.96 201.792,12.096 L202.176,11.568 C202.704,10.848 202.992,10.32 202.992,9.84 C202.992,9.216 202.512,8.64 201.552,7.872 C199.92,6.624 197.472,5.952 194.784,5.952 Z" id="Path"></path>
                    <path d="M214.896,2.88 C214.896,0.576 214.512,0 213.024,0 L212.736,0 C211.392,0 210.672,1.872 209.904,3.312 L208.224,6.48 L207.84,6.48 C205.584,6.48 205.008,7.056 205.008,9.36 L205.008,9.936 C205.008,12.24 205.584,12.816 207.84,12.816 L208.224,12.816 L208.224,22.08 C208.224,26.976 210.624,29.76 215.904,29.76 C216.672,29.76 217.584,29.712 218.4,29.664 C219.552,29.568 220.272,28.992 220.272,27.6 L220.272,25.248 C220.272,23.856 219.792,23.232 218.784,23.28 C218.16,23.28 217.584,23.424 216.768,23.424 C215.808,23.424 214.896,22.896 214.896,20.064 L214.896,12.816 L217.248,12.816 C219.504,12.816 220.08,12.24 220.08,9.936 L220.08,9.36 C220.08,7.056 219.504,6.48 217.248,6.48 L214.896,6.48 L214.896,2.88 Z" id="Path"></path>
                </g>
                <g id="noun-seal-4266670" transform="translate(228.752000, 0.000000)" fill="#008526">
                    <path d="M42.9233643,15.2015381 C42.5374512,14.0137207 41.7014404,13.0606202 40.5941895,12.5259278 C40.8122559,11.3158203 40.5324219,10.079126 39.7984619,9.06882328 C39.0642335,8.05852053 37.974707,7.40996097 36.756543,7.24345705 C36.5900391,6.02529296 35.9414795,4.93576661 34.9311768,4.20153811 C33.920874,3.46730962 32.683374,3.18747561 31.4740723,3.4058106 C30.9393799,2.29855962 29.9862793,1.46254889 28.7984619,1.07663578 C27.610376,0.69045416 26.3479004,0.805932655 25.2645508,1.38815919 C24.4140381,0.50058591 23.2490479,0 22,0 C20.7509521,0 19.5859619,0.50058591 18.7354492,1.38815919 C17.6520996,0.80646973 16.3893555,0.690454105 15.2015381,1.07663578 C14.0137207,1.46254889 13.0606201,2.29855962 12.5259277,3.4058106 C11.3155517,3.18774418 10.0788574,3.46784675 9.06882322,4.20153811 C8.05852047,4.93576661 7.40996091,6.02529301 7.24345699,7.24345705 C6.0252929,7.40996097 4.93576655,8.05852053 4.20153806,9.06882328 C3.46757807,10.079126 3.18774412,11.3158203 3.40581054,12.5259278 C2.29855956,13.0606202 1.46254884,14.0137207 1.07663573,15.2015381 C0.690722615,16.3893555 0.80673824,17.6520996 1.38815913,18.7354493 C0.50058591,19.5859619 0,20.7509521 0,22 C0,23.2490479 0.50058591,24.4140381 1.38815919,25.2645508 C0.806738295,26.3479004 0.69072267,27.6106445 1.07663578,28.7984619 C1.46254889,29.9862793 2.29855962,30.9393799 3.4058106,31.4740723 C3.18774418,32.6841797 3.46757818,33.9208741 4.20153811,34.9311768 C4.93576661,35.9414795 6.02529301,36.5900391 7.24345705,36.756543 C7.40996097,37.9747071 8.05852053,39.0642335 9.06882328,39.7984619 C10.0788575,40.5326904 11.316626,40.8119873 12.5259278,40.5941895 C13.0606202,41.7014404 14.0137207,42.5374512 15.2015381,42.9233643 C16.3893555,43.3087403 17.6518311,43.1932618 18.7354493,42.6118409 C19.5859619,43.4994141 20.7509521,44 22,44 C23.2490479,44 24.4140381,43.4994141 25.2645508,42.6118408 C26.3479004,43.1929931 27.6101074,43.3090088 28.7984619,42.9233642 C29.9862793,42.5374511 30.9393799,41.7014404 31.4740723,40.5941894 C32.6844483,40.8127929 33.9206055,40.5318847 34.9311768,39.7984619 C35.9414795,39.0642334 36.5900391,37.974707 36.756543,36.756543 C37.9747071,36.590039 39.0642335,35.9414795 39.7984619,34.9311767 C40.5324219,33.920874 40.8122559,32.6841797 40.5941895,31.4740722 C41.7014404,30.9393798 42.5374512,29.9862793 42.9233643,28.7984619 C43.3092774,27.6106445 43.1932618,26.3479004 42.6118409,25.2645507 C43.4994141,24.4140381 44,23.2490479 44,22 C44,20.7509521 43.4994141,19.5859619 42.6118408,18.7354492 C43.1932617,17.6520996 43.3092773,16.3893555 42.9233643,15.2015381 Z" id="Shape"></path>
                </g>
                <g id="noun-checkmark-67952" transform="translate(239.884530, 13.253012)" fill="#FFFFFF" stroke="#FFFFFF" stroke-width="2">
                    <path d="M20.3810929,0.0315302631 C21.1598443,-0.816378443 22.3987668,0.420155087 21.6200155,1.26806379 C17.3014854,6.14353885 12.9475576,10.9483549 8.59362975,15.7885004 C8.38124302,16.0358071 8.1688563,16.2477843 7.95646957,16.495091 C7.63788949,16.8483863 7.0361271,16.8130567 6.71754702,16.495091 C4.5228842,14.4106487 2.32822138,12.290877 0.133558568,10.2064347 C-0.680590541,9.42918509 0.558332016,8.15732203 1.37248113,8.96990121 C3.35475722,10.8423663 5.30163552,12.7148313 7.28391161,14.6226259 C11.6732372,9.74715085 16.0271651,4.90700532 20.3810929,0.0315302631 Z" id="Path"></path>
                </g>
            </g>
        </g>
    </g>
</svg>